<?xml version="1.0" standalone="no"?>
<!DOCTYPE svg PUBLIC "-//W3C//DTD SVG 1.1//EN" "http://www.w3.org/Graphics/SVG/1.1/DTD/svg11.dtd" >
<svg>
<metadata>
Created by FontForge 20090914 at Sat Jan 16 22:35:00 2021
 By www-data
Copyright 2019 The Petrona Project Authors (https://github.com/RingoSeeber/Petrona)
</metadata>
<defs>
<font id="Petrona-Regular" horiz-adv-x="0" >
  <font-face 
    font-family="Petrona"
    font-weight="400"
    font-stretch="normal"
    units-per-em="1000"
    panose-1="0 0 0 0 0 0 0 0 0 0"
    ascent="800"
    descent="-200"
    x-height="442.999"
    cap-height="640.999"
    bbox="-70.001 -270.001 1264 1076"
    underline-thickness="60"
    underline-position="-80"
    unicode-range="U+000D-U+FB02"
  />
<missing-glyph horiz-adv-x="599" 
d="M50 71v500h500v-500h-500zM100 121h400v400h-400v-400z" />
    <glyph glyph-name="fi" unicode="fi" horiz-adv-x="644" 
d="M64 0c0 20 5.33301 32.002 16 36.002l57 19l-11 -14v383c0 47.333 6.16699 90 18.5 128s29.166 70.667 50.499 98s45.5 48.166 72.5 62.499s55.5 21.5 85.5 21.5c19.333 0 33.833 -3.83301 43.5 -11.5s14.5 -17.167 14.5 -28.5c0 -4 -0.666992 -8.33301 -2 -13
s-3 -9.33398 -5 -14.001h-61c-30 0 -55.167 -6.33301 -75.5 -19s-35.5 -33.667 -45.5 -63s-15 -69.333 -15 -120v-426l-13 18l81 -20c0 -10 -1.16699 -17.5 -3.5 -22.5s-7.16602 -9.83301 -14.499 -14.5h-193zM331 396.002l-281.001 5c0 9.33301 1.16699 17.833 3.5 25.5
s5.83301 13.167 10.5 16.5l286 11c2 -3.33301 3.33301 -6.5 4 -9.5s1 -6.16699 1 -9.5c0 -10.667 -2.16699 -19.5 -6.5 -26.5s-10.166 -11.167 -17.499 -12.5zM388.999 0.00195312c0 21.333 5.33203 33.333 15.999 36l60 19l-11 -14v372l12 -15l-62 11
c-10 1.33301 -15 13 -15 35c22.667 3.33301 41.5 5.83301 56.5 7.5s29.833 2.5 44.5 2.5c30.667 0 46 -19 46 -57v-354l-12 13l80 -19c0 -10 -1.16699 -17.5 -3.5 -22.5s-7.16602 -9.83301 -14.499 -14.5h-197zM490.998 553.002c-16 0 -28.334 4.5 -37.001 13.5
s-13 20.833 -13 35.5s5.16699 26.667 15.5 36s21.833 14 34.5 14c16 0 28.5 -4.5 37.5 -13.5s13.5 -21.167 13.5 -36.5c0 -14 -5.16699 -25.667 -15.5 -35s-22.166 -14 -35.499 -14z" />
    <glyph glyph-name="fl" unicode="fl" horiz-adv-x="635" 
d="M64 0c0 20 5.33398 31.999 16.001 35.999l57 19l-11 -14v383c0 68.667 12.167 125.834 36.5 171.501s57.666 80.167 99.999 103.5s90.166 35 143.499 35c16.667 0 30 -3.5 40 -10.5s15 -16.167 15 -27.5c0 -4.66699 -0.666992 -9.5 -2 -14.5s-3.33301 -9.83301 -6 -14.5
h-38c-52 0 -93.167 -5.83301 -123.5 -17.5s-52 -32 -65 -61s-19.5 -70.167 -19.5 -123.5v-426l-13 18l81 -20c0 -10 -1.16699 -17.5 -3.5 -22.5s-7.16602 -9.83301 -14.499 -14.5h-193zM331.001 395.999l-281.001 5c0 9.33301 1.16699 17.833 3.5 25.5
s5.83301 13.167 10.5 16.5l286 11c2 -3.33301 3.33301 -6.5 4 -9.5s1 -6.16699 1 -9.5c0 -10.667 -2.16699 -19.5 -6.5 -26.5s-10.166 -11.167 -17.499 -12.5zM381 -0.000976562c0 11.333 1.33203 19.667 3.99902 25s6.66699 9 12 11l60 19l-11 -14v651l12 -15l-62 11
c-10 2 -15 13.667 -15 35c22 3.33301 40.667 6 56 8s30 3 44 3c30.667 0 46 -19.333 46 -58v-633l-12 13l81 -19c0 -10 -1.16699 -17.5 -3.5 -22.5s-7.16602 -9.83301 -14.499 -14.5h-197z" />
    <glyph glyph-name="f_f" unicode="ff" horiz-adv-x="679" 
d="M64 0c0 20 5.33301 32.002 16 36.002l57 19l-11 -14v383c0 47.333 6.16699 90 18.5 128s29.166 70.667 50.499 98s45.5 48.166 72.5 62.499s55.5 21.5 85.5 21.5c19.333 0 33.833 -3.83301 43.5 -11.5s14.5 -17.167 14.5 -28.5c0 -4 -0.666992 -8.33301 -2 -13
s-3 -9.33398 -5 -14.001h-61c-30 0 -55.167 -6.33301 -75.5 -19s-35.5 -33.667 -45.5 -63s-15 -69.333 -15 -120v-426l-13 18l81 -20c0 -10 -1.16699 -17.5 -3.5 -22.5s-7.16602 -9.83301 -14.499 -14.5h-193zM331 396.002l-281.001 5c0 9.33301 1.16699 17.833 3.5 25.5
s5.83301 13.167 10.5 16.5l286 11c2 -3.33301 3.33301 -6.5 4 -9.5s1 -6.16699 1 -9.5c0 -10.667 -2.16699 -19.5 -6.5 -26.5s-10.166 -11.167 -17.499 -12.5zM402.999 0.00195312c0 20 5.33301 32.002 16 36.002l57 19l-11 -14v383c0 47.333 6.16699 90 18.5 128
s29.166 70.667 50.499 98s45.5 48.166 72.5 62.499s55.5 21.5 85.5 21.5c19.333 0 33.833 -3.83301 43.5 -11.5s14.5 -17.167 14.5 -28.5c0 -4 -0.666992 -8.33301 -2 -13s-3 -9.33398 -5 -14.001h-61c-30 0 -55.167 -6.33301 -75.5 -19s-35.5 -33.667 -45.5 -63
s-15 -69.333 -15 -120v-426l-13 18l81 -20c0 -10 -1.16699 -17.5 -3.5 -22.5s-7.16602 -9.83301 -14.499 -14.5h-193zM669.999 396.004l-281.001 5c0 9.33301 1.16699 17.833 3.5 25.5s5.83301 13.167 10.5 16.5l286 11c2 -3.33301 3.33301 -6.5 4 -9.5s1 -6.16699 1 -9.5
c0 -10.667 -2.16699 -19.5 -6.5 -26.5s-10.166 -11.167 -17.499 -12.5z" />
    <glyph glyph-name="f_f_i" unicode="ffi" horiz-adv-x="984" 
d="M64 0c0 20 5.33301 32.002 16 36.002l57 19l-11 -14v383c0 47.333 6.16699 90 18.5 128s29.166 70.667 50.499 98s45.5 48.166 72.5 62.499s55.5 21.5 85.5 21.5c19.333 0 33.833 -3.83301 43.5 -11.5s14.5 -17.167 14.5 -28.5c0 -4 -0.666992 -8.33301 -2 -13
s-3 -9.33398 -5 -14.001h-61c-30 0 -55.167 -6.33301 -75.5 -19s-35.5 -33.667 -45.5 -63s-15 -69.333 -15 -120v-426l-13 18l81 -20c0 -10 -1.16699 -17.5 -3.5 -22.5s-7.16602 -9.83301 -14.499 -14.5h-193zM331 396.002l-281.001 5c0 9.33301 1.16699 17.833 3.5 25.5
s5.83301 13.167 10.5 16.5l286 11c2 -3.33301 3.33301 -6.5 4 -9.5s1 -6.16699 1 -9.5c0 -10.667 -2.16699 -19.5 -6.5 -26.5s-10.166 -11.167 -17.499 -12.5zM402.999 0.00195312c0 20 5.33301 32.002 16 36.002l57 19l-11 -14v383c0 47.333 6.16699 90 18.5 128
s29.166 70.667 50.499 98s45.5 48.166 72.5 62.499s55.5 21.5 85.5 21.5c19.333 0 33.833 -3.83301 43.5 -11.5s14.5 -17.167 14.5 -28.5c0 -4 -0.666992 -8.33301 -2 -13s-3 -9.33398 -5 -14.001h-61c-30 0 -55.167 -6.33301 -75.5 -19s-35.5 -33.667 -45.5 -63
s-15 -69.333 -15 -120v-426l-13 18l81 -20c0 -10 -1.16699 -17.5 -3.5 -22.5s-7.16602 -9.83301 -14.499 -14.5h-193zM669.999 396.004l-281.001 5c0 9.33301 1.16699 17.833 3.5 25.5s5.83301 13.167 10.5 16.5l286 11c2 -3.33301 3.33301 -6.5 4 -9.5s1 -6.16699 1 -9.5
c0 -10.667 -2.16699 -19.5 -6.5 -26.5s-10.166 -11.167 -17.499 -12.5zM728.998 0.00390625c0 21.333 5.33203 33.333 15.999 36l60 19l-11 -14v372l12 -15l-62 11c-10 1.33301 -15 13 -15 35c22.667 3.33301 41.5 5.83301 56.5 7.5s29.833 2.5 44.5 2.5
c30.667 0 46 -19 46 -57v-354l-12 13l80 -19c0 -10 -1.16699 -17.5 -3.5 -22.5s-7.16602 -9.83301 -14.499 -14.5h-197zM830.997 553.004c-16 0 -28.334 4.5 -37.001 13.5s-13 20.833 -13 35.5s5.16699 26.667 15.5 36s21.833 14 34.5 14c16 0 28.5 -4.5 37.5 -13.5
s13.5 -21.167 13.5 -36.5c0 -14 -5.16699 -25.667 -15.5 -35s-22.166 -14 -35.499 -14z" />
    <glyph glyph-name="f_f_l" unicode="ffl" horiz-adv-x="974" 
d="M64 0c0 20 5.33301 32.002 16 36.002l57 19l-11 -14v383c0 47.333 6.16699 90 18.5 128s29.166 70.667 50.499 98s45.5 48.166 72.5 62.499s55.5 21.5 85.5 21.5c19.333 0 33.833 -3.83301 43.5 -11.5s14.5 -17.167 14.5 -28.5c0 -4 -0.666992 -8.33301 -2 -13
s-3 -9.33398 -5 -14.001h-61c-30 0 -55.167 -6.33301 -75.5 -19s-35.5 -33.667 -45.5 -63s-15 -69.333 -15 -120v-426l-13 18l81 -20c0 -10 -1.16699 -17.5 -3.5 -22.5s-7.16602 -9.83301 -14.499 -14.5h-193zM331 396.002l-281.001 5c0 9.33301 1.16699 17.833 3.5 25.5
s5.83301 13.167 10.5 16.5l286 11c2 -3.33301 3.33301 -6.5 4 -9.5s1 -6.16699 1 -9.5c0 -10.667 -2.16699 -19.5 -6.5 -26.5s-10.166 -11.167 -17.499 -12.5zM402.999 0.00195312c0 20 5.33398 31.999 16.001 35.999l57 19l-11 -14v383
c0 68.667 12.167 125.834 36.5 171.501s57.666 80.167 99.999 103.5s90.166 35 143.499 35c16.667 0 30 -3.5 40 -10.5s15 -16.167 15 -27.5c0 -4.66699 -0.666992 -9.5 -2 -14.5s-3.33301 -9.83301 -6 -14.5h-38c-52 0 -93.167 -5.83301 -123.5 -17.5s-52 -32 -65 -61
s-19.5 -70.167 -19.5 -123.5v-426l-13 18l81 -20c0 -10 -1.16699 -17.5 -3.5 -22.5s-7.16602 -9.83301 -14.499 -14.5h-193zM670 396.001l-281.001 5c0 9.33301 1.16699 17.833 3.5 25.5s5.83301 13.167 10.5 16.5l286 11c2 -3.33301 3.33301 -6.5 4 -9.5s1 -6.16699 1 -9.5
c0 -10.667 -2.16699 -19.5 -6.5 -26.5s-10.166 -11.167 -17.499 -12.5zM719.999 0.000976562c0 11.333 1.33203 19.667 3.99902 25s6.66699 9 12 11l60 19l-11 -14v651l12 -15l-62 11c-10 2 -15 13.667 -15 35c22 3.33301 40.667 6 56 8s30 3 44 3
c30.667 0 46 -19.333 46 -58v-633l-12 13l81 -19c0 -10 -1.16699 -17.5 -3.5 -22.5s-7.16602 -9.83301 -14.499 -14.5h-197z" />
    <glyph glyph-name=".notdef" horiz-adv-x="599" 
d="M50 71v500h500v-500h-500zM100 121h400v400h-400v-400z" />
    <glyph glyph-name="CR" unicode="&#xd;" horiz-adv-x="600" 
 />
    <glyph glyph-name="space" unicode=" " horiz-adv-x="225" 
 />
    <glyph glyph-name="exclam" unicode="!" horiz-adv-x="230" 
d="M115 178c-8 0 -15.666 1 -22.999 3c-2.66699 46 -5.16699 91.333 -7.5 136l-6.5 124l-5 98c-1.33301 27.333 -2 47 -2 59c0 19.333 3.16699 33.666 9.5 42.999s17.833 14 34.5 14c16 0 27.167 -4.66699 33.5 -14s9.5 -23.666 9.5 -42.999c0 -12 -0.666992 -31.667 -2 -59
l-5 -98l-6.5 -124c-2.33301 -44.667 -4.5 -90 -6.5 -136c-6.66699 -2 -14.334 -3 -23.001 -3zM116.001 -12c-15.333 0 -27.333 4.50098 -36 13.501s-13 20.833 -13 35.5c0 14 5 25.5 15 34.5s21.333 13.5 34 13.5c16 0 28.333 -4.33301 37 -13s13 -20.334 13 -35.001
c0 -14 -5 -25.667 -15 -35s-21.667 -14 -35 -14z" />
    <glyph glyph-name="quotedbl" unicode="&#x22;" horiz-adv-x="264" 
d="M66 484c-3.33301 0 -6.66797 0.5 -10.001 1.5s-6 2.16699 -8 3.5c-4.66699 32 -8.5 59.167 -11.5 81.5s-5.33301 40.833 -7 55.5s-2.5 26 -2.5 34c0 16 2.83301 29.167 8.5 39.5s15.834 15.5 30.501 15.5c15.333 0 25.833 -5.16699 31.5 -15.5s8.5 -23.5 8.5 -39.5
c0 -8 -0.666992 -19.333 -2 -34s-3.5 -33.167 -6.5 -55.5s-7.16699 -49.5 -12.5 -81.5c-4.66699 -3.33301 -11 -5 -19 -5zM197.998 484c-3.33301 0 -6.66797 0.5 -10.001 1.5s-6 2.16699 -8 3.5c-4.66699 32 -8.5 59.167 -11.5 81.5s-5.33301 40.833 -7 55.5
s-2.5 26 -2.5 34c0 16 2.83301 29.167 8.5 39.5s15.834 15.5 30.501 15.5c15.333 0 25.833 -5.16699 31.5 -15.5s8.5 -23.5 8.5 -39.5c0 -8 -0.666992 -19.333 -2 -34s-3.5 -33.167 -6.5 -55.5s-7.16699 -49.5 -12.5 -81.5c-4.66699 -3.33301 -11 -5 -19 -5z" />
    <glyph glyph-name="numbersign" unicode="#" horiz-adv-x="549" 
d="M169 22c-22 0 -37.002 4.66895 -45.002 14.002l25 150l18 -18h-151c-2 3.33301 -3.5 7.33301 -4.5 12s-1.5 9 -1.5 13c0 4.66699 0.333008 8.5 1 11.5s1.33398 5.5 2.00098 7.5h160l-22 -17l23 149l18 -18h-147c-2 3.33301 -3.5 7.33301 -4.5 12s-1.5 9 -1.5 13
c0 4.66699 0.333008 8.5 1 11.5s1.33398 5.5 2.00098 7.5h157l-22 -17l27 164c20.667 0 35.667 -4.66699 45 -14l-25 -150l-13 17h158l-16 -17l27 164c22 0 37 -4.66699 45 -14l-25 -150l-19 17h150c2.66699 -2.66699 4.66699 -6.33398 6 -11.001s2 -9.66699 2 -15
c0 -4 -0.333008 -7.33301 -1 -10s-1.66699 -5.33398 -3 -8.00098h-158l21 18l-23 -149l-19 17h146c2.66699 -2.66699 4.66699 -6.5 6 -11.5s2 -9.5 2 -13.5s-0.333008 -7.66699 -1 -11s-1.66699 -6 -3 -8h-155l21 18l-27 -164c-20.667 0 -35.667 4.66699 -45 14l25 150
l12 -18h-156l15 18zM197.998 195.002l-11 16h156l-15 -16l23 149l10 -16h-154l14 16z" />
    <glyph glyph-name="dollar" unicode="$" horiz-adv-x="516" 
d="M259 -2c-26 0 -50.8379 2.16895 -74.5049 6.50195s-46 10.166 -67 17.499s-41.167 15.666 -60.5 24.999l17 131c2 5.33301 5.5 9 10.5 11s9.83301 3 14.5 3c7.33301 0 13.333 -1 18 -3l7 -128l-18 31c17.333 -14.667 39.5 -26.834 66.5 -36.501s56.167 -14.5 87.5 -14.5
c36 0 65.667 10.833 89 32.5s35 49.834 35 84.501c0 20 -4.16699 37.167 -12.5 51.5s-22.666 28.333 -42.999 42s-49.166 28.834 -86.499 45.501c-39.333 18 -70.833 36 -94.5 54s-40.667 37.5 -51 58.5s-15.5 45.5 -15.5 73.5c0 49.333 16.333 88.666 49 117.999
s76.334 44 131.001 44c16.667 0 34.5 -1.5 53.5 -4.5s38.333 -7.66699 58 -14s39.167 -14.5 58.5 -24.5l-14 -126c-10 0 -18.167 1.66699 -24.5 5s-10.166 7.33301 -11.499 12l-11 97l20 -36c-13.333 14.667 -32.166 26.5 -56.499 35.5s-49.166 13.5 -74.499 13.5
c-34.667 0 -62 -9 -82 -27s-30 -42.333 -30 -73c0 -18.667 4.16699 -35.334 12.5 -50.001s23 -28.667 44 -42s50.167 -28.333 87.5 -45c41.333 -18.667 74.333 -37 99 -55s42.334 -37.5 53.001 -58.5s16 -45.833 16 -74.5c0 -35.333 -8.33301 -66.666 -25 -93.999
s-39.834 -48.5 -69.501 -63.5s-64.834 -22.5 -105.501 -22.5zM280.995 -98.998c-6.66699 0 -13.667 0.666992 -21 2s-13.666 3.33301 -18.999 6v831c6.66699 0 13.667 -0.666992 21 -2s13.666 -3.33301 18.999 -6v-831z" />
    <glyph glyph-name="percent" unicode="%" horiz-adv-x="693" 
d="M91 -12c-10 0 -18.334 2.5 -25.001 7.5s-11 10.833 -13 17.5l549 642c9.33301 0 17.333 -2.5 24 -7.5s11.334 -10.833 14.001 -17.5zM515.999 5c-24.667 0 -46.166 6 -64.499 18s-32.5 28.333 -42.5 49s-15 43.667 -15 69c0 30 5.5 57.667 16.5 83s26.667 45.5 47 60.5
s43.833 22.5 70.5 22.5c25.333 0 47.166 -6 65.499 -18s32.333 -28.167 42 -48.5s14.5 -43.5 14.5 -69.5c0 -30.667 -5.5 -58.5 -16.5 -83.5s-26.5 -45 -46.5 -60s-43.667 -22.5 -71 -22.5zM521 32c22.667 0 40.667 10.666 54 31.999s20 50.333 20 87
c0 40 -6.5 71.5 -19.5 94.5s-30.5 34.5 -52.5 34.5c-22.667 0 -40.5 -10.5 -53.5 -31.5s-19.5 -50.167 -19.5 -87.5c0 -39.333 6.33301 -70.666 19 -93.999s30 -35 52 -35zM165 345.999c-25.333 0 -47.166 6 -65.499 18s-32.333 28.333 -42 49s-14.5 43.667 -14.5 69
c0 30 5.66699 57.667 17 83s27 45.5 47 60.5s43.333 22.5 70 22.5c25.333 0 47.166 -6 65.499 -18s32.333 -28.167 42 -48.5s14.5 -43.5 14.5 -69.5c0 -30 -5.5 -57.667 -16.5 -83s-26.5 -45.5 -46.5 -60.5s-43.667 -22.5 -71 -22.5zM170 372.999
c23.333 0 41.502 10.666 54.502 31.999s19.5 50.333 19.5 87c0 40 -6.33301 71.5 -19 94.5s-30.334 34.5 -53.001 34.5s-40.334 -10.5 -53.001 -31.5s-19 -50.167 -19 -87.5c0 -39.333 6.16699 -70.666 18.5 -93.999s29.5 -35 51.5 -35z" />
    <glyph glyph-name="ampersand" unicode="&#x26;" horiz-adv-x="742" 
d="M278 -12c-38 0 -73.0029 6.5 -105.003 19.5s-57.667 32.333 -77 58s-29 57.167 -29 94.5c0 34 7.5 62.833 22.5 86.5s34.333 43.834 58 60.501s48.834 32.167 75.501 46.5s51.834 29 75.501 44s43 32.667 58 53s22.5 44.833 22.5 73.5c0 29.333 -8 52.833 -24 70.5
s-37.667 26.5 -65 26.5c-26.667 0 -48.834 -8.83301 -66.501 -26.5s-26.5 -40.167 -26.5 -67.5c0 -22.667 7.16699 -45.834 21.5 -69.501s37.166 -54.167 68.499 -91.5l212 -241c18.667 -20.667 36.834 -36.667 54.501 -48s37 -19.166 58 -23.499s45.833 -6.5 74.5 -6.5
c0 -8.66699 -3 -17.667 -9 -27s-15 -17 -27 -23s-27 -9 -45 -9c-24.667 0 -51.167 6.5 -79.5 19.5s-54.833 34.5 -79.5 64.5l-222 259c-24 28.667 -43 54 -57 76s-24 41.833 -30 59.5s-9 34.167 -9 49.5c0 42.667 15.333 76.5 46 101.5s69.667 37.5 117 37.5
c28.667 0 54.167 -5 76.5 -15s40.166 -24.333 53.499 -43s20 -41.334 20 -68.001c0 -28.667 -7 -53.167 -21 -73.5s-32.167 -38.166 -54.5 -53.499s-46 -29.833 -71 -43.5s-48.667 -28.5 -71 -44.5s-40.5 -34.833 -54.5 -56.5s-21 -48.167 -21 -79.5
c0 -29.333 6.33301 -55.166 19 -77.499s30.167 -39.833 52.5 -52.5s48.166 -19 77.499 -19c50.667 0 94.834 16.667 132.501 50s67 80 88 140s31.5 129.333 31.5 208l15 -24l-105 5c0 10 0.833008 18.167 2.5 24.5s4.83398 10.833 9.50098 13.5l228 17
c1.33301 -2 2.5 -5.16699 3.5 -9.5s1.5 -8.5 1.5 -12.5c0 -9.33301 -2.5 -18 -7.5 -26s-11.833 -13.333 -20.5 -16l-84 3l17 23c0.666992 -64.667 -6.66602 -123.834 -21.999 -177.501s-37.666 -99.834 -66.999 -138.501s-64.5 -68.5 -105.5 -89.5s-86.5 -31.5 -136.5 -31.5
z" />
    <glyph glyph-name="quotesingle" unicode="'" horiz-adv-x="132" 
d="M66 484c-3.33301 0 -6.66797 0.5 -10.001 1.5s-6 2.16699 -8 3.5c-4.66699 32 -8.5 59.167 -11.5 81.5s-5.33301 40.833 -7 55.5s-2.5 26 -2.5 34c0 16 2.83301 29.167 8.5 39.5s15.834 15.5 30.501 15.5c15.333 0 25.833 -5.16699 31.5 -15.5s8.5 -23.5 8.5 -39.5
c0 -8 -0.666992 -19.333 -2 -34s-3.5 -33.167 -6.5 -55.5s-7.16699 -49.5 -12.5 -81.5c-4.66699 -3.33301 -11 -5 -19 -5z" />
    <glyph glyph-name="parenleft" unicode="(" horiz-adv-x="320" 
d="M287 -268c-10.667 0 -25.335 7.3291 -44.002 21.9961s-38.667 36.334 -60 65.001s-41.666 64.167 -60.999 106.5s-35.166 91.166 -47.499 146.499s-18.5 117.333 -18.5 186s6.16699 130.834 18.5 186.501s28.166 104.667 47.499 147s39.666 77.833 60.999 106.5
s41.333 50.334 60 65.001s33.334 22 44.001 22c12.667 0 20 -7 22 -21c-28 -24 -52.167 -54.5 -72.5 -91.5s-37.166 -78 -50.499 -123s-23.333 -92.5 -30 -142.5s-10 -100 -10 -150c0 -49.333 3.16699 -98.666 9.5 -147.999s16.333 -96.666 30 -141.999
s30.667 -86.333 51 -123s44.5 -67 72.5 -91c-2 -14 -9.33301 -21 -22 -21z" />
    <glyph glyph-name="parenright" unicode=")" horiz-adv-x="320" 
d="M33 -268c10.667 0 25.335 7.3291 44.002 21.9961s38.667 36.334 60 65.001s41.666 64.167 60.999 106.5s35.166 91.166 47.499 146.499s18.5 117.333 18.5 186s-6.16699 130.834 -18.5 186.501s-28.166 104.667 -47.499 147s-39.666 77.833 -60.999 106.5
s-41.333 50.334 -60 65.001s-33.334 22 -44.001 22c-12.667 0 -20 -7 -22 -21c28 -24 52.167 -54.5 72.5 -91.5s37.166 -78 50.499 -123s23.333 -92.5 30 -142.5s10 -100 10 -150c0 -49.333 -3.16699 -98.666 -9.5 -147.999s-16.333 -96.666 -30 -141.999
s-30.667 -86.333 -51 -123s-44.5 -67 -72.5 -91c2 -14 9.33301 -21 22 -21z" />
    <glyph glyph-name="asterisk" unicode="*" horiz-adv-x="451" 
d="M149 382c-8 1.33301 -16 4.00098 -24 8.00098s-15.167 9.16699 -21.5 15.5s-10.833 13.166 -13.5 20.499l127 120l2 -6l-174 24c-2 6 -3 12.333 -3 19c0 10.667 2.16699 20.5 6.5 29.5s9.83301 15.833 16.5 20.5l159 -79l-5 -5l-30 176
c4.66699 3.33301 10.167 5.66602 16.5 6.99902s12.833 2 19.5 2c7.33301 0 14.166 -0.666992 20.499 -2s11.5 -3.66602 15.5 -6.99902l-27 -175l-6 4l156 81c8 -5.33301 14 -12.333 18 -21s6 -18.667 6 -30v-8c0 -2.66699 -0.333008 -5.66699 -1 -9l-174 -28l1 6l129 -118
c-3.33301 -7.33301 -8.16602 -14.333 -14.499 -21s-13.333 -12 -21 -16s-15.5 -6.33301 -23.5 -7l-82 153h7z" />
    <glyph glyph-name="plus" unicode="+" horiz-adv-x="572" 
d="M293 77c-5.33301 0 -11.167 0.834961 -17.5 2.50195s-11.166 4.5 -14.499 8.5v413c2 1.33301 4.66699 2.16602 8 2.49902s6.66602 0.5 9.99902 0.5c6 0 12 -0.833008 18 -2.5s10.667 -4.5 14 -8.5v-413c-2.66699 -0.666992 -5.5 -1.33398 -8.5 -2.00098
s-6.16699 -1 -9.5 -1zM85.999 265.002c-6.66699 8 -10.002 17.9971 -10.002 29.9971c0 2.66699 0.333008 5.83398 1 9.50098s1.33398 6.83398 2.00098 9.50098h402c7.33301 -7.33301 11 -17.333 11 -30c0 -2.66699 -0.166992 -5.66699 -0.5 -9
s-1.16602 -6.66602 -2.49902 -9.99902h-403z" />
    <glyph glyph-name="comma" unicode="," horiz-adv-x="208" 
d="M53 -132c-3.33301 1.33301 -6.66406 4.00195 -9.99707 8.00195s-5 9.66699 -5 17c23.333 7.33301 39.666 16.333 48.999 27s14 22 14 34c0 11.333 -2.66699 20 -8 26s-11.5 11.333 -18.5 16s-13.167 10.167 -18.5 16.5s-8 15.166 -8 26.499
c0 13.333 4.66699 24.166 14 32.499s20.333 12.5 33 12.5c20.667 0 36.667 -8 48 -24s17 -35.667 17 -59c0 -27.333 -5.83301 -50.5 -17.5 -69.5s-25.834 -33.667 -42.501 -44s-32.334 -16.833 -47.001 -19.5z" />
    <glyph glyph-name="hyphen" unicode="-" horiz-adv-x="360" 
d="M65 229c-2 3.33301 -3.66699 7.16797 -5 11.501s-2 9.16602 -2 14.499c0 22 14.667 33 44 33c24 0 45.667 -0.333008 65 -1s40.333 -1 63 -1c12 0 23.333 0.5 34 1.5s21.334 2.83301 32.001 5.5c2 -4 3.5 -8 4.5 -12s1.5 -8.66699 1.5 -14c0 -22 -14.333 -33 -43 -33
c-24.667 0 -46.5 0.333008 -65.5 1s-39.833 1 -62.5 1c-12.667 0 -24.334 -0.5 -35.001 -1.5s-21 -2.83301 -31 -5.5z" />
    <glyph glyph-name="period" unicode="." horiz-adv-x="209" 
d="M104 -12c-15.333 0 -27.333 4.50098 -36 13.501s-13 20.833 -13 35.5c0 14 5 25.5 15 34.5s21.333 13.5 34 13.5c16 0 28.333 -4.33301 37 -13s13 -20.334 13 -35.001c0 -14 -5 -25.667 -15 -35s-21.667 -14 -35 -14z" />
    <glyph glyph-name="slash" unicode="/" horiz-adv-x="420" 
d="M88 -200c-12 0 -22 1.5 -30 4.5s-14.667 7.83301 -20 14.5l294 915c10 0 19 -1.33301 27 -4s16 -7.66699 24 -15z" />
    <glyph glyph-name="zero" unicode="0" horiz-adv-x="662" 
d="M312 -12c-50 0 -93.666 12.498 -130.999 37.498s-66.333 60.333 -87 106s-31 98.834 -31 159.501c0 52 7.16699 100.167 21.5 144.5s34.5 83 60.5 116s56.5 58.5 91.5 76.5s73.167 27 114.5 27c50 0 93.5 -12.5 130.5 -37.5s65.667 -60.167 86 -105.5
s30.5 -98.666 30.5 -159.999c0 -52 -7.16699 -100.167 -21.5 -144.5s-34.333 -83 -60 -116s-55.834 -58.5 -90.501 -76.5s-72.667 -27 -114 -27zM333.001 35.998c34.667 0 65.168 11.832 91.501 35.499s47 56.5 62 98.5s22.5 91 22.5 147c0 93.333 -15.333 165 -46 215
s-75.334 75 -134.001 75c-34.667 0 -65.167 -11.833 -91.5 -35.5s-46.833 -56.5 -61.5 -98.5s-22 -90.667 -22 -146c0 -93.333 15.333 -165.166 46 -215.499s75 -75.5 133 -75.5z" />
    <glyph glyph-name="one" unicode="1" horiz-adv-x="385" 
d="M79 0c0 10.667 1.33203 19 3.99902 25s6.66699 9.66699 12 11l94 21l-15 -19v572l19 -33l-143 -28c-4.66699 6.66699 -7 14.667 -7 24c0 4 0.166992 7.66699 0.5 11s1.5 6.66602 3.5 9.99902l173 61h36v-616l-18 20l110 -22c0 -8.66699 -1.16699 -15.667 -3.5 -21
s-7.16602 -10.666 -14.499 -15.999h-251z" />
    <glyph glyph-name="two" unicode="2" horiz-adv-x="538" 
d="M75 0c-8.66699 4 -15.001 9.5 -19.001 16.5s-6 16.833 -6 29.5c110 85.333 190.667 162.833 242 232.5s77 137.5 77 203.5c0 42.667 -10.167 75 -30.5 97s-50.166 33 -89.499 33c-49.333 0 -93.333 -18.667 -132 -56l12 37l-9 -106
c-0.666992 -6.66699 -4.16699 -11.5 -10.5 -14.5s-15.5 -4.5 -27.5 -4.5l-17 131c66.667 37.333 130.667 56 192 56c62 0 111.167 -15.5 147.5 -46.5s54.5 -72.833 54.5 -125.5c0 -42.667 -13.833 -89 -41.5 -139s-68.167 -101.5 -121.5 -154.5s-118 -106.5 -194 -160.5
l-11 32l354 -21l-36 -9l28 133c17.333 0 30 -5.33301 38 -16v-148h-400z" />
    <glyph glyph-name="three" unicode="3" horiz-adv-x="547" 
d="M143 599l-9 -108c-0.666992 -8.66699 -4 -15 -10 -19s-15.667 -6.33301 -29 -7l-16 132c33.333 19.333 66.333 33.833 99 43.5s65.334 14.5 98.001 14.5c59.333 0 106.333 -13.5 141 -40.5s52 -63.167 52 -108.5c0 -42 -15.667 -77.833 -47 -107.5
s-77.333 -52.167 -138 -67.5v9c66 -12 116.333 -33.333 151 -64s52 -69.334 52 -116.001c0 -34 -9.5 -63.833 -28.5 -89.5s-45.5 -45.834 -79.5 -60.501s-73.667 -22 -119 -22c-40 0 -75.667 6.16699 -107 18.5s-56 29.166 -74 50.499s-27 45.666 -27 72.999
s12.333 41 37 41c6 0 12 -0.666992 18 -2s10.333 -3.66602 13 -6.99902c0 -42 11.833 -74.167 35.5 -96.5s57.834 -33.5 102.501 -33.5c43.333 0 77.333 11.333 102 34s37 53.334 37 92.001s-12.333 69.834 -37 93.501s-66.667 43.834 -126 60.501
c-6.66699 1.33301 -11.5 5 -14.5 11s-4.5 15 -4.5 27c57.333 14.667 99.833 34.167 127.5 58.5s41.5 53.833 41.5 88.5c0 34 -11.167 61.5 -33.5 82.5s-51.5 31.5 -87.5 31.5c-24.667 0 -49.334 -5.5 -74.001 -16.5s-49.334 -27.167 -74.001 -48.5z" />
    <glyph glyph-name="four" unicode="4" horiz-adv-x="501" 
d="M218 0c0 10.667 1.49902 19 4.49902 25s6.83301 9.66699 11.5 11l84 18l-14 -16v559l35 9l-294 -418l-21 25h425v-43h-416c-20 4 -30 17.333 -30 40l316 445c44.667 0 67 -17.333 67 -52v-564l-18 17l87 -19c0 -10 -1.16699 -17.667 -3.5 -23s-7.16602 -10 -14.499 -14
h-219z" />
    <glyph glyph-name="five" unicode="5" horiz-adv-x="547" 
d="M254 -12c-36 0 -69.334 6.33203 -100.001 18.999s-55.167 29.667 -73.5 51s-27.5 44.666 -27.5 69.999c0 14.667 3.33301 25.5 10 32.5s16.334 10.5 29.001 10.5c5.33301 0 10.833 -0.666992 16.5 -2s9.83398 -3.33301 12.501 -6c0 -40.667 11.667 -72.667 35 -96
s55.666 -35 96.999 -35c44.667 0 80.334 13.833 107.001 41.5s40 64.834 40 111.501c0 32 -6.33301 60.333 -19 85s-30 43.834 -52 57.501s-47.667 20.5 -77 20.5c-24.667 0 -50.334 -4.83301 -77.001 -14.5s-48 -21.834 -64 -36.501c-8 3.33301 -13.333 7.5 -16 12.5
s-4 13.833 -4 26.5l26 305h338l-19 -152c-11.333 1.33301 -20 2.83301 -26 4.5s-10 3.83398 -12 6.50098s-3.33301 6 -4 10l-9 117l35 -26l-293 -17l31 32v-273l-38 1c25.333 15.333 50.833 26.5 76.5 33.5s52.5 10.5 80.5 10.5c42.667 0 80 -7.66699 112 -23
s56.833 -36.833 74.5 -64.5s26.5 -60.5 26.5 -98.5c0 -40.667 -10.5 -77.167 -31.5 -109.5s-49.167 -57.833 -84.5 -76.5s-75.333 -28 -120 -28z" />
    <glyph glyph-name="six" unicode="6" horiz-adv-x="583" 
d="M297 -12c-46.667 0 -87.5029 11.8311 -122.503 35.498s-62 57.167 -81 100.5s-28.5 94.333 -28.5 153c0 57.333 6.66699 109.333 20 156s32.5 86.5 57.5 119.5s55 58.333 90 76s74.167 26.5 117.5 26.5c28 0 52.833 -4.5 74.5 -13.5s38.834 -21 51.501 -36
s19 -32.167 19 -51.5c0 -12 -3.16699 -21.333 -9.5 -28s-15.166 -10 -26.499 -10c-5.33301 0 -10.833 0.833008 -16.5 2.5s-10.5 3.5 -14.5 5.5c-0.666992 26.667 -9 47.5 -25 62.5s-38.667 22.5 -68 22.5c-58.667 0 -103.167 -26 -133.5 -78s-45.5 -127.667 -45.5 -227
c0 -86.667 13.167 -153.167 39.5 -199.5s63.833 -69.5 112.5 -69.5c40 0 71.833 13.833 95.5 41.5s35.5 64.834 35.5 111.501s-11.667 83.667 -35 111s-55 41 -95 41c-19.333 0 -40.333 -4 -63 -12s-43.5 -18.667 -62.5 -32s-33.5 -27.666 -43.5 -42.999l-2 47
c13.333 18 31 34 53 48s46 25 72 33s51.667 12 77 12c37.333 0 69.833 -7.83301 97.5 -23.5s49.334 -37.5 65.001 -65.5s23.5 -60.667 23.5 -98c0 -42 -9.83301 -79.333 -29.5 -112s-46.667 -58.5 -81 -77.5s-73.833 -28.5 -118.5 -28.5z" />
    <glyph glyph-name="seven" unicode="7" horiz-adv-x="464" 
d="M218 -12c-8 0 -16.666 1.99805 -25.999 5.99805s-17.333 12.333 -24 25s-10 32 -10 58c0 32 4.5 67.333 13.5 106s23.833 80.5 44.5 125.5s48.167 93 82.5 144s76.833 105.5 127.5 163.5l6 -30l-349 13l25 27l-6 -121c-0.666992 -8 -4.83398 -13.667 -12.501 -17
s-17.834 -5.33301 -30.501 -6l-20 159h412c6.66699 -4.66699 10 -10.667 10 -18c0 -10.667 -7 -26.5 -21 -47.5l-51.5 -77.5c-20.333 -30.667 -40.833 -65.167 -61.5 -103.5s-38 -80.166 -52 -125.499s-21 -93 -21 -143c0 -22.667 2 -41.667 6 -57
s10.333 -30.666 19 -45.999c-4.66699 -12 -12.167 -20.833 -22.5 -26.5s-23.166 -8.5 -38.499 -8.5z" />
    <glyph glyph-name="eight" unicode="8" horiz-adv-x="568" 
d="M481 501c0 -28 -6.82617 -53.334 -20.4932 -76.001s-30.834 -42.167 -51.501 -58.5s-41.667 -30.166 -63 -41.499l-43 11c14 9.33301 28.333 20.5 43 33.5s27 29.167 37 48.5s15 43.666 15 72.999c0 40.667 -10.833 70.334 -32.5 89.001s-49.5 28 -83.5 28
c-36 0 -63.667 -9.83301 -83 -29.5s-29 -46.5 -29 -80.5c0 -25.333 6.16699 -46.333 18.5 -63s28.666 -30.667 48.999 -42s42.666 -21.666 66.999 -30.999l73 -28.5c24.333 -9.66699 46.666 -21.167 66.999 -34.5s36.666 -30.166 48.999 -50.499s18.5 -45.833 18.5 -76.5
c0 -34.667 -9 -65.834 -27 -93.501s-44.333 -49.667 -79 -66s-77 -24.5 -127 -24.5c-45.333 0 -84.833 7.33301 -118.5 22s-59.5 34.5 -77.5 59.5s-27 52.833 -27 83.5c0 31.333 8.16699 59.5 24.5 84.5s37 46.333 62 64s50.833 30.5 77.5 38.5l45 -9
c-18 -6.66699 -36.167 -17 -54.5 -31s-33.5 -31.833 -45.5 -53.5s-18 -47.5 -18 -77.5c0 -46 13.5 -79.833 40.5 -101.5s60.833 -32.5 101.5 -32.5c42 0 74.5 10.333 97.5 31s34.5 49 34.5 85c0 26.667 -6 48.5 -18 65.5s-27.833 31.167 -47.5 42.5
s-41.334 21.5 -65.001 30.5l-71 27.5c-23.667 9.33301 -45.334 20.666 -65.001 33.999s-35.5 30.333 -47.5 51s-18 46.334 -18 77.001c0 35.333 8.33301 66.166 25 92.499s40 46.833 70 61.5s65 22 105 22c38 0 71.333 -6.5 100 -19.5s51.167 -31 67.5 -54
s24.5 -49.833 24.5 -80.5z" />
    <glyph glyph-name="nine" unicode="9" horiz-adv-x="588" 
d="M290 657c49.333 0 91.167 -12.002 125.5 -36.002s60.666 -59 78.999 -105s27.5 -101.667 27.5 -167c0 -74 -11.333 -137.833 -34 -191.5s-54.667 -95.167 -96 -124.5s-90.333 -44 -147 -44c-33.333 0 -63 4.66699 -89 14s-46.5 22.333 -61.5 39
s-22.5 35.334 -22.5 56.001c0 11.333 3.16699 20.5 9.5 27.5s15.166 10.5 26.499 10.5c5.33301 0 11 -1 17 -3s11.333 -4 16 -6c0 -30 10.5 -53.333 31.5 -70s49.167 -25 84.5 -25c59.333 0 103.5 24.167 132.5 72.5s43.5 123.166 43.5 224.499
c0 187.333 -51.333 281 -154 281c-40.667 0 -72.667 -13.667 -96 -41s-35 -64 -35 -110s11.5 -82.5 34.5 -109.5s53.833 -40.5 92.5 -40.5c20.667 0 42.334 3.83301 65.001 11.5s43.667 17.834 63 30.501s34.666 27 45.999 43v-47
c-13.333 -18 -31.166 -33.833 -53.499 -47.5s-46.5 -24.334 -72.5 -32.001s-52 -11.5 -78 -11.5c-36.667 0 -68.667 7.66699 -96 23s-48.666 36.833 -63.999 64.5s-23 59.834 -23 96.501c0 42 9.83301 79.333 29.5 112s46.667 58.334 81 77.001s73.5 28 117.5 28z" />
    <glyph glyph-name="colon" unicode=":" horiz-adv-x="209" 
d="M104 -12c-15.333 0 -27.333 4.50098 -36 13.501s-13 20.833 -13 35.5c0 14 5 25.5 15 34.5s21.333 13.5 34 13.5c16 0 28.333 -4.33301 37 -13s13 -20.334 13 -35.001c0 -14 -5 -25.667 -15 -35s-21.667 -14 -35 -14zM104 334.001c-15.333 0 -27.333 4.50098 -36 13.501
s-13 20.833 -13 35.5c0 14 5 25.5 15 34.5s21.333 13.5 34 13.5c16 0 28.333 -4.33301 37 -13s13 -20.334 13 -35.001c0 -14 -5 -25.667 -15 -35s-21.667 -14 -35 -14z" />
    <glyph glyph-name="semicolon" unicode=";" horiz-adv-x="208" 
d="M53 -132c-3.33301 1.33301 -6.66406 4.00195 -9.99707 8.00195s-5 9.66699 -5 17c23.333 7.33301 39.666 16.333 48.999 27s14 22 14 34c0 11.333 -2.66699 20 -8 26s-11.5 11.333 -18.5 16s-13.167 10.167 -18.5 16.5s-8 15.166 -8 26.499
c0 13.333 4.66699 24.166 14 32.499s20.333 12.5 33 12.5c20.667 0 36.667 -8 48 -24s17 -35.667 17 -59c0 -27.333 -5.83301 -50.5 -17.5 -69.5s-25.834 -33.667 -42.501 -44s-32.334 -16.833 -47.001 -19.5zM96.5449 332.785
c-16.8877 0 -30.1035 4.95605 -39.6494 14.8691c-9.54492 9.91211 -14.3174 22.9453 -14.3174 39.0986c0 15.4189 5.50684 28.085 16.5205 37.998c11.0137 9.91211 23.4961 14.8682 37.4463 14.8682c17.6221 0 31.2061 -4.77246 40.752 -14.3184
c9.54492 -9.54492 14.3174 -22.3945 14.3174 -38.5479c0 -15.4189 -5.50684 -28.2686 -16.5205 -38.5479c-11.0137 -10.2803 -23.8633 -15.4199 -38.5488 -15.4199z" />
    <glyph glyph-name="less" unicode="&#x3c;" horiz-adv-x="572" 
d="M489 85c2.66699 4.66699 4.00098 12.6709 4.00098 24.0039c0 5.33301 -0.333008 11 -1 17s-2.33398 10.333 -5.00098 13l-395 163v-26l395 163c2 2.66699 3.5 6.83398 4.5 12.501s1.5 11.167 1.5 16.5s-0.333008 10.166 -1 14.499s-1.66699 7.83301 -3 10.5l-424 -179
c-2 -2.66699 -3.5 -6.33398 -4.5 -11.001s-1.5 -9.33398 -1.5 -14.001s0.5 -9.33398 1.5 -14.001s2.5 -8.33398 4.5 -11.001z" />
    <glyph glyph-name="equal" unicode="=" horiz-adv-x="572" 
d="M86 354c-6.66699 8 -10.002 17.9971 -10.002 29.9971c0 2.66699 0.333008 5.83398 1 9.50098s1.33398 6.83398 2.00098 9.50098h402c7.33301 -7.33301 11 -17.333 11 -30c0 -2.66699 -0.166992 -5.66699 -0.5 -9s-1.16602 -6.66602 -2.49902 -9.99902h-403z
M85.998 175.997c-6.66699 8 -10.002 17.9971 -10.002 29.9971c0 2.66699 0.333008 5.83398 1 9.50098s1.33398 6.83398 2.00098 9.50098h402c7.33301 -7.33301 11 -17.333 11 -30c0 -2.66699 -0.166992 -5.66699 -0.5 -9s-1.16602 -6.66602 -2.49902 -9.99902h-403z" />
    <glyph glyph-name="greater" unicode="&#x3e;" horiz-adv-x="572" 
d="M83 85c-2.66699 4.66699 -4.00098 12.6709 -4.00098 24.0039c0 5.33301 0.333008 11 1 17s2.33398 10.333 5.00098 13l395 163v-26l-395 163c-2 2.66699 -3.5 6.83398 -4.5 12.501s-1.5 11.167 -1.5 16.5s0.333008 10.166 1 14.499s1.66699 7.83301 3 10.5l424 -179
c2 -2.66699 3.5 -6.33398 4.5 -11.001s1.5 -9.33398 1.5 -14.001s-0.5 -9.33398 -1.5 -14.001s-2.5 -8.33398 -4.5 -11.001z" />
    <glyph glyph-name="question" unicode="?" horiz-adv-x="435" 
d="M178 178c-8 0 -15.6699 0.998047 -23.0029 2.99805l-8 126c20 6 40.333 13.667 61 23s40 21.333 58 36s32.5 32.5 43.5 53.5s16.5 45.5 16.5 73.5c0 38.667 -9.33301 69.5 -28 92.5s-46 34.5 -82 34.5c-32.667 0 -58.667 -10.5 -78 -31.5s-29 -52.167 -29 -93.5
c-4 -2 -8.33301 -3.83301 -13 -5.5s-11.667 -2.5 -21 -2.5c-13.333 0 -24.166 4.33301 -32.499 13s-12.5 20.667 -12.5 36c0 32 16.333 59.833 49 83.5s78.334 35.5 137.001 35.5s104.834 -14.167 138.501 -42.5s50.5 -66.5 50.5 -114.5c0 -25.333 -5 -48.666 -15 -69.999
s-23.167 -40.333 -39.5 -57s-34 -31.167 -53 -43.5s-37.167 -22.166 -54.5 -29.499s-32.333 -12.333 -45 -15l10 12l-7 -114c-6 -2 -13.667 -3 -23 -3zM177.997 -12.002c-15.333 0 -27.333 4.50098 -36 13.501s-13 20.833 -13 35.5c0 14 5 25.5 15 34.5s21.333 13.5 34 13.5
c16 0 28.333 -4.33301 37 -13s13 -20.334 13 -35.001c0 -14 -5 -25.667 -15 -35s-21.667 -14 -35 -14z" />
    <glyph glyph-name="at" unicode="@" horiz-adv-x="862" 
d="M403 -166c-54.667 0 -104.5 8.33789 -149.5 25.0049s-83.833 40.667 -116.5 72s-57.834 68.833 -75.501 112.5s-26.5 92.5 -26.5 146.5c0 60.667 10.5 116.5 31.5 167.5s50.5 95.167 88.5 132.5s82.667 66.166 134 86.499s107 30.5 167 30.5c54 0 103.5 -8 148.5 -24
s84 -38.667 117 -68s58.667 -64 77 -104s27.5 -84.333 27.5 -133c0 -40.667 -6.16699 -78.334 -18.5 -113.001s-29.5 -65 -51.5 -91s-47.833 -46.333 -77.5 -61s-61.5 -22 -95.5 -22c-22.667 0 -40.334 5.16699 -53.001 15.5s-19 27.833 -19 52.5
c0 11.333 1.33301 24.833 4 40.5s7 33.834 13 54.501l-2 1c-21.333 -49.333 -47.333 -89 -78 -119s-65.667 -45 -105 -45c-38 0 -68 14.333 -90 43s-33 70.667 -33 126c0 56.667 10.167 107.5 30.5 152.5s48.5 80.833 84.5 107.5s76.667 40 122 40
c20.667 0 41.667 -2.5 63 -7.5s41.5 -11.833 60.5 -20.5s35.5 -19 49.5 -31l-47 -286c-1.33301 -8 -2.83301 -16.5 -4.5 -25.5s-2.5 -17.167 -2.5 -24.5c0 -12 3 -21 9 -27s15.667 -9 29 -9c20.667 0 39.834 6.33301 57.501 19s33 30 46 52s23.167 47.667 30.5 77
s11 60.666 11 93.999c0 64 -13.167 118.333 -39.5 163s-63.166 78.667 -110.499 102s-103 35 -167 35c-68.667 0 -128.667 -15 -180 -45s-91.166 -71.833 -119.499 -125.5s-42.5 -115.834 -42.5 -186.501c0 -73.333 13.833 -135.333 41.5 -186
s65.834 -89.167 114.501 -115.5s103.667 -39.5 165 -39.5c31.333 0 61.333 3.5 90 10.5s55 16.333 79 28s44 24.5 60 38.5l10 -21c-14.667 -12.667 -33.334 -26.334 -56.001 -41.001s-50.334 -27.334 -83.001 -38.001s-72 -16 -118 -16zM371 43.0049
c15.333 0 30.668 4.83203 46.001 14.499s30.166 22.834 44.499 39.501s27.833 36.167 40.5 58.5s24 45.833 34 70.5l-16 -64l41 235l10 -28c-14 17.333 -31 30.333 -51 39s-40.667 13 -62 13c-32 0 -60.5 -11 -85.5 -33s-44.667 -52 -59 -90s-21.5 -80.667 -21.5 -128
c0 -42.667 7 -74.5 21 -95.5s33.333 -31.5 58 -31.5z" />
    <glyph glyph-name="A" unicode="A" horiz-adv-x="645" 
d="M3 0c0 10.667 1.49902 18.9971 4.49902 24.9971s6.83301 9.66699 11.5 11l59 18l-25 -26l222 608c2 5.33301 5.5 9.33301 10.5 12s10.333 4.5 16 5.5s10.834 1.5 15.501 1.5c4 0 8.16699 -0.166992 12.5 -0.5s8.83301 -1.16602 13.5 -2.49902l242 -621l-32 25l89 -19
c0 -8.66699 -1.33301 -15.667 -4 -21s-7.66699 -10.666 -15 -15.999h-201c0 10.667 1.5 19 4.5 25s6.83301 9.66699 11.5 11l68 18l-9 -20l-214 547l21 2l-203 -555l-3 28l89 -19c0 -8.66699 -1.16699 -15.667 -3.5 -21s-7.83301 -10.666 -16.5 -15.999h-164z
M154.999 215.997l11 42h263l13 -42h-287z" />
    <glyph glyph-name="B" unicode="B" horiz-adv-x="617" 
d="M67 0c0 10.667 1.3291 18.832 3.99609 24.499s6.66699 9.5 12 11.5l67 18l-15 -16v564l16 -17l-84 19c0 9.33301 1.33301 16.833 4 22.5s7.33398 10.5 14.001 14.5h253c58.667 0 104.667 -12.333 138 -37s50 -58.334 50 -101.001c0 -27.333 -6.66699 -52.333 -20 -75
s-31.666 -41 -54.999 -55s-49.666 -22.333 -78.999 -25l4 7c33.333 -1.33301 63.333 -9.66602 90 -24.999s47.834 -35.333 63.501 -60s23.5 -52 23.5 -82c0 -37.333 -8.83301 -70.166 -26.5 -98.499s-42.5 -50.333 -74.5 -66s-69.667 -23.5 -113 -23.5h-272zM322.996 42.998
c46 0 81.166 11.832 105.499 35.499s36.5 57.834 36.5 102.501c0 48 -12.833 84.167 -38.5 108.5s-63.167 36.5 -112.5 36.5h-107l10 9v-284l-10 12c15.333 -6 33.833 -10.833 55.5 -14.5s41.834 -5.5 60.501 -5.5zM216.995 360.997l-13 15
c2.66699 -1.33301 10 -2.5 22 -3.5s25.833 -1.66699 41.5 -2s30.167 -0.5 43.5 -0.5c41.333 0 73.666 9.66699 96.999 29s35 47.333 35 84c0 37.333 -11.667 65.833 -35 85.5s-56.666 29.5 -99.999 29.5c-16 0 -32.5 -1.33301 -49.5 -4s-34.167 -6.66699 -51.5 -12l10 9
v-230z" />
    <glyph glyph-name="C" unicode="C" horiz-adv-x="650" 
d="M353 -12c-58.667 0 -110.33 13.1689 -154.997 39.502s-79.5 62.666 -104.5 108.999s-37.5 99.833 -37.5 160.5c0 51.333 8.66699 98.666 26 141.999s41.333 81.166 72 113.499s67 57.5 109 75.5s87.333 27 136 27c34 0 66.667 -4.16699 98 -12.5s60 -20.5 86 -36.5
l-19 -140c-10.667 0 -19.334 1.66699 -26.001 5s-10.334 7.33301 -11.001 12l-9 99l16 -25c-16.667 14 -39.334 25.167 -68.001 33.5s-58.667 12.5 -90 12.5c-46.667 0 -87.334 -11.167 -122.001 -33.5s-61.334 -54.166 -80.001 -95.499s-28 -90.333 -28 -147
c0 -58 9.5 -108.667 28.5 -152s45.5 -77 79.5 -101s73.333 -36 118 -36c34.667 0 67.167 7 97.5 21s52.833 32.333 67.5 55l-18 -39l12 137c14.667 0 25.334 -1.33301 32.001 -4s11 -6.66699 13 -12l6 -130c-26.667 -24 -60.667 -43 -102 -57s-83.666 -21 -126.999 -21z" />
    <glyph glyph-name="D" unicode="D" horiz-adv-x="716" 
d="M67 0c0 10.667 1.49902 19 4.49902 25s6.83301 9.66699 11.5 11l67 18l-15 -16v564l14 -17l-82 19c0 9.33301 1.16699 16.666 3.5 21.999s6.83301 10.333 13.5 15h287c48.667 0 91.167 -8.16699 127.5 -24.5s66.5 -38.333 90.5 -66s42 -59.167 54 -94.5
s18 -72.333 18 -111c0 -40.667 -7 -81.5 -21 -122.5s-34.333 -78.167 -61 -111.5s-59.167 -60.166 -97.5 -80.499s-82.166 -30.5 -131.499 -30.5h-283zM344.999 45c37.333 0 69.999 7.49707 97.999 22.4971s51.5 35.333 70.5 61s33.333 54.834 43 87.501
s14.5 66.667 14.5 102c0 50 -8.66699 96.333 -26 139s-43 76.834 -77 102.501s-76 38.5 -126 38.5c-29.333 0 -55.666 -1.66699 -78.999 -5s-43 -7.66602 -59 -12.999l13 15v-547l-10 14c19.333 -6 41 -10.333 65 -13s48.333 -4 73 -4z" />
    <glyph glyph-name="E" unicode="E" horiz-adv-x="600" 
d="M67 0c0 10.667 1.49902 19.001 4.49902 25.001s6.83301 9.66699 11.5 11l67 18l-15 -16v564l14 -17l-82 19c0 9.33301 1.33301 16.666 4 21.999s7.66699 10.333 15 15h421v-126c-10.667 0 -19 1.33301 -25 4s-10 7 -12 13l-25 77l14 -9l-253 -14l11 13v-259l-10 7h209
l-13 -7l15 70c6.66699 0 13.334 -1 20.001 -3s12.334 -6 17.001 -12v-141c-4.66699 -6 -10.334 -9.83301 -17.001 -11.5s-13.334 -2.5 -20.001 -2.5l-16 72l14 -9h-209l10 9v-264l-10 11l279 -18l-13 -13l27 120c9.33301 0 16.833 -1.33301 22.5 -4
s10.834 -6.66699 15.501 -12v-132h-471z" />
    <glyph glyph-name="F" unicode="F" horiz-adv-x="552" 
d="M67 0c0 10.667 1.49902 19 4.49902 25s6.83301 9.66699 11.5 11l67 18l-15 -16v564l14 -17l-82 19c0 9.33301 1.33301 16.666 4 21.999s7.66699 10.333 15 15h421v-126c-10.667 0 -19 1.33301 -25 4s-10 7 -12 13l-25 77l14 -9l-253 -15l11 13v-268l-10 7h208l-11 -7
l13 70c7.33301 0 14.333 -1 21 -3s12.667 -6 18 -12v-141c-5.33301 -6 -11.333 -9.83301 -18 -11.5s-13.667 -2.5 -21 -2.5l-14 72l12 -9h-208l10 9v-263l-16 17l97 -19c0 -8.66699 -1.16699 -15.667 -3.5 -21s-7.16602 -10.666 -14.499 -15.999h-213z" />
    <glyph glyph-name="G" unicode="G" horiz-adv-x="680" 
d="M354 -12c-59.333 0 -111.498 12.668 -156.498 38.001s-79.833 61 -104.5 107s-37 99.667 -37 161c0 52 8.33301 99.833 25 143.5s40 81.834 70 114.501s65.333 58 106 76s85 27 133 27c33.333 0 66.333 -4.16699 99 -12.5s61.667 -20.5 87 -36.5l-18 -140
c-12.667 1.33301 -22 3.5 -28 6.5s-9.33301 7.5 -10 13.5l-7 90l13 -18c-14.667 13.333 -36.5 24.166 -65.5 32.499s-59.167 12.5 -90.5 12.5c-46 0 -85.833 -11.167 -119.5 -33.5s-59.667 -54.333 -78 -96s-27.5 -91.5 -27.5 -149.5
c0 -58.667 9.33301 -109.334 28 -152.001s45.167 -75.667 79.5 -99s74.833 -35 121.5 -35c57.333 0 104.333 18.333 141 55l-14 -32v198l14 -23l-98 20c0 9.33301 1.33301 16.5 4 21.5s7.66699 9.83301 15 14.5h193c0 -10.667 -1.16699 -18.667 -3.5 -24
s-6.5 -9.33301 -12.5 -12l-52 -19l19 23v-202c-32.667 -22.667 -68.334 -40 -107.001 -52s-78.334 -18 -119.001 -18z" />
    <glyph glyph-name="H" unicode="H" horiz-adv-x="761" 
d="M67 0c0 10.667 1.49902 19 4.49902 25s6.83301 9.66699 11.5 11l67 18l-15 -16v564l16 -17l-84 19c0 9.33301 1.33301 16.666 4 21.999s7.66699 10.333 15 15h201c0 -10.667 -1.33301 -19 -4 -25s-6.66699 -9.66699 -12 -11l-71 -18l17 17v-266l-7 9h339l-7 -9v264
l16 -17l-85 19c0 9.33301 1.33301 16.666 4 21.999s7.66699 10.333 15 15h205c0 -10.667 -1.33301 -19 -4 -25s-6.66699 -9.66699 -12 -11l-71 -18l14 17v-565l-15 17l88 -19c0 -8.66699 -1.16699 -15.667 -3.5 -21s-7.5 -10.666 -15.5 -15.999h-205c0 10.667 1.5 19 4.5 25
s6.83301 9.66699 11.5 11l68 18l-15 -16v274l7 -9h-339l7 9v-273l-18 17l88 -19c0 -8.66699 -1.16699 -15.667 -3.5 -21s-7.16602 -10.666 -14.499 -15.999h-202z" />
    <glyph glyph-name="I" unicode="I" horiz-adv-x="351" 
d="M67 0c0 10.667 1.49902 19 4.49902 25s6.83301 9.66699 11.5 11l67 18l-15 -16v564l16 -17l-84 19c0 9.33301 1.33301 16.666 4 21.999s7.66699 10.333 15 15h201c0 -10.667 -1.33301 -19 -4 -25s-6.66699 -9.66699 -12 -11l-71 -18l17 17v-565l-18 17l88 -19
c0 -8.66699 -1.16699 -15.667 -3.5 -21s-7.16602 -10.666 -14.499 -15.999h-202z" />
    <glyph glyph-name="J" unicode="J" horiz-adv-x="300" 
d="M-9 -187c-16.667 0 -30.0029 3.83203 -40.0029 11.499s-15 18.5 -15 32.5c0 4.66699 0.666992 9.66699 2 15s3.33301 10 6 14c40.667 0 72.834 6 96.501 18s40.834 32 51.501 60s16 65.333 16 112v528l17 -19l-85 19c0 9.33301 1.33301 16.833 4 22.5
s7.66699 10.5 15 14.5h202c0 -10 -1.33301 -18.167 -4 -24.5s-6.66699 -10.166 -12 -11.499l-71 -18l17 17v-403c0 -54.667 -4.83301 -105.5 -14.5 -152.5s-23.5 -88.167 -41.5 -123.5s-39.167 -62.833 -63.5 -82.5s-51.166 -29.5 -80.499 -29.5z" />
    <glyph glyph-name="K" unicode="K" horiz-adv-x="618" 
d="M553 -11c-12 0 -26.333 4.66699 -43 14s-35.334 23.166 -56.001 41.499s-43 41 -67 68s-49.333 57.833 -76 92.5s-54.667 73.334 -84 116.001l249 287l14 -23l-100 19c0 10 1.33301 17.667 4 23s7.33398 10 14.001 14h193c0 -22 -7 -34.333 -21 -37l-74 -19l34 28
l-260 -299l11 31l72.5 -89c27 -32 55.167 -63.333 84.5 -94s58 -58.667 86 -84s54 -45.333 78 -60c-6.66699 -8.66699 -15 -15.667 -25 -21s-21.333 -8 -34 -8zM67 0c0 10.667 1.49902 19 4.49902 25s6.83301 9.66699 11.5 11l67 18l-15 -16v564l16 -17l-84 19
c0 9.33301 1.33301 16.666 4 21.999s7.66699 10.333 15 15h201c0 -10.667 -1.33301 -19 -4 -25s-6.66699 -9.66699 -12 -11l-71 -18l17 17v-565l-18 17l88 -19c0 -8.66699 -1.16699 -15.667 -3.5 -21s-7.16602 -10.666 -14.499 -15.999h-202z" />
    <glyph glyph-name="L" unicode="L" horiz-adv-x="566" 
d="M67 0c0 10.667 1.49902 19.001 4.49902 25.001s6.83301 9.66699 11.5 11l67 18l-15 -16v564l16 -17l-84 19c0 9.33301 1.33301 16.666 4 21.999s7.66699 10.333 15 15h205c0 -10.667 -1.33301 -19 -4 -25s-6.66699 -9.66699 -12 -11l-71 -18l13 17v-556l-10 11l272 -18
l-13 -13l21 120c9.33301 0 17.333 -1.33301 24 -4s12.334 -6.66699 17.001 -12v-132h-461z" />
    <glyph glyph-name="M" unicode="M" horiz-adv-x="905" 
d="M441 -3c-2 0 -4.83398 0.334961 -8.50098 1.00195s-6.16699 1.33398 -7.5 2.00098l-226 608h24l-52 -577l-8 23l85 -16c0 -9.33301 -1.16699 -16.833 -3.5 -22.5s-7.16602 -10.834 -14.499 -15.501h-179c0 10.667 1.33301 19.167 4 25.5s6.66699 9.83301 12 10.5l68 16
l-12 -25l55 591l6 -31l-79 17c0 9.33301 1.16699 16.666 3.5 21.999s7.16602 10.333 14.499 15h152l203 -548h-35l200 548h167c0 -10.667 -1.33301 -19 -4 -25s-6.66699 -9.66699 -12 -11l-75 -18l21 33l47 -592l-12 27l83 -17c0 -9.33301 -1.16699 -16.833 -3.5 -22.5
s-7.16602 -10.834 -14.499 -15.501h-210c0 10.667 1.33301 19.167 4 25.5s6.66699 9.83301 12 10.5l73 19l-12 -31l-48 589h23l-216 -596c-2.66699 -7.33301 -6.5 -12.5 -11.5 -15.5s-9.5 -4.5 -13.5 -4.5z" />
    <glyph glyph-name="N" unicode="N" horiz-adv-x="753" 
d="M602 -2c-6.66699 0 -12.6689 0.503906 -18.002 1.50391l-13 2.5l-395 552l11 6v-530l-7 24l87 -17c0 -8.66699 -1.16699 -15.834 -3.5 -21.501s-7.16602 -10.834 -14.499 -15.501h-182c0 10.667 1.5 19 4.5 25s6.83301 9.66699 11.5 11l69 16l-11 -27v581l12 -19l-86 17
c0 9.33301 1.33301 16.666 4 21.999s7.33398 10.333 14.001 15h126l405 -564l-28 -7v540l6 -23l-87 17c0 9.33301 1.33301 16.666 4 21.999s7.66699 10.333 15 15h182c0 -10.667 -1.33301 -19 -4 -25s-6.66699 -9.66699 -12 -11l-69 -16l11 23v-592
c0 -4 -1.83301 -7.66699 -5.5 -11s-8 -6 -13 -8s-9.5 -3 -13.5 -3z" />
    <glyph glyph-name="O" unicode="O" horiz-adv-x="731" 
d="M346 -12c-57.333 0 -107.833 13.5 -151.5 40.5s-77.667 63.833 -102 110.5s-36.5 99.334 -36.5 158.001c0 51.333 8.5 98.666 25.5 141.999s40.667 81.166 71 113.499s65.5 57.5 105.5 75.5s82.667 27 128 27c57.333 0 107.833 -13.5 151.5 -40.5
s77.667 -63.667 102 -110s36.5 -98.833 36.5 -157.5c0 -49.333 -8.16699 -95.666 -24.5 -138.999s-39.5 -81.5 -69.5 -114.5s-65 -58.833 -105 -77.5s-83.667 -28 -131 -28zM375 39c41.333 0 77.666 11.668 108.999 35.001s55.833 55.333 73.5 96s26.5 87 26.5 139
c0 91.333 -20.167 163.166 -60.5 215.499s-96.166 78.5 -167.499 78.5c-38 0 -73 -11 -105 -33s-57.5 -53.167 -76.5 -93.5s-28.5 -87.833 -28.5 -142.5c0 -91.333 20.333 -163.333 61 -216s96.667 -79 168 -79z" />
    <glyph glyph-name="P" unicode="P" horiz-adv-x="584" 
d="M67 0c0 10.667 1.50098 19.001 4.50098 25.001s6.83301 9.66699 11.5 11l69 18l-16 -16v564l14 -17l-81 19c0 9.33301 1.16699 16.833 3.5 22.5s6.83301 10.5 13.5 14.5h256c44.667 0 82.167 -7.83301 112.5 -23.5s53.166 -36.834 68.499 -63.501s23 -56 23 -88
c0 -36 -9.66699 -69.833 -29 -101.5s-46.833 -57.5 -82.5 -77.5s-78.5 -30 -128.5 -30c-16.667 0 -34.334 1.16699 -53.001 3.5s-35.667 5.83301 -51 10.5h17v-238l-19 23l97 -19c0 -10 -1.16699 -17.667 -3.5 -23s-7.16602 -10 -14.499 -14h-212zM219.001 301.001
l-15.001 16.998c9.33301 -4.66699 23.833 -8.16699 43.5 -10.5s38.834 -3.5 57.501 -3.5c34 0 62 6.83301 84 20.5s38.5 31.834 49.5 54.501s16.5 47.334 16.5 74.001c0 46 -12.833 81.5 -38.5 106.5s-61.5 37.5 -107.5 37.5c-20 0 -39 -1.33301 -57 -4
s-33.667 -5.66699 -47 -9l14 14v-297z" />
    <glyph glyph-name="Q" unicode="Q" horiz-adv-x="731" 
d="M588 -179c-20 0 -44.001 6.66699 -72.001 20s-58 33.333 -90 60s-64.667 59.667 -98 99l20 27c31.333 -24 66.5 -46 105.5 -66s78 -36.167 117 -48.5s74.167 -18.5 105.5 -18.5c-8.66699 -23.333 -20.667 -41.333 -36 -54s-32.666 -19 -51.999 -19zM345.999 -12
c-57.333 0 -107.833 13.5 -151.5 40.5s-77.667 63.833 -102 110.5s-36.5 99.334 -36.5 158.001c0 51.333 8.5 98.666 25.5 141.999s40.667 81.166 71 113.499s65.5 57.5 105.5 75.5s82.667 27 128 27c57.333 0 107.833 -13.5 151.5 -40.5s77.667 -63.667 102 -110
s36.5 -98.833 36.5 -157.5c0 -49.333 -8.16699 -95.666 -24.5 -138.999s-39.5 -81.5 -69.5 -114.5s-65 -58.833 -105 -77.5s-83.667 -28 -131 -28zM374.999 39c41.333 0 77.666 11.668 108.999 35.001s55.833 55.333 73.5 96s26.5 87 26.5 139
c0 91.333 -20.167 163.166 -60.5 215.499s-96.166 78.5 -167.499 78.5c-38 0 -73 -11 -105 -33s-57.5 -53.167 -76.5 -93.5s-28.5 -87.833 -28.5 -142.5c0 -91.333 20.333 -163.333 61 -216s96.667 -79 168 -79z" />
    <glyph glyph-name="R" unicode="R" horiz-adv-x="652" 
d="M67 0c0 10.667 1.50195 19 4.50195 25s6.83301 9.66699 11.5 11l69 18l-16 -16v564l14 -17l-81 19c0 9.33301 1.16699 16.833 3.5 22.5s6.83301 10.5 13.5 14.5h256c43.333 0 79.5 -7.5 108.5 -22.5s51 -35 66 -60s22.5 -52.5 22.5 -82.5c0 -34 -9.33301 -66 -28 -96
s-45.334 -54.333 -80.001 -73s-76.334 -28 -125.001 -28c-16.667 0 -34.334 1.16699 -53.001 3.5s-35.667 5.83301 -51 10.5h17v-260l-22 23l97 -19c0 -10 -1.16699 -17.667 -3.5 -23s-7.16602 -10 -14.499 -14h-209zM219.002 322l-15.001 16.998
c9.33301 -4 23.833 -7.16699 43.5 -9.5s38.834 -3.5 57.501 -3.5c32.667 0 59.5 6.33301 80.5 19s36.833 29.334 47.5 50.001s16 43.334 16 68.001c0 43.333 -12.5 76.5 -37.5 99.5s-59.167 34.5 -102.5 34.5c-20 0 -39 -1.33301 -57 -4s-33.667 -5.66699 -47 -9l14 14v-276
zM574.001 -11.002c-14.667 0 -32.002 6.99902 -52.002 20.999s-41.167 34.333 -63.5 61s-45 59.334 -68 98.001s-45.167 82.334 -66.5 131.001l61 21c28.667 -49.333 58 -94.833 88 -136.5s59 -76.834 87 -105.501s52.333 -48.667 73 -60
c-7.33301 -8 -16.166 -15 -26.499 -21s-21.166 -9 -32.499 -9z" />
    <glyph glyph-name="S" unicode="S" horiz-adv-x="543" 
d="M272 -12c-20 0 -42.667 2.00293 -68 6.00293s-50.5 9.83301 -75.5 17.5s-47.833 16.5 -68.5 26.5l18 135c5.33301 9.33301 14 14 26 14c3.33301 0 6.83301 -0.166992 10.5 -0.5s6.5 -1.16602 8.5 -2.49902l7 -139l-18 39c13.333 -10 29.333 -18.833 48 -26.5
s37.834 -13.834 57.501 -18.501s38.5 -7 56.5 -7c38.667 0 70.167 11.333 94.5 34s36.5 51.667 36.5 87c0 20 -4.16699 37.333 -12.5 52s-23.333 29 -45 43s-52.5 29.667 -92.5 47c-42 19.333 -75.333 38.166 -100 56.499s-42.334 38.5 -53.001 60.5s-16 47.333 -16 76
c0 50.667 17.167 91.167 51.5 121.5s79.833 45.5 136.5 45.5c27.333 0 56.666 -3.66699 87.999 -11s62 -18.333 92 -33l-15 -130c-10.667 0 -19.167 1.66699 -25.5 5s-9.83301 7.33301 -10.5 12l-13 100l21 -37c-14.667 15.333 -34.5 27.666 -59.5 36.999
s-51.167 14 -78.5 14c-36.667 0 -65.667 -9.33301 -87 -28s-32 -43.667 -32 -75c0 -19.333 4.33301 -36.5 13 -51.5s24 -29.5 46 -43.5s53 -29.667 93 -47c44 -19.333 78.833 -38.333 104.5 -57s44 -38.834 55 -60.501s16.5 -47.167 16.5 -76.5
c0 -36.667 -8.66699 -69 -26 -97s-41.666 -49.667 -72.999 -65s-68.333 -23 -111 -23z" />
    <glyph glyph-name="T" unicode="T" horiz-adv-x="623" 
d="M186 0c0 10.667 1.33008 18.999 3.99707 24.999s6.66699 9.66699 12 11l84 22l-15 -20v561l11 -13l-195 14l14 9l-26 -87c-1.33301 -6 -4.66602 -10.5 -9.99902 -13.5s-13.666 -4.5 -24.999 -4.5v137h544v-137c-10.667 0 -19 1.5 -25 4.5s-10 7.5 -12 13.5l-24 87l14 -9
l-195 -14l11 13v-560l-16 18l114 -20c0 -8.66699 -1.16699 -15.667 -3.5 -21s-7.16602 -10.666 -14.499 -15.999h-247z" />
    <glyph glyph-name="U" unicode="U" horiz-adv-x="705" 
d="M368 -12c-62 0 -112.001 9.33496 -150.001 28.002s-65.833 44.667 -83.5 78s-26.5 72.333 -26.5 117v391l17 -17l-85 19c0 9.33301 1.33301 16.666 4 21.999s7.66699 10.333 15 15h202c0 -10.667 -1.33301 -19 -4 -25s-6.66699 -9.66699 -12 -11l-71 -18l16 17v-384
c0 -43.333 8 -78.833 24 -106.5s37.5 -48 64.5 -61s56.833 -19.5 89.5 -19.5c38.667 0 72 6.16699 100 18.5s49.667 32.5 65 60.5s23 64.667 23 110v386l7 -21l-80 17c0 9.33301 1.33301 16.666 4 21.999s7.33398 10.333 14.001 15h166c0 -10.667 -1.33301 -19 -4 -25
s-6.66699 -9.66699 -12 -11l-59 -16l10 24v-399c0 -42.667 -8.33301 -81.167 -25 -115.5s-42.167 -61.333 -76.5 -81s-78.5 -29.5 -132.5 -29.5z" />
    <glyph glyph-name="V" unicode="V" horiz-adv-x="635" 
d="M320 -12c-4.66699 0 -11.167 0.669922 -19.5 2.00293s-14.833 2.66602 -19.5 3.99902l-220 613l26 -22l-84 19c0 9.33301 1.33301 16.666 4 21.999s7.66699 10.333 15 15h200c0 -10.667 -1.33301 -19 -4 -25s-6.66699 -9.66699 -12 -11l-72 -18l13 21l202 -566h-19
l193 567l3 -22l-81 17c0 9.33301 1.33301 16.666 4 21.999s7.33398 10.333 14.001 15h169c0 -10.667 -1.33301 -19 -4 -25s-6.66699 -9.66699 -12 -11l-61 -16l18 24l-204 -598c-2.66699 -6.66699 -6.83398 -12 -12.501 -16s-11.667 -6.83301 -18 -8.5
s-12.5 -2.5 -18.5 -2.5z" />
    <glyph glyph-name="W" unicode="W" horiz-adv-x="941" 
d="M305 -12c-4.66699 0 -11.166 0.668945 -19.499 2.00195s-14.833 2.66602 -19.5 3.99902l-205 615l26 -23l-84 18c0 9.33301 1.33301 16.833 4 22.5s7.66699 10.834 15 15.501h200c0 -10.667 -1.33301 -19 -4 -25s-6.66699 -9.66699 -12 -11l-71 -19l10 27l186 -558h-13
l152 505h39l165 -505h-12l169 553l1 -22l-81 17c0 9.33301 1.16699 16.666 3.5 21.999s7.16602 10.333 14.499 15h169c0 -10.667 -1.33301 -19 -4 -25s-6.66699 -9.66699 -12 -11l-60 -16l18 24l-182 -598c-2 -6.66699 -5.66699 -12 -11 -16s-11.333 -6.83301 -18 -8.5
s-13 -2.5 -19 -2.5c-4.66699 0 -11.167 0.666992 -19.5 2s-14.833 2.66602 -19.5 3.99902l-151 462h25l-132 -441c-2 -6.66699 -5.83301 -12 -11.5 -16s-11.667 -6.83301 -18 -8.5s-12.5 -2.5 -18.5 -2.5z" />
    <glyph glyph-name="X" unicode="X" horiz-adv-x="651" 
d="M396 0c0 10.667 1.33203 19.1689 3.99902 25.502s6.66699 9.83301 12 10.5l74 19l-17 -27l-372 577l30 -20l-88 19c0 9.33301 1.33301 16.666 4 21.999s7.66699 10.333 15 15h209c0 -10.667 -1.33301 -19 -4 -25s-6.66699 -9.66699 -12 -11l-75 -18l16 23l371 -577
l-28 23l87 -18c0 -9.33301 -1.16699 -16.833 -3.5 -22.5s-7.16602 -10.834 -14.499 -15.501h-208zM28.999 0.00195312c0 10.667 1.49902 19.168 4.49902 25.501s6.83301 9.83301 11.5 10.5l69 17l-30 -24l211 309l40 -24l-191 -280l-5 20l85 -16
c0 -9.33301 -1.16699 -16.833 -3.5 -22.5s-7.16602 -10.834 -14.499 -15.501h-177zM356.998 320.003l-40 23.001l181 267l3 -23l-83 17c0 9.33301 1.16699 16.666 3.5 21.999s6.83301 10.333 13.5 15h177c0 -10.667 -1.33301 -19 -4 -25s-6.66699 -9.66699 -12 -11l-68 -16
l30 26z" />
    <glyph glyph-name="Y" unicode="Y" horiz-adv-x="605" 
d="M317 176l-259.999 429.002l29 -20l-83 19c0 9.33301 1.33301 16.666 4 21.999s7.66699 10.333 15 15h206c0 -10.667 -1.33301 -19 -4 -25s-6.66699 -9.66699 -12 -11l-76 -18l13 23l198 -327l-30 -3l168 326l8 -19l-82 17c0 9.33301 1.16699 16.666 3.5 21.999
s7.16602 10.333 14.499 15h173c0 -10.667 -1.33301 -19 -4 -25s-6.66699 -9.66699 -12 -11l-65 -16l18 22zM197.001 0.00195312c0 10.667 1.5 18.999 4.5 24.999s6.83301 9.66699 11.5 11l74 18l-16 -23v244h82v-239l-17 20l94 -19c0 -8.66699 -1 -15.667 -3 -21
s-6.66699 -10.666 -14 -15.999h-216z" />
    <glyph glyph-name="Z" unicode="Z" horiz-adv-x="616" 
d="M81 0c-17.333 0 -26 8.33203 -26 24.999c0 7.33301 2.33301 14.333 7 21l372 567l6 -27l-327 14l21 9l-25 -96c-2 -6 -5.66699 -10.333 -11 -13s-13.666 -4 -24.999 -4v145h424c8 0 14.167 -2.33301 18.5 -7s6.5 -10.667 6.5 -18c0 -6 -2.33301 -13 -7 -21l-368 -561
l-6 25l356 -18l-22 -13l28 128c9.33301 0 16.666 -1.16699 21.999 -3.5s10 -6.16602 14 -11.499v-141h-458z" />
    <glyph glyph-name="bracketleft" unicode="[" horiz-adv-x="287" 
d="M67 -258v1036h206c2 -4 3 -9.66699 3 -17c0 -5.33301 -0.5 -10.166 -1.5 -14.499s-2.16699 -7.83301 -3.5 -10.5h-156l35 28v-1008l-35 28h154c2.66699 -3.33301 4.5 -7.33301 5.5 -12s1.5 -9 1.5 -13c0 -7.33301 -0.333008 -13 -1 -17h-208z" />
    <glyph glyph-name="backslash" unicode="\" horiz-adv-x="420" 
d="M331 -200c12 0 22 1.5 30 4.5s14.667 7.83301 20 14.5l-294 915c-10 0 -19 -1.33301 -27 -4s-16 -7.66699 -24 -15z" />
    <glyph glyph-name="bracketright" unicode="]" horiz-adv-x="287" 
d="M220 -258v1036h-206c-2 -4 -3 -9.66699 -3 -17c0 -5.33301 0.5 -10.166 1.5 -14.499s2.16699 -7.83301 3.5 -10.5h156l-35 28v-1008l35 28h-154c-2.66699 -3.33301 -4.5 -7.33301 -5.5 -12s-1.5 -9 -1.5 -13c0 -7.33301 0.333008 -13 1 -17h208z" />
    <glyph glyph-name="asciicircum" unicode="^" horiz-adv-x="591" 
d="M122 303c-8.66699 0 -15.834 1.16699 -21.501 3.5s-11.5 6.5 -17.5 12.5l170 378c4 3.33301 9 5.83301 15 7.5s12 2.5 18 2.5s12 -0.833008 18 -2.5s11 -4.16699 15 -7.5l170 -378c-5.33301 -6 -10.666 -10.167 -15.999 -12.5s-13 -3.5 -23 -3.5l-178 372h28z" />
    <glyph glyph-name="underscore" unicode="_" horiz-adv-x="691" 
d="M107.701 -171c-1.86621 3.33301 -3.26562 7.66699 -4.19922 13s-1.40039 10.333 -1.40039 15c0 8 0.700195 14 2.10059 18h479.508c2.33301 -2.66699 3.84961 -6.5 4.5498 -11.5s1.0498 -9.83301 1.0498 -14.5c0 -10 -0.466797 -16.667 -1.40039 -20h-480.208z" />
    <glyph glyph-name="grave" unicode="`" horiz-adv-x="206" 
d="M184 515l-104.5 65.5c-25 15.667 -43.167 27.5 -54.5 35.5s-18.333 13.667 -21 17s-4 6.66602 -4 9.99902c0 7.33301 2 14.5 6 21.5s9 12.833 15 17.5s12.333 7 19 7c4 0 8.16699 -1.16699 12.5 -3.5s11.5 -8 21.5 -17s25.333 -23.833 46 -44.5l86 -85
c0 -7.33301 -2.33301 -13.166 -7 -17.499s-9.66699 -6.5 -15 -6.5z" />
    <glyph glyph-name="a" unicode="a" horiz-adv-x="486" 
d="M151 -12c-31.333 0 -57.332 9.16699 -77.999 27.5s-31 42.833 -31 73.5c0 38 12.167 69 36.5 93s60.833 41.667 109.5 53l131 30l-13 -11v75c0 35.333 -6 61.166 -18 77.499s-30.667 24.5 -56 24.5c-30.667 0 -54.334 -9.16699 -71.001 -27.5s-25 -44.833 -25 -79.5
c-3.33301 -3.33301 -8 -6 -14 -8s-12 -3 -18 -3c-11.333 0 -20.333 3.33301 -27 10s-10 15.667 -10 27c0 22 7.66699 41.333 23 58s36.5 29.834 63.5 39.501s57.167 14.5 90.5 14.5c49.333 0 85.5 -12.333 108.5 -37s34.5 -64 34.5 -118v-235c0 -11.333 2.33301 -20 7 -26
s11.334 -9 20.001 -9c7.33301 0 15.5 2 24.5 6s16.5 8.33301 22.5 13l7 -27c-10.667 -12.667 -24.334 -22.667 -41.001 -30s-32.667 -11 -48 -11c-21.333 0 -38 6.83301 -50 20.5s-18 33.167 -18 58.5h-4c-18.667 -25.333 -41.667 -44.833 -69 -58.5
s-56.333 -20.5 -87 -20.5zM189.001 35c24 0 47 6 69 18s40.333 28.667 55 50l-6 -17v150l13 -2l-114 -27c-28.667 -6.66699 -50.5 -18.167 -65.5 -34.5s-22.5 -36.833 -22.5 -61.5c0 -23.333 6.33301 -41.833 19 -55.5s30 -20.5 52 -20.5z" />
    <glyph glyph-name="b" unicode="b" horiz-adv-x="536" 
d="M240 -12c-25.333 0 -51.834 3.16797 -79.501 9.50098s-53.167 15.833 -76.5 28.5v666l11 -15l-58 11c-10.667 2 -16 13.667 -16 35c26.667 4 46.334 6.83301 59.001 8.5s23.334 2.5 32.001 2.5c16.667 0 28.834 -3.66699 36.501 -11s11.5 -19 11.5 -35v-331l-4 6h9
c21.333 31.333 47.166 55.666 77.499 72.999s61.5 26 93.5 26c33.333 0 62.166 -8.66699 86.499 -26s43.333 -41.833 57 -73.5s20.5 -69.167 20.5 -112.5c0 -52.667 -10.167 -98.667 -30.5 -138s-49.833 -69.833 -88.5 -91.5s-85.667 -32.5 -141 -32.5zM260.999 27.001
c52.667 0 91 16.332 115 48.999s36 84.334 36 155.001c0 61.333 -9 106.333 -27 135s-46.333 43 -85 43c-20.667 0 -39.5 -3.83301 -56.5 -11.5s-32.833 -18.667 -47.5 -33s-29 -31.5 -43 -51.5l10 23v-292l-10 18c19.333 -12.667 37.5 -21.667 54.5 -27s34.833 -8 53.5 -8z
" />
    <glyph glyph-name="c" unicode="c" horiz-adv-x="464" 
d="M240 -12c-41.333 0 -77.501 9 -108.501 27s-54.833 43.333 -71.5 76s-25 71.334 -25 116.001c0 50 9.83301 94.167 29.5 132.5s46.834 68.333 81.501 90s74 32.5 118 32.5c30 0 57.333 -4.83301 82 -14.5s44.167 -22.834 58.5 -39.501s21.5 -35 21.5 -55
c0 -13.333 -3.83301 -23.833 -11.5 -31.5s-18.167 -11.5 -31.5 -11.5c-6 0 -11.667 0.833008 -17 2.5s-10.666 3.83398 -15.999 6.50098c0 35.333 -8.16699 62.333 -24.5 81s-40.166 28 -71.499 28c-42.667 0 -75.334 -16.833 -98.001 -50.5s-34 -81.834 -34 -144.501
c0 -65.333 12.5 -114.833 37.5 -148.5s62.167 -50.5 111.5 -50.5c26.667 0 52.5 5.5 77.5 16.5s47.833 26.833 68.5 47.5l13 -24c-14 -17.333 -31.167 -32.5 -51.5 -45.5s-42.333 -23 -66 -30s-47.834 -10.5 -72.501 -10.5z" />
    <glyph glyph-name="d" unicode="d" horiz-adv-x="562" 
d="M212 -12c-35.333 0 -66.333 8.83008 -93 26.4971s-47.334 42.5 -62.001 74.5s-22 69.333 -22 112c0 50.667 9.83301 95.5 29.5 134.5s46.667 69.833 81 92.5s73.5 34 117.5 34c20.667 0 41.167 -2.16699 61.5 -6.5s40.5 -11.166 60.5 -20.499l-7 -15v273l12 -15l-63 10
c-9.33301 0.666992 -14 12.334 -14 35.001c25.333 4 44.666 6.83301 57.999 8.5s24 2.5 32 2.5c19.333 0 33.333 -4.5 42 -13.5s13 -23.833 13 -44.5v-604c0 -11.333 2.5 -20 7.5 -26s11.833 -9 20.5 -9c7.33301 0 15.5 1.83301 24.5 5.5s16.5 7.83398 22.5 12.501l7 -27
c-11.333 -12 -25.333 -21.667 -42 -29s-32.667 -11 -48 -11c-21.333 0 -37.833 7.16699 -49.5 21.5s-17.5 34.5 -17.5 60.5h-4c-17.333 -23.333 -40.166 -42.833 -68.499 -58.5s-61.166 -23.5 -98.499 -23.5zM253 38.9971c19.333 0 37 3.00098 53 9.00098
s30.833 14.667 44.5 26s26.5 24.666 38.5 39.999l-10 -20v310l10 -24c-16.667 14 -34 24.833 -52 32.5s-40.333 11.5 -67 11.5c-46.667 0 -83 -17.5 -109 -52.5s-39 -85.167 -39 -150.5c0 -59.333 11.167 -104.5 33.5 -135.5s54.833 -46.5 97.5 -46.5z" />
    <glyph glyph-name="e" unicode="e" horiz-adv-x="468" 
d="M237 -12c-40.667 0 -76.1699 9.16406 -106.503 27.4971s-53.833 43.833 -70.5 76.5s-25 70.334 -25 113.001c0 48.667 10.167 92.334 30.5 131.001s47.5 69.334 81.5 92.001s71 34 111 34c34.667 0 64.834 -7.83301 90.501 -23.5s45.834 -37.5 60.501 -65.5
s22 -60.333 22 -97c0 -12.667 -2.33301 -21.167 -7 -25.5s-10 -6.5 -16 -6.5h-315v31l272 7l-11 -11c1.33301 32 -2.5 59.667 -11.5 83s-21.667 41.5 -38 54.5s-35.5 19.5 -57.5 19.5c-36.667 0 -66.667 -17 -90 -51s-35 -82 -35 -144c0 -40 5.83301 -74.833 17.5 -104.5
s28.834 -52.834 51.501 -69.501s50 -25 82 -25c26.667 0 52.334 6.83301 77.001 20.5s46.667 32.834 66 57.501l13 -25c-14 -20 -31.333 -37.5 -52 -52.5s-42.834 -26.5 -66.501 -34.5s-48.167 -12 -73.5 -12z" />
    <glyph glyph-name="f" unicode="f" horiz-adv-x="339" 
d="M64 0c0 20 5.33301 32.002 16 36.002l57 19l-11 -14v383c0 47.333 6.16699 90 18.5 128s29.166 70.667 50.499 98s45.5 48.166 72.5 62.499s55.5 21.5 85.5 21.5c19.333 0 33.833 -3.83301 43.5 -11.5s14.5 -17.167 14.5 -28.5c0 -4 -0.666992 -8.33301 -2 -13
s-3 -9.33398 -5 -14.001h-61c-30 0 -55.167 -6.33301 -75.5 -19s-35.5 -33.667 -45.5 -63s-15 -69.333 -15 -120v-426l-13 18l81 -20c0 -10 -1.16699 -17.5 -3.5 -22.5s-7.16602 -9.83301 -14.499 -14.5h-193zM331 396.002l-281.001 5c0 9.33301 1.16699 17.833 3.5 25.5
s5.83301 13.167 10.5 16.5l286 11c2 -3.33301 3.33301 -6.5 4 -9.5s1 -6.16699 1 -9.5c0 -10.667 -2.16699 -19.5 -6.5 -26.5s-10.166 -11.167 -17.499 -12.5z" />
    <glyph glyph-name="g" unicode="g" horiz-adv-x="484" 
d="M232 -270c-59.333 0 -106.998 12.832 -142.998 38.499s-54 59.5 -54 101.5c0 28.667 13.667 43 41 43c7.33301 0 14.333 -0.833008 21 -2.5s13 -4.5 19 -8.5c0 -45.333 11.167 -79.833 33.5 -103.5s54.833 -35.5 97.5 -35.5c43.333 0 78.166 10.333 104.499 31
s39.5 47.667 39.5 81c0 21.333 -4.33301 38.333 -13 51s-24 22.167 -46 28.5s-53 11.166 -93 14.499c-52.667 4.66699 -88.667 12 -108 22s-29 26.333 -29 49c0 19.333 6.5 38.333 19.5 57s30.167 33.334 51.5 44.001l15 -7c-8.66699 -7.33301 -15.334 -16 -20.001 -26
s-7 -20.333 -7 -31s2.5 -19 7.5 -25s15.333 -10.5 31 -13.5s39.167 -5.83301 70.5 -8.5c66.667 -5.33301 115.167 -18.333 145.5 -39s45.5 -51.667 45.5 -93c0 -33.333 -9.5 -62.666 -28.5 -87.999s-45.667 -45 -80 -59s-74.5 -21 -120.5 -21zM218.002 121.999
c-50.667 0 -91.499 14.668 -122.499 44.001s-46.5 68.666 -46.5 117.999c0 35.333 8.16699 66.333 24.5 93s39 47.5 68 62.5s62.5 22.5 100.5 22.5c35.333 0 66.166 -7 92.499 -21s47 -33.5 62 -58.5s22.5 -53.833 22.5 -86.5c0 -34 -8.5 -64 -25.5 -90
s-40.5 -46.5 -70.5 -61.5s-65 -22.5 -105 -22.5zM236.003 156c31.333 0 56.666 11.668 75.999 35.001s29 54 29 92c0 46.667 -9.5 82.5 -28.5 107.5s-47.167 37.5 -84.5 37.5c-30 0 -54.167 -11.667 -72.5 -35s-27.5 -54.333 -27.5 -93
c0 -48.667 8.83301 -84.834 26.5 -108.501s44.834 -35.5 81.501 -35.5zM429.003 405.001c-9.33301 0 -20.333 0.331055 -33 0.998047s-24.667 1.83398 -36 3.50098s-20.333 3.83398 -27 6.50098l-7 13l145 37c3.33301 -4 5.83301 -8.66699 7.5 -14s2.5 -10 2.5 -14
c0 -22 -17.333 -33 -52 -33z" />
    <glyph glyph-name="h" unicode="h" horiz-adv-x="589" 
d="M42 0c0 21.333 5.33105 33.333 15.998 36l57 19l-11 -17v654l12 -15l-59 11c-10 2 -15 13.667 -15 35c25.333 4 44.5 6.83301 57.5 8.5s23.5 2.5 31.5 2.5c17.333 0 29.833 -4.33301 37.5 -13s11.5 -22.667 11.5 -42v-323l-5 6h10c26 30.667 56.333 55 91 73
s68.334 27 101.001 27c77.333 0 116 -53.667 116 -161v-258l-11 13l73 -19c0 -10 -1 -17.5 -3 -22.5s-6.33301 -9.83301 -13 -14.5h-182c0 21.333 5.33301 33.333 16 36l50 15l-10 -17v265c0 70.667 -27 106 -81 106c-18.667 0 -37.5 -3.66699 -56.5 -11
s-36.5 -17 -52.5 -29s-29.667 -25 -41 -39l3 10v-297l-12 14l67 -16c0 -10 -1.16699 -17.5 -3.5 -22.5s-7.16602 -9.83301 -14.499 -14.5h-180z" />
    <glyph glyph-name="i" unicode="i" horiz-adv-x="305" 
d="M50 0c0 21.333 5.33203 33.333 15.999 36l60 19l-11 -14v372l12 -15l-62 11c-10 1.33301 -15 13 -15 35c22.667 3.33301 41.5 5.83301 56.5 7.5s29.833 2.5 44.5 2.5c30.667 0 46 -19 46 -57v-354l-12 13l80 -19c0 -10 -1.16699 -17.5 -3.5 -22.5
s-7.16602 -9.83301 -14.499 -14.5h-197zM151.999 553c-16 0 -28.334 4.5 -37.001 13.5s-13 20.833 -13 35.5s5.16699 26.667 15.5 36s21.833 14 34.5 14c16 0 28.5 -4.5 37.5 -13.5s13.5 -21.167 13.5 -36.5c0 -14 -5.16699 -25.667 -15.5 -35s-22.166 -14 -35.499 -14z" />
    <glyph glyph-name="j" unicode="j" horiz-adv-x="282" 
d="M7 -270c-16 0 -28.1699 3.66602 -36.5029 10.999s-12.5 17 -12.5 29c0 4 0.666992 8.66699 2 14s3.33301 10 6 14c38.667 0 68.834 5.66699 90.501 17s36.834 30.666 45.501 57.999s13 65.333 13 114v426l12 -15l-62 11c-10 1.33301 -15 13 -15 35
c25.333 3.33301 45.333 5.83301 60 7.5s28.334 2.5 41.001 2.5c30.667 0 46 -19 46 -57v-301c0 -51.333 -4.83301 -99.166 -14.5 -143.499s-23 -83.166 -40 -116.499s-37 -59.333 -60 -78s-48.167 -28 -75.5 -28zM140.997 552.999c-16 0 -28.334 4.5 -37.001 13.5
s-13 20.833 -13 35.5s5.16699 26.667 15.5 36s21.833 14 34.5 14c16 0 28.5 -4.5 37.5 -13.5s13.5 -21.167 13.5 -36.5c0 -14 -5.16699 -25.667 -15.5 -35s-22.166 -14 -35.499 -14z" />
    <glyph glyph-name="k" unicode="k" horiz-adv-x="527" 
d="M42 0c0 11.333 1.33203 19.667 3.99902 25s6.66699 9 12 11l60 19l-11 -14v651l12 -15l-62 11c-10 2 -15 13.667 -15 35c22 3.33301 40.667 6 56 8s30 3 44 3c30.667 0 46 -19.333 46 -58v-637l-13 14l69 -16c0 -10 -1.16699 -17.5 -3.5 -22.5
s-7.16602 -9.83301 -14.499 -14.5h-184zM457.999 -11.999c-18 0 -39.499 7.83008 -64.499 23.4971s-53.833 42.5 -86.5 80.5s-70.334 90.333 -113.001 157l170 150l-5 -11l-57 17c0 14.667 4.33301 27.334 13 38.001h174c0 -13.333 -1 -22.5 -3 -27.5
s-6.33301 -8.5 -13 -10.5l-80 -27l54 32l-189 -168l9 26c23.333 -34.667 49 -67.5 77 -98.5s56.667 -58.167 86 -81.5s57.333 -41.666 84 -54.999c0 -13.333 -5.33301 -24.166 -16 -32.499s-24 -12.5 -40 -12.5z" />
    <glyph glyph-name="l" unicode="l" horiz-adv-x="295" 
d="M42 0c0 11.333 1.33203 19.667 3.99902 25s6.66699 9 12 11l60 19l-11 -14v651l12 -15l-62 11c-10 2 -15 13.667 -15 35c22 3.33301 40.667 6 56 8s30 3 44 3c30.667 0 46 -19.333 46 -58v-633l-12 13l81 -19c0 -10 -1.16699 -17.5 -3.5 -22.5
s-7.16602 -9.83301 -14.499 -14.5h-197z" />
    <glyph glyph-name="m" unicode="m" horiz-adv-x="879" 
d="M50 0c0 21.333 5.33496 33.333 16.002 36l57 19l-11 -14v368l12 -15l-59 11c-10 2 -15 13.667 -15 35c25.333 4 44.5 6.83301 57.5 8.5s23.833 2.5 32.5 2.5c17.333 0 29.666 -4.33301 36.999 -13s11 -22.667 11 -42v-37l-4 3h9c25.333 30.667 54.833 55 88.5 73
s65.834 27 96.501 27c37.333 0 65 -13.333 83 -40s27 -67 27 -121v-262l-12 14l68 -16c0 -10 -1.16699 -17.5 -3.5 -22.5s-6.83301 -9.83301 -13.5 -14.5h-175c0 21.333 5.33301 33.333 16 36l50 15l-11 -14v262c0 70.667 -25 106 -75 106
c-18.667 0 -37.334 -3.83301 -56.001 -11.5s-35.834 -18 -51.501 -31s-28.834 -27.167 -39.501 -42.5l8 19v-300l-12 14l68 -16c0 -10 -1.16699 -17.5 -3.5 -22.5s-7.16602 -9.83301 -14.499 -14.5h-181zM647.002 0c0 21.333 5.33105 33.332 15.998 35.999l50 15l-11 -14
v262c0 70.667 -25 106 -75 106c-27.333 0 -54.166 -8.16699 -80.499 -24.5s-47.833 -36.166 -64.5 -59.499l-11 41h15c26 30.667 55.833 55 89.5 73s65.834 27 96.501 27c38 0 66 -13.333 84 -40s27 -67 27 -121v-258l-12 13l74 -19c0 -10 -1.16699 -17.5 -3.5 -22.5
s-6.83301 -9.83301 -13.5 -14.5h-181z" />
    <glyph glyph-name="n" unicode="n" horiz-adv-x="597" 
d="M50 0c0 21.333 5.33398 33.333 16.001 36l57 19l-11 -17v371l12 -15l-59 11c-10 2 -15 13.667 -15 35c25.333 4 44.5 6.83301 57.5 8.5s23.833 2.5 32.5 2.5c17.333 0 29.666 -4.33301 36.999 -13s11 -22.667 11 -42v-37l-6 3h11c26.667 30.667 57.167 55 91.5 73
s67.833 27 100.5 27c77.333 0 116 -53.667 116 -161v-258l-12 13l74 -19c0 -10 -1 -17.5 -3 -22.5s-6.33301 -9.83301 -13 -14.5h-181c0 21.333 5.33301 33.333 16 36l49 15l-10 -17v265c0 70.667 -26.667 106 -80 106c-20 0 -39.833 -3.83301 -59.5 -11.5
s-37.834 -18 -54.501 -31s-30.667 -27.167 -42 -42.5l8 19v-300l-12 14l68 -16c0 -10 -1.16699 -17.5 -3.5 -22.5s-7.16602 -9.83301 -14.499 -14.5h-181z" />
    <glyph glyph-name="o" unicode="o" horiz-adv-x="517" 
d="M236 -12c-62 0 -111 19.332 -147 57.999s-54 90.334 -54 155.001c0 50 10.5 94.667 31.5 134s49.833 70.333 86.5 93s78.667 34 126 34c41.333 0 77 -8.83301 107 -26.5s53.333 -42.5 70 -74.5s25 -69.667 25 -113c0 -50.667 -10.333 -95.5 -31 -134.5
s-49.5 -69.667 -86.5 -92s-79.5 -33.5 -127.5 -33.5zM255 21.999c44.667 0 79.168 17.999 103.501 53.999s36.5 86.333 36.5 151s-11.333 114.334 -34 149.001s-55.667 52 -99 52c-44.667 0 -79.334 -17.833 -104.001 -53.5s-37 -86.5 -37 -152.5
c0 -64.667 11.5 -114.167 34.5 -148.5s56.167 -51.5 99.5 -51.5z" />
    <glyph glyph-name="p" unicode="p" horiz-adv-x="555" 
d="M42 -257c0 20 5.33301 32.001 16 36.001l57 18l-11 -17v629l12 -15l-59 11c-10 2 -15 13.667 -15 35c25.333 4 44.5 6.83301 57.5 8.5s23.5 2.5 31.5 2.5c17.333 0 29.833 -3.66699 37.5 -11s11.5 -19 11.5 -35v-45l-3 3h8c21.333 31.333 47.333 55.666 78 72.999
s62 26 94 26c33.333 0 62 -8.66699 86 -26s42.667 -41.833 56 -73.5s20 -69.167 20 -112.5c0 -52.667 -9.5 -98.667 -28.5 -138s-45.833 -69.833 -80.5 -91.5s-75.667 -32.5 -123 -32.5c-19.333 0 -39 2 -59 6s-39 9.66699 -57 17l14 8v-234l-12 13l81 -18
c0 -9.33301 -1.33301 -16.833 -4 -22.5s-7.66699 -10.5 -15 -14.5h-193zM281 27.001c52.667 0 91.167 16.332 115.5 48.999s36.5 84.334 36.5 155.001c0 61.333 -9.16699 106.333 -27.5 135s-46.833 43 -85.5 43c-20 0 -38.5 -3.83301 -55.5 -11.5
s-32.833 -18.667 -47.5 -33s-29 -31.5 -43 -51.5l10 23v-292l-10 18c23.333 -12.667 42.5 -21.667 57.5 -27s31.5 -8 49.5 -8z" />
    <glyph glyph-name="q" unicode="q" horiz-adv-x="564" 
d="M312 -257c0 20 5.33105 32 15.998 36l72 26l-19 -30v292h-4c-18.667 -24.667 -42.5 -44 -71.5 -58s-60.167 -21 -93.5 -21c-35.333 0 -66.333 8.83301 -93 26.5s-47.334 42.5 -62.001 74.5s-22 69.333 -22 112c0 50.667 10.833 95.5 32.5 134.5
s51.334 69.833 89.001 92.5s80.834 34 129.501 34c26 0 53.333 -4.33301 82 -13s59 -23.667 91 -45v-627l-26 24l88 -21c0 -9.33301 -1.16699 -16.833 -3.5 -22.5s-7.16602 -10.5 -14.499 -14.5h-191zM252.998 37c20 0 37.8311 3.16699 53.498 9.5s30.334 15.333 44.001 27
s26.5 25.167 38.5 40.5l-10 -21v308l10 -20c-16 14 -33.167 24.667 -51.5 32s-40.833 11 -67.5 11c-47.333 0 -84 -17.667 -110 -53s-39 -85.333 -39 -150c0 -59.333 11.333 -104.833 34 -136.5s55.334 -47.5 98.001 -47.5zM396.996 394l22.999 53
c2 5.33301 5.83301 9.33301 11.5 12s14.834 4 27.501 4v-59z" />
    <glyph glyph-name="r" unicode="r" horiz-adv-x="402" 
d="M50 0c0 20 5.33398 32 16.001 36l57 19l-11 -17v371l12 -15l-59 11c-4.66699 1.33301 -8.33398 4.83301 -11.001 10.5s-4 13.834 -4 24.501c26 4 45.333 6.83301 58 8.5s23.334 2.5 32.001 2.5c16 0 28 -4.5 36 -13.5s12 -23.833 12 -44.5v-42l-6 6h10
c18 31.333 40.167 56.666 66.5 75.999s51.5 29 75.5 29c25.333 0 43.333 -5.5 54 -16.5s16 -24.833 16 -41.5c0 -12.667 -3.83301 -23.667 -11.5 -33s-17.5 -14 -29.5 -14c-9.33301 17.333 -19 29 -29 35s-21 9 -33 9c-18.667 0 -38.334 -8.33301 -59.001 -25
s-39.334 -36.667 -56.001 -60l7 19v-296l-14 18l87 -19c0 -10 -1.16699 -17.667 -3.5 -23s-7.16602 -10.333 -14.499 -15h-198z" />
    <glyph glyph-name="s" unicode="s" horiz-adv-x="416" 
d="M201 -12c-48.667 0 -88.5 10.4971 -119.5 31.4971s-46.5 46.167 -46.5 75.5c0 15.333 4 26.666 12 33.999s18 11 30 11c15.333 0 27.333 -5 36 -15c0 -35.333 8 -62 24 -80s40 -27 72 -27c29.333 0 52.333 7.33301 69 22s25 35.334 25 62.001
c0 20.667 -5.33301 37.334 -16 50.001s-24.667 23 -42 31s-36 15.667 -56 23c-21.333 8 -42.333 17.333 -63 28s-37.667 24.5 -51 41.5s-20 38.167 -20 63.5c0 36.667 14.667 66.334 44 89.001s68.666 34 117.999 34c28 0 53.333 -3.66699 76 -11s40.667 -17.5 54 -30.5
s20 -27.833 20 -44.5c0 -12.667 -4 -22.5 -12 -29.5s-18 -10.5 -30 -10.5c-10.667 0 -20.667 3.66699 -30 11c0 27.333 -7.66699 48.333 -23 63s-36.333 22 -63 22c-24.667 0 -44.334 -6 -59.001 -18s-22 -28.333 -22 -49c0 -17.333 4.83301 -31.5 14.5 -42.5
s22.5 -20.167 38.5 -27.5s33 -14.666 51 -21.999c23.333 -8.66699 46.5 -18.667 69.5 -30s42.167 -25.833 57.5 -43.5s23 -41.167 23 -70.5c0 -28.667 -7.66699 -53.5 -23 -74.5s-36.666 -37.333 -63.999 -49s-58.666 -17.5 -93.999 -17.5z" />
    <glyph glyph-name="t" unicode="t" horiz-adv-x="335" 
d="M191 -12c-32 0 -55.8301 10.001 -71.4971 30.001s-23.5 50.333 -23.5 91v428c6 5.33301 13.5 10.166 22.5 14.499s18.667 8.16602 29 11.499s20.166 5.33301 29.499 6v-448c0 -26 3.83301 -44.833 11.5 -56.5s21.167 -17.5 40.5 -17.5c15.333 0 31.833 3.33301 49.5 10
s34.834 17.334 51.501 32.001l14 -25c-6.66699 -9.33301 -17.834 -20 -33.501 -32s-33.834 -22.333 -54.501 -31s-42.334 -13 -65.001 -13zM303.003 396.001l-275 5c0 9.33301 1.16699 17.833 3.5 25.5s5.83301 13.167 10.5 16.5l280 11
c1.33301 -3.33301 2.33301 -6.5 3 -9.5s1 -6.16699 1 -9.5c0 -10.667 -2 -19.5 -6 -26.5s-9.66699 -11.167 -17 -12.5z" />
    <glyph glyph-name="u" unicode="u" horiz-adv-x="573" 
d="M219 -12c-38 0 -67.332 12.5 -87.999 37.5s-31 64.5 -31 118.5v260l15 -15l-62 11c-4.66699 0.666992 -8.33398 3.83398 -11.001 9.50098s-4 14.167 -4 25.5l57.5 7.5c13 1.66699 23.5 2.5 31.5 2.5c18 0 31.5 -4.33301 40.5 -13s13.5 -22.334 13.5 -41.001v-245
c0 -36 7.16699 -62.5 21.5 -79.5s35.5 -25.5 63.5 -25.5c18 0 34.833 3 50.5 9s29.667 14.167 42 24.5s22.833 21.833 31.5 34.5l-7 -17v312l15 -15l-63 11c-4.66699 0.666992 -8.16699 3.83398 -10.5 9.50098s-3.5 14.167 -3.5 25.5l57.5 7.5
c13 1.66699 23.167 2.5 30.5 2.5c18.667 0 32.334 -4.33301 41.001 -13s13 -22.334 13 -41.001v-319c0 -11.333 2.5 -20 7.5 -26s11.833 -9 20.5 -9c7.33301 0 15.166 1.83301 23.499 5.5s15.833 8.16699 22.5 13.5l8 -27c-11.333 -12.667 -25.333 -22.667 -42 -30
s-32.667 -11 -48 -11c-20.667 0 -37 6.83301 -49 20.5s-18 33.167 -18 58.5h-5c-45.333 -52.667 -100 -79 -164 -79z" />
    <glyph glyph-name="v" unicode="v" horiz-adv-x="497" 
d="M251 -9c-4.66699 0 -10.001 0.666992 -16.001 2s-10.667 2.33301 -14 3l-161 405l18 -13l-75 18c0 10 1.33301 17.5 4 22.5s7.33398 9.83301 14.001 14.5h182c0 -22 -5.33301 -34.333 -16 -37l-60 -17l13 17l140 -349h-23l133 344l5 -13l-70 18
c0 12 1.16699 20.5 3.5 25.5s6.83301 8.83301 13.5 11.5h152c0 -11.333 -1.33301 -19.833 -4 -25.5s-6.66699 -9.16699 -12 -10.5l-57 -18l18 18l-152 -394c-5.33301 -14.667 -17.333 -22 -36 -22z" />
    <glyph glyph-name="w" unicode="w" horiz-adv-x="707" 
d="M225 -9c-5.33301 0 -10.835 0.666992 -16.502 2s-10.5 2.33301 -14.5 3l-134 405l18 -13l-75 18c0 10 1.33301 17.5 4 22.5s7.33398 9.83301 14.001 14.5h182c0 -22 -5.33301 -34.333 -16 -37l-60 -17l12 17l115 -349h-23l118 334h37l128 -334h-20l105 344l7 -13l-71 18
c0 12 1.33301 20.5 4 25.5s7.33398 8.83301 14.001 11.5h151c0 -11.333 -1.33301 -19.833 -4 -25.5s-6.66699 -9.16699 -12 -10.5l-57 -18l18 18l-124 -394c-5.33301 -14.667 -17.333 -22 -36 -22c-4.66699 0 -10 0.666992 -16 2s-10.667 2.33301 -14 3l-120 311h25
l-104 -294c-5.33301 -14.667 -17 -22 -35 -22z" />
    <glyph glyph-name="x" unicode="x" horiz-adv-x="499" 
d="M279 0c0 21.333 5.33203 33.333 15.999 36l67 19l-19 -27l-268 376l31 -19l-84 21c0 10 1.5 17.5 4.5 22.5s7.83301 9.83301 14.5 14.5h188c0 -21.333 -5.33301 -33.333 -16 -36l-66 -19l17 26l268 -374l-29 18l83 -21c0 -10 -1.16699 -17.5 -3.5 -22.5
s-7.16602 -9.83301 -14.499 -14.5h-189zM13.999 0c0 21.333 5.33203 33.333 15.999 36l75 24l-42 -28l153 203l29 -35l-130 -176l-1 32l72 -19c0 -12 -1.16699 -20.5 -3.5 -25.5s-7.16602 -8.83301 -14.499 -11.5h-154zM279.998 214l-29 37l125 169l-2 -32l-74 18
c0 12 1.16699 20.5 3.5 25.5s6.83301 8.83301 13.5 11.5h155c0 -20.667 -5.33301 -32.667 -16 -36l-70 -23l41 27z" />
    <glyph glyph-name="y" unicode="y" horiz-adv-x="501" 
d="M62 -270c-18.667 0 -33.166 3.83105 -43.499 11.498s-15.5 17.167 -15.5 28.5c0 4 0.666992 8.66699 2 14s3.33301 10.333 6 15h21c30 0 55 3.5 75 10.5s37.333 18.5 52 34.5s28.5 37.833 41.5 65.5s27.167 62.167 42.5 103.5l-4 -47l-175 435l18 -13l-75 18
c0 10 1.33301 17.5 4 22.5s7.33398 9.83301 14.001 14.5h182c0 -21.333 -5.33301 -33.666 -16 -36.999l-60 -17l14 17l139 -349h-23l132 344l6 -13l-70 18c0 12 1.16699 20.5 3.5 25.5s7.16602 8.83301 14.499 11.5h151c0 -11.333 -1.33301 -19.833 -4 -25.5
s-6.66699 -9.16699 -12 -10.5l-57 -18l18 18l-160 -416c-30.667 -79.333 -65.334 -142.666 -104.001 -189.999s-77.667 -71 -117 -71z" />
    <glyph glyph-name="z" unicode="z" horiz-adv-x="438" 
d="M58 0c-8.66699 0 -15.335 2.33203 -20.002 6.99902s-7 10.334 -7 17.001c0 4.66699 1 9.33398 3 14.001s4.33301 9.33398 7 14.001l261 360l33 -21l-246 11l18 21l-14 -110c-0.666992 -4 -3.16699 -6.83301 -7.5 -8.5s-9.16602 -2.83398 -14.499 -3.50098
s-10.333 -1 -15 -1l-12 143h310c12.667 0 21.834 -2.33301 27.501 -7s8.5 -10.667 8.5 -18c0 -4.66699 -1 -9.33398 -3 -14.001s-4.66699 -9.66699 -8 -15l-259 -359l-39 23l287 -12l-26 -25l13 137c7.33301 0 14.5 -0.833008 21.5 -2.5s13.167 -4.5 18.5 -8.5l8 -142h-345z
" />
    <glyph glyph-name="braceleft" unicode="{" horiz-adv-x="370" 
d="M356 -270c-24 0 -46.8359 2.00098 -68.5029 6.00098s-41.667 10.667 -60 20s-34.166 21.5 -47.499 36.5s-23.666 33.5 -30.999 55.5s-11 48 -11 78c0 17.333 0.5 34.833 1.5 52.5s1.83301 34.667 2.5 51s1 30.833 1 43.5c0 32.667 -3.5 60.834 -10.5 84.501
s-19.333 41.834 -37 54.501s-42.834 19 -75.501 19c-2.66699 3.33301 -4.66699 7.66602 -6 12.999s-2 10.333 -2 15c0 3.33301 0.166992 6.5 0.5 9.5s0.833008 5.83301 1.5 8.5c33.333 0 59.333 6.66699 78 20s31.834 32 39.501 56s11.5 51.667 11.5 83
c0 16.667 -0.333008 34.167 -1 52.5s-1.5 36.333 -2.5 54s-1.5 33.5 -1.5 47.5c0 28 3.83301 52.333 11.5 73s18.5 38.334 32.5 53.001s30.167 26.5 48.5 35.5s38.333 15.667 60 20s43.834 6.5 66.501 6.5c0.666992 -1.33301 1 -3 1 -5v-6
c0 -4.66699 -0.5 -9.33398 -1.5 -14.001s-2.16699 -8.66699 -3.5 -12c-48.667 -3.33301 -83.167 -16.833 -103.5 -40.5s-30.5 -60.167 -30.5 -109.5c0 -18 1 -38.833 3 -62.5s3 -51.5 3 -83.5c0 -56 -11.5 -99.833 -34.5 -131.5s-55.5 -50.167 -97.5 -55.5
c0 -1.33301 0.666992 -3.33301 2 -6c41.333 -5.33301 73.333 -23.833 96 -55.5s34 -76.167 34 -133.5c0 -32.667 -1 -60.667 -3 -84s-3 -44 -3 -62c0 -32.667 4 -59.5 12 -80.5s21.667 -37 41 -48s46.333 -18.5 81 -22.5c2 -2.66699 3.5 -6.33398 4.5 -11.001
s1.5 -9.33398 1.5 -14.001c0 -4 -1 -7.66699 -3 -11z" />
    <glyph glyph-name="bar" unicode="|" horiz-adv-x="225" 
d="M143 -200c-14.667 0 -27.668 1.33301 -39.001 4s-18.666 6 -21.999 10v920c14.667 0 27.5 -1.33301 38.5 -4s18.5 -6 22.5 -10v-920z" />
    <glyph glyph-name="braceright" unicode="}" horiz-adv-x="370" 
d="M14 -270c24 0 46.8359 2.00098 68.5029 6.00098s41.667 10.667 60 20s34.166 21.5 47.499 36.5s23.666 33.5 30.999 55.5s11 48 11 78c0 17.333 -0.5 34.833 -1.5 52.5s-1.83301 34.667 -2.5 51s-1 30.833 -1 43.5c0 32.667 3.5 60.834 10.5 84.501
s19.333 41.834 37 54.501s42.834 19 75.501 19c2.66699 3.33301 4.66699 7.66602 6 12.999s2 10.333 2 15c0 3.33301 -0.166992 6.5 -0.5 9.5s-0.833008 5.83301 -1.5 8.5c-33.333 0 -59.333 6.66699 -78 20s-31.834 32 -39.501 56s-11.5 51.667 -11.5 83
c0 16.667 0.333008 34.167 1 52.5s1.5 36.333 2.5 54s1.5 33.5 1.5 47.5c0 28 -3.83301 52.333 -11.5 73s-18.5 38.334 -32.5 53.001s-30.167 26.5 -48.5 35.5s-38.333 15.667 -60 20s-43.834 6.5 -66.501 6.5c-0.666992 -1.33301 -1 -3 -1 -5v-6
c0 -4.66699 0.5 -9.33398 1.5 -14.001s2.16699 -8.66699 3.5 -12c48.667 -3.33301 83.167 -16.833 103.5 -40.5s30.5 -60.167 30.5 -109.5c0 -18 -1 -38.833 -3 -62.5s-3 -51.5 -3 -83.5c0 -56 11.5 -99.833 34.5 -131.5s55.5 -50.167 97.5 -55.5
c0 -1.33301 -0.666992 -3.33301 -2 -6c-41.333 -5.33301 -73.333 -23.833 -96 -55.5s-34 -76.167 -34 -133.5c0 -32.667 1 -60.667 3 -84s3 -44 3 -62c0 -32.667 -4 -59.5 -12 -80.5s-21.667 -37 -41 -48s-46.333 -18.5 -81 -22.5c-2 -2.66699 -3.5 -6.33398 -4.5 -11.001
s-1.5 -9.33398 -1.5 -14.001c0 -4 1 -7.66699 3 -11z" />
    <glyph glyph-name="asciitilde" unicode="~" horiz-adv-x="572" 
d="M98 228c-2.66699 4 -5.16602 9.16504 -7.49902 15.498s-3.5 11.833 -3.5 16.5c0 10 3.66699 21.333 11 34s18.833 23.834 34.5 33.501s35.167 14.5 58.5 14.5c22 0 45.333 -3.83301 70 -11.5l73 -23.5c24 -8 45.333 -12 64 -12c17.333 0 32.5 4.66699 45.5 14
s23.167 23 30.5 41c7.33301 -10 11 -20.667 11 -32c0 -9.33301 -4 -20.666 -12 -33.999s-19.833 -24.833 -35.5 -34.5s-35.5 -14.5 -59.5 -14.5c-20.667 0 -43.334 4 -68.001 12l-72.5 24c-23.667 8 -44.834 12 -63.501 12c-17.333 0 -32.166 -4.66699 -44.499 -14
s-22.833 -23 -31.5 -41z" />
    <glyph glyph-name="uni00A0" unicode="&#xa0;" horiz-adv-x="225" 
 />
    <glyph glyph-name="exclamdown" unicode="&#xa1;" horiz-adv-x="230" 
d="M115 294c8 0 15.666 -1 22.999 -3c2.66699 -46 5.16699 -91.333 7.5 -136l6.5 -124l5 -98c1.33301 -27.333 2 -47 2 -59c0 -19.333 -3.16699 -33.666 -9.5 -42.999s-17.833 -14 -34.5 -14c-16 0 -27.167 4.66699 -33.5 14s-9.5 23.666 -9.5 42.999
c0 12 0.666992 31.667 2 59l5 98l6.5 124c2.33301 44.667 4.5 90 6.5 136c6.66699 2 14.334 3 23.001 3zM113.999 484c15.333 0 27.333 -4.50098 36 -13.501s13 -20.833 13 -35.5c0 -14 -5 -25.5 -15 -34.5s-21.333 -13.5 -34 -13.5c-16 0 -28.333 4.33301 -37 13
s-13 20.334 -13 35.001c0 14 5 25.667 15 35s21.667 14 35 14z" />
    <glyph glyph-name="cent" unicode="&#xa2;" horiz-adv-x="464" 
d="M260 -99c-6.66699 0 -13.667 0.666992 -21 2s-13.666 3.33301 -18.999 6v831c6.66699 0 13.667 -0.666992 21 -2s13.666 -3.33301 18.999 -6v-831zM240 83c-41.333 0 -77.501 9 -108.501 27s-54.833 43.333 -71.5 76s-25 71.334 -25 116.001
c0 50 9.83301 94.167 29.5 132.5s46.834 68.333 81.501 90s74 32.5 118 32.5c30 0 57.333 -4.83301 82 -14.5s44.167 -22.834 58.5 -39.501s21.5 -35 21.5 -55c0 -13.333 -3.83301 -23.833 -11.5 -31.5s-18.167 -11.5 -31.5 -11.5c-6 0 -11.667 0.833008 -17 2.5
s-10.666 3.83398 -15.999 6.50098c0 35.333 -8.16699 62.333 -24.5 81s-40.166 28 -71.499 28c-42.667 0 -75.334 -16.833 -98.001 -50.5s-34 -81.834 -34 -144.501c0 -65.333 12.5 -114.833 37.5 -148.5s62.167 -50.5 111.5 -50.5c26.667 0 52.5 5.5 77.5 16.5
s47.833 26.833 68.5 47.5l13 -24c-14 -17.333 -31.167 -32.5 -51.5 -45.5s-42.333 -23 -66 -30s-47.834 -10.5 -72.501 -10.5z" />
    <glyph glyph-name="sterling" unicode="&#xa3;" horiz-adv-x="539" 
d="M120 0c-10.667 3.33301 -18.4971 7.50195 -23.4971 12.502s-7.5 15.833 -7.5 32.5c38.667 33.333 65.667 62.166 81 86.499s23 46.166 23 65.499c0 22 -4.33301 42.667 -13 62s-18.834 38.833 -30.501 58.5s-21.834 41 -30.501 64s-13 49.5 -13 79.5c0 33.333 8 64 24 92
s39.167 50.333 69.5 67s67.166 25 110.499 25c34.667 0 65 -5 91 -15s46.333 -22.833 61 -38.5s22 -32.834 22 -51.501c0 -13.333 -3.5 -23.166 -10.5 -29.499s-16.167 -9.5 -27.5 -9.5c-6.66699 0 -12.667 1 -18 3s-10 4.33301 -14 7c0 27.333 -10.167 49.333 -30.5 66
s-45.833 25 -76.5 25c-38.667 0 -70 -10.5 -94 -31.5s-36 -51.167 -36 -90.5c0 -24 4.16699 -46.667 12.5 -68s17.833 -42.166 28.5 -62.499s20.167 -41.333 28.5 -63s12.5 -44.834 12.5 -69.501c0 -20 -3.5 -39.167 -10.5 -57.5s-18.833 -37 -35.5 -56s-40 -39.5 -70 -61.5
l-1 16l306 -20l-24 -26l22 140c10.667 0 19.5 -1.5 26.5 -4.5s11.167 -7.16699 12.5 -12.5v-135h-365zM51.0029 308.002c0 6 0.666992 12.8311 2 20.498s3.33301 13.834 6 18.501h321c0 -6 -0.5 -12.667 -1.5 -20s-2.83301 -13.666 -5.5 -18.999h-322z" />
    <glyph glyph-name="currency" unicode="&#xa4;" horiz-adv-x="650" 
d="M323 75c-60 0 -108.168 17.498 -144.501 52.498s-54.5 82.833 -54.5 143.5c0 40.667 9 78.334 27 113.001s42.833 62.834 74.5 84.501s68.167 32.5 109.5 32.5c60 0 108 -17.5 144 -52.5s54 -82.5 54 -142.5c0 -40.667 -8.66699 -78.5 -26 -113.5
s-41.666 -63.333 -72.999 -85s-68.333 -32.5 -111 -32.5zM221.999 126.998l-124 -138c-4.66699 0.666992 -9.83398 2.66699 -15.501 6s-10.667 7.5 -15 12.5s-7.16602 9.5 -8.49902 13.5l129 144zM432.999 126.998l33.999 37l128 -144c-1.33301 -4 -4.33301 -8.33301 -9 -13
s-9.66699 -8.66699 -15 -12s-10.666 -5.33301 -15.999 -6zM189.998 403.998l-131.001 147.999c1.33301 4 4.33301 8.33301 9 13s9.83398 8.83398 15.501 12.501s10.5 5.5 14.5 5.5l125 -142zM470.997 409.997l-33.002 38.001l118 135c5.33301 0 10.833 -1.83301 16.5 -5.5
s10.834 -7.83398 15.501 -12.501s7.33398 -9 8.00098 -13zM326.995 125.998c32.667 0 58.8311 7.16602 78.498 21.499s34 33.333 43 57s13.5 49.834 13.5 78.501c0 32 -5.16699 60.5 -15.5 85.5s-25.166 44.667 -44.499 59s-43.333 21.5 -72 21.5
c-32 0 -57.833 -7.16699 -77.5 -21.5s-34.167 -33.166 -43.5 -56.499s-14 -49 -14 -77c0 -30.667 5 -58.834 15 -84.501s24.833 -46 44.5 -61s43.834 -22.5 72.501 -22.5z" />
    <glyph glyph-name="yen" unicode="&#xa5;" horiz-adv-x="605" 
d="M166 246c0 6 0.666992 12.8311 2 20.498s3.33301 13.834 6 18.501h284c0 -6 -0.5 -12.667 -1.5 -20s-3.16699 -13.666 -6.5 -18.999h-284zM166 125.998c0 6 0.666992 12.8311 2 20.498s3.33301 13.834 6 18.501h284c0 -6 -0.5 -12.667 -1.5 -20
s-3.16699 -13.666 -6.5 -18.999h-284zM317 175.996l-259.999 429.002l29 -20l-83 19c0 9.33301 1.33301 16.666 4 21.999s7.66699 10.333 15 15h206c0 -10.667 -1.33301 -19 -4 -25s-6.66699 -9.66699 -12 -11l-76 -18l13 23l198 -327l-30 -3l168 326l8 -19l-82 17
c0 9.33301 1.16699 16.666 3.5 21.999s7.16602 10.333 14.499 15h173c0 -10.667 -1.33301 -19 -4 -25s-6.66699 -9.66699 -12 -11l-65 -16l18 22zM197.001 -0.00195312c0 10.667 1.5 18.999 4.5 24.999s6.83301 9.66699 11.5 11l74 18l-16 -23v244h82v-239l-17 20l94 -19
c0 -8.66699 -1 -15.667 -3 -21s-6.66699 -10.666 -14 -15.999h-216z" />
    <glyph glyph-name="brokenbar" unicode="&#xa6;" horiz-adv-x="225" 
d="M82 361v373c14.667 0 27.5 -1.33301 38.5 -4s18.5 -6 22.5 -10v-359h-61zM143 -200c-14.667 0 -27.668 1.33301 -39.001 4s-18.666 6 -21.999 10v359h61v-373z" />
    <glyph glyph-name="section" unicode="&#xa7;" horiz-adv-x="478" 
d="M234 -12c-49.333 0 -89.502 10.3369 -120.502 31.0039s-46.5 46 -46.5 76c0 15.333 3.83301 26.666 11.5 33.999s17.5 11 29.5 11c16 0 28.333 -5 37 -15c0 -71.333 31.667 -107 95 -107c29.333 0 52.666 7.66699 69.999 23s26 36.333 26 63c0 21.333 -5 38.5 -15 51.5
s-23.667 23.667 -41 32s-37 16.166 -59 23.499c-26.667 10 -50.167 20.667 -70.5 32s-36 24.833 -47 40.5s-16.5 34.834 -16.5 57.501c0 29.333 9.66699 54.166 29 74.499s46.333 33.833 81 40.5l26 -33c-19.333 -2.66699 -34.666 -10 -45.999 -22s-17 -27.333 -17 -46
c0 -16.667 4.33301 -30.334 13 -41.001s20.834 -19.834 36.501 -27.501s33.834 -15.5 54.501 -23.5c30 -10.667 56.167 -22 78.5 -34s39.833 -26.333 52.5 -43s19 -38 19 -64c0 -26.667 -7.66699 -50.167 -23 -70.5s-36.5 -36 -63.5 -47s-58.167 -16.5 -93.5 -16.5z
M320.998 200.004l-26.0049 31.9971c27.333 16 41 39.667 41 71c0 20.667 -5 37.334 -15 50.001s-23.5 23.167 -40.5 31.5s-36.833 16.5 -59.5 24.5c-26.667 10.667 -50.167 21.834 -70.5 33.501s-36 25.334 -47 41.001s-16.5 34.5 -16.5 56.5
c0 33.333 14.667 60.833 44 82.5s68.333 32.5 117 32.5c28.667 0 54.334 -3.66699 77.001 -11s40.667 -17.5 54 -30.5s20 -27.833 20 -44.5c0 -12.667 -4 -22.5 -12 -29.5s-17.667 -10.5 -29 -10.5s-21.333 3.66699 -30 11c0 27.333 -7.66699 48.333 -23 63
s-36.333 22 -63 22c-25.333 0 -45.333 -6.33301 -60 -19s-22 -29.667 -22 -51c0 -16.667 4.33301 -30.667 13 -42s20.834 -21 36.501 -29s33.834 -15.667 54.501 -23c29.333 -10 55.333 -21 78 -33s40.334 -26.667 53.001 -44s19 -39.333 19 -66
c0 -27.333 -8.16699 -51.333 -24.5 -72s-39.166 -36 -68.499 -46z" />
    <glyph glyph-name="dieresis" unicode="&#xa8;" horiz-adv-x="275" 
d="M226 554c-16.667 0 -28.833 4.5 -36.5 13.5s-11.5 20.5 -11.5 34.5c0 9.33301 2.33301 17.5 7 24.5s10.834 12.667 18.501 17s15.167 6.5 22.5 6.5c16.667 0 29 -4.33301 37 -13s12 -20.334 12 -35.001c0 -8.66699 -2.33301 -16.667 -7 -24
s-10.834 -13.166 -18.501 -17.499s-15.5 -6.5 -23.5 -6.5zM48.001 554c-16 0 -28.001 4.5 -36.001 13.5s-12 20.5 -12 34.5c-0 9.33301 2.33301 17.5 7 24.5s10.834 12.667 18.501 17s15.167 6.5 22.5 6.5c16 0 28.167 -4.33301 36.5 -13s12.5 -20.334 12.5 -35.001
c0 -8.66699 -2.33301 -16.667 -7 -24s-10.667 -13.166 -18 -17.499s-15.333 -6.5 -24 -6.5z" />
    <glyph glyph-name="copyright" unicode="&#xa9;" horiz-adv-x="701" 
d="M351 140c-56 0 -106.333 12.833 -151 38.5s-79.834 60.667 -105.501 105s-38.5 94.833 -38.5 151.5s12.833 107.167 38.5 151.5s60.834 79.333 105.501 105s95 38.5 151 38.5c56.667 0 107.167 -12.833 151.5 -38.5s79.333 -60.667 105 -105s38.5 -94.833 38.5 -151.5
s-12.833 -107.167 -38.5 -151.5s-60.667 -79.333 -105 -105s-94.833 -38.5 -151.5 -38.5zM351 164c52 0 98.5 11.667 139.5 35s73.167 55.5 96.5 96.5s35 87.5 35 139.5s-11.667 98.5 -35 139.5s-55.5 73.167 -96.5 96.5s-87.5 35 -139.5 35s-98.5 -11.667 -139.5 -35
s-73.167 -55.5 -96.5 -96.5s-35 -87.5 -35 -139.5s11.667 -98.5 35 -139.5s55.5 -73.167 96.5 -96.5s87.5 -35 139.5 -35zM361 239c-40 0 -74.832 7.83203 -104.499 23.499s-52.834 37.5 -69.501 65.5s-25 60.333 -25 97c0 41.333 9.66699 78.5 29 111.5s45.5 59 78.5 78
s69.833 28.5 110.5 28.5c23.333 0 45.833 -2.66699 67.5 -8s40.834 -12.666 57.501 -21.999l-12 -94c-8 0 -15 1.16699 -21 3.5s-9 5.16602 -9 8.49902l-9 61l10 -17c-26.667 22 -58.667 33 -96 33c-44 0 -78.833 -15.5 -104.5 -46.5s-38.5 -73.167 -38.5 -126.5
c0 -32 6 -60.167 18 -84.5s28.667 -43.333 50 -57s46 -20.5 74 -20.5c18 0 35.5 3.5 52.5 10.5s31.833 17.833 44.5 32.5l-11 -23l10 85c9.33301 0 16.666 -0.666992 21.999 -2s10 -3.33301 14 -6l7 -80c-20 -17.333 -42 -30.166 -66 -38.499s-50.333 -12.5 -79 -12.5z" />
    <glyph glyph-name="ordfeminine" unicode="&#xaa;" horiz-adv-x="372" 
d="M109 391c-24 0 -43.4971 6.83496 -58.4971 20.502s-22.5 31.834 -22.5 54.501c0 28.667 9.66699 51.667 29 69s46.333 30 81 38l97 22l-8 -10v50c0 24.667 -4.16699 43 -12.5 55s-21.5 18 -39.5 18c-20.667 0 -36.5 -6.33301 -47.5 -19s-16.833 -31.667 -17.5 -57
c-2.66699 -2.66699 -6.83398 -4.83398 -12.501 -6.50098s-11.167 -2.5 -16.5 -2.5c-10.667 0 -19 2.83301 -25 8.5s-9 13.167 -9 22.5c0 15.333 6 29.333 18 42s28.667 22.667 50 30s45.333 11 72 11c40 0 69.167 -9.66699 87.5 -29s27.5 -47.333 27.5 -84v-162
c0 -8.66699 1.66699 -15.334 5 -20.001s8 -7 14 -7c5.33301 0 11.166 1 17.499 3s11.833 5 16.5 9l7 -23c-9.33301 -8.66699 -20.833 -16.334 -34.5 -23.001s-27.167 -10 -40.5 -10c-18.667 0 -32.834 5.5 -42.501 16.5s-14.5 25.833 -14.5 44.5h-4
c-12.667 -16 -29 -30.167 -49 -42.5s-42.667 -18.5 -68 -18.5zM145.003 437.002c17.333 0 33.832 4.33008 49.499 12.9971s29.5 20.334 41.5 35.001l-9 -17v102l10 -2l-76 -17c-22 -5.33301 -38.167 -13.666 -48.5 -24.999s-15.5 -24.666 -15.5 -39.999
c0 -16 4.33301 -28.167 13 -36.5s20.334 -12.5 35.001 -12.5zM313.002 266.999l-260 -0.00195312c-0.666992 2 -1.33398 4.83301 -2.00098 8.5s-1 7.83398 -1 12.501c0 18.667 4 31.334 12 38.001h260c0.666992 -2 1.33398 -5 2.00098 -9s1 -8.33301 1 -13
c0 -16.667 -4 -29 -12 -37z" />
    <glyph glyph-name="guillemotleft" unicode="&#xab;" horiz-adv-x="444" 
d="M197 83l-138 145c-9.33301 9.33301 -16 16.666 -20 21.999s-6 11 -6 17c0 6.66699 2 12.667 6 18s10.667 12.666 20 21.999l138 145c6.66699 -2 12.167 -5.16699 16.5 -9.5s6.83301 -10.166 7.5 -17.499l-135 -176v36l135 -175
c-0.666992 -7.33301 -3.16699 -13.166 -7.5 -17.499s-9.83301 -7.5 -16.5 -9.5zM368 83l-138 145c-9.33301 9.33301 -16 16.666 -20 21.999s-6 11 -6 17c0 6.66699 2 12.667 6 18s10.667 12.666 20 21.999l138 145c6.66699 -2 12.167 -5.16699 16.5 -9.5
s6.83301 -10.166 7.5 -17.499l-135 -176v36l135 -175c-0.666992 -7.33301 -3.16699 -13.166 -7.5 -17.499s-9.83301 -7.5 -16.5 -9.5z" />
    <glyph glyph-name="logicalnot" unicode="&#xac;" horiz-adv-x="572" 
d="M468 124c-6.66699 0 -12.833 0.832031 -18.5 2.49902s-10.834 4.16699 -15.501 7.5v153l31 -22h-379c-6.66699 8 -10 18 -10 30c0 2.66699 0.333008 5.83398 1 9.50098s1.33398 6.83398 2.00098 9.50098h407v-187c-3.33301 -0.666992 -6.33301 -1.33398 -9 -2.00098
s-5.66699 -1 -9 -1z" />
    <glyph glyph-name="uni00AD" unicode="&#xad;" horiz-adv-x="360" 
d="M65 229c-2 3.33301 -3.66699 7.16797 -5 11.501s-2 9.16602 -2 14.499c0 22 14.667 33 44 33c24 0 45.667 -0.333008 65 -1s40.333 -1 63 -1c12 0 23.333 0.5 34 1.5s21.334 2.83301 32.001 5.5c2 -4 3.5 -8 4.5 -12s1.5 -8.66699 1.5 -14c0 -22 -14.333 -33 -43 -33
c-24.667 0 -46.5 0.333008 -65.5 1s-39.833 1 -62.5 1c-12.667 0 -24.334 -0.5 -35.001 -1.5s-21 -2.83301 -31 -5.5z" />
    <glyph glyph-name="registered" unicode="&#xae;" horiz-adv-x="619" 
d="M311 242c-46.667 0 -88.334 10.667 -125.001 32s-65.667 50.333 -87 87s-32 78.334 -32 125.001s10.667 88.334 32 125.001s50.333 65.667 87 87s78.334 32 125.001 32s88.334 -10.667 125.001 -32s65.667 -50.333 87 -87s32 -78.334 32 -125.001
s-10.667 -88.334 -32 -125.001s-50.333 -65.667 -87 -87s-78.334 -32 -125.001 -32zM311 262c43.333 0 81.833 9.66699 115.5 29s60.167 46 79.5 80s29 72.333 29 115c0 43.333 -9.66699 81.833 -29 115.5s-45.833 60.167 -79.5 79.5s-72.167 29 -115.5 29
c-42.667 0 -81 -9.66699 -115 -29s-60.667 -45.833 -80 -79.5s-29 -72.167 -29 -115.5c0 -42.667 9.66699 -81 29 -115s46 -60.667 80 -80s72.333 -29 115 -29zM173 331c0 4.66699 0.833984 8.99805 2.50098 12.998s3.5 6.33301 5.5 7l39 14l-6 -9v265l6 -7l-47 12
c0 12 3.33301 20 10 24h139c33.333 0.666992 60 -6.66602 80 -21.999s30 -35 30 -59c0 -28.667 -11.333 -52.5 -34 -71.5s-52.334 -28.5 -89.001 -28.5c-9.33301 0 -18.833 0.666992 -28.5 2s-17.5 3 -23.5 5l7 2v-121l-7 9l50 -11
c0 -7.33301 -0.833008 -12.666 -2.5 -15.999s-4.5 -6 -8.5 -8h-123zM264.001 492.998l-5.99902 8.00098c4 -2 10.667 -3.5 20 -4.5s17.333 -1.5 24 -1.5c23.333 0 41.166 6 53.499 18s18.5 28.333 18.5 49c0 19.333 -6 34.166 -18 44.499s-28 15.5 -48 15.5
c-6.66699 0 -14.5 -0.5 -23.5 -1.5s-17.833 -2.83301 -26.5 -5.5l6 7v-129zM444.002 323.999c-10.667 0 -21 2.66699 -31 8s-20.167 13.833 -30.5 25.5s-21.333 27.667 -33 48s-24.167 45.5 -37.5 75.5l45 13c18 -35.333 38.167 -66.833 60.5 -94.5s43.5 -48.5 63.5 -62.5
c-4.66699 -3.33301 -10.5 -6.33301 -17.5 -9s-13.5 -4 -19.5 -4z" />
    <glyph glyph-name="macron" unicode="&#xaf;" horiz-adv-x="275" 
d="M263 573l-260 -0.00195312c-0.666992 2 -1.33398 4.83301 -2.00098 8.5s-1 7.83398 -1 12.501c0 18.667 4 31.334 12 38.001h260c0.666992 -2 1.33398 -5 2.00098 -9s1 -8.33301 1 -13c0 -16.667 -4 -29 -12 -37z" />
    <glyph glyph-name="degree" unicode="&#xb0;" horiz-adv-x="447" 
d="M208 405c-44.667 0 -79.999 12.832 -105.999 38.499s-39 60.834 -39 105.501c0 34 7.5 64.167 22.5 90.5s35.667 46.833 62 61.5s56.166 22 89.499 22c43.333 0 78.5 -13.167 105.5 -39.5s40.5 -61.833 40.5 -106.5c0 -33.333 -7.5 -63 -22.5 -89
s-35.5 -46.333 -61.5 -61s-56.333 -22 -91 -22zM213.001 456.999c33.333 0 60.5 11.001 81.5 33.001s31.5 49.667 31.5 83c0 29.333 -8.66699 53 -26 71s-40 27 -68 27c-32 0 -58.333 -11 -79 -33s-31 -50.333 -31 -85c0 -28.667 8.16699 -51.834 24.5 -69.501
s38.5 -26.5 66.5 -26.5z" />
    <glyph glyph-name="plusminus" unicode="&#xb1;" horiz-adv-x="600" 
d="M293 282c-5.33301 0 -11.167 0.835938 -17.5 2.50293s-11.166 4.5 -14.499 8.5v273c2 1.33301 4.66699 2.16602 8 2.49902s6.66602 0.5 9.99902 0.5c6 0 12 -0.833008 18 -2.5s10.667 -4.83398 14 -9.50098v-272c-2.66699 -0.666992 -5.5 -1.33398 -8.5 -2.00098
s-6.16699 -1 -9.5 -1zM85.999 404.003c-6.66699 8 -10.002 17.9971 -10.002 29.9971c0 2.66699 0.333008 5.83398 1 9.50098s1.33398 6.83398 2.00098 9.50098h402c7.33301 -7.33301 11 -17.333 11 -30c0 -2.66699 -0.166992 -5.66699 -0.5 -9
s-1.16602 -6.66602 -2.49902 -9.99902h-403zM85.9971 176c-6.66699 8 -10.002 17.9971 -10.002 29.9971c0 2.66699 0.333008 5.83398 1 9.50098s1.33398 6.83398 2.00098 9.50098h402c7.33301 -7.33301 11 -17.333 11 -30c0 -2.66699 -0.166992 -5.66699 -0.5 -9
s-1.16602 -6.66602 -2.49902 -9.99902h-403z" />
    <glyph glyph-name="uni00B2" unicode="&#xb2;" horiz-adv-x="369" 
d="M55 351c-6.66699 4 -11 8.66797 -13 14.001s-3 12.333 -3 21c66.667 50.667 115.667 96.167 147 136.5s47 78.833 47 115.5c0 21.333 -5.66699 37.5 -17 48.5s-27.666 16.5 -48.999 16.5c-13.333 0 -26.5 -2.33301 -39.5 -7s-25.167 -12.334 -36.5 -23.001l9 20l-8 -59
c-0.666992 -8 -11.334 -12 -32.001 -12l-12 87c44.667 22.667 88 34 130 34c41.333 0 74.166 -9.16699 98.499 -27.5s36.5 -43.166 36.5 -74.499c0 -36.667 -18.667 -77.334 -56 -122.001s-92.666 -92 -165.999 -142l-10 24l214 -14l-25 -7l19 73c8 0 14.667 -1 20 -3
s9.33301 -4.66699 12 -8v-91h-266z" />
    <glyph glyph-name="uni00B3" unicode="&#xb3;" horiz-adv-x="370" 
d="M176 343c-30.667 0 -55.832 3.66895 -75.499 11.002s-34.167 16.666 -43.5 27.999s-14 22.666 -14 33.999c0 10 2 18.333 6 25s9.66699 11.834 17 15.501s15.666 5.5 24.999 5.5c0 -25.333 7 -44.833 21 -58.5s33.333 -20.5 58 -20.5c23.333 0 41.666 5.66699 54.999 17
s20 27.333 20 48s-7.33301 37.667 -22 51s-37.667 24.666 -69 33.999c-4.66699 2 -7.66699 5 -9 9s-2 11 -2 21c32 8.66699 55.667 19.834 71 33.501s23 29.834 23 48.501c0 17.333 -6 31.166 -18 41.499s-27.667 15.5 -47 15.5c-14.667 0 -29.5 -3.16699 -44.5 -9.5
s-29.5 -15.833 -43.5 -28.5l25 37l-9 -62c-0.666992 -4 -3.66699 -7.16699 -9 -9.5s-13.333 -3.5 -24 -3.5l-11 82c22.667 12 44.667 20.833 66 26.5s42.333 8.5 63 8.5c39.333 0 70.833 -8.33301 94.5 -25s35.5 -39.334 35.5 -68.001c0 -24 -9.33301 -44.5 -28 -61.5
s-46.667 -30.5 -84 -40.5l1 7c39.333 -7.33301 69.5 -20.333 90.5 -39s31.5 -41.667 31.5 -69c0 -31.333 -13.667 -56.5 -41 -75.5s-63.666 -28.5 -108.999 -28.5z" />
    <glyph glyph-name="acute" unicode="&#xb4;" horiz-adv-x="206" 
d="M22 515c-5.33301 0 -10.333 2.16699 -15 6.5s-7 10.166 -7 17.499l86 85c20.667 20.667 36 35.5 46 44.5s17.167 14.667 21.5 17s8.5 3.5 12.5 3.5c6.66699 0 13 -2.33301 19 -7s11 -10.5 15 -17.5s6 -14.167 6 -21.5c0 -3.33301 -1.33301 -6.66602 -4 -9.99902
s-9.66699 -9 -21 -17s-29.5 -19.833 -54.5 -35.5z" />
    <glyph glyph-name="uni00B5" unicode="&#xb5;" horiz-adv-x="583" 
d="M38 -258c0 7.33301 0.833984 14.999 2.50098 22.999s6.16699 13 13.5 15l65 15l-9 -19v628l15 -15l-62 11c-4.66699 0.666992 -8.33398 3.83398 -11.001 9.50098s-4 14.167 -4 25.5l57.5 7.5c13 1.66699 23.5 2.5 31.5 2.5c18 0 31.5 -4.33301 40.5 -13
s13.5 -22.334 13.5 -41.001v-245c0 -36 7.16699 -62.5 21.5 -79.5s35.5 -25.5 63.5 -25.5c18 0 34.833 3 50.5 9s29.667 14.167 42 24.5s22.833 21.833 31.5 34.5l-7 -17v312l15 -15l-63 11c-4.66699 0.666992 -8.16699 3.83398 -10.5 9.50098s-3.5 14.167 -3.5 25.5
l57.5 7.5c13 1.66699 23.167 2.5 30.5 2.5c18.667 0 32.334 -4.33301 41.001 -13s13 -22.334 13 -41.001v-319c0 -11.333 2.5 -20 7.5 -26s11.833 -9 20.5 -9c7.33301 0 15.166 1.83301 23.499 5.5s15.833 8.16699 22.5 13.5l8 -27c-11.333 -12.667 -25.333 -22.667 -42 -30
s-32.667 -11 -48 -11c-20.667 0 -37 6.83301 -49 20.5s-18 33.167 -18 58.5h-5c-16.667 -24.667 -37.5 -44 -62.5 -58s-52.167 -21 -81.5 -21c-21.333 0 -39.333 5.16699 -54 15.5s-25.667 24.5 -33 42.5h14v-257c0.666992 -8.66699 -1 -16.167 -5 -22.5
s-9.33301 -11.166 -16 -14.499s-14 -5.83301 -22 -7.5s-15.667 -2.5 -23 -2.5h-72z" />
    <glyph glyph-name="paragraph" unicode="&#xb6;" horiz-adv-x="482" 
d="M181 -68c-16.667 0 -29.333 3.66602 -38 10.999s-13 16.666 -13 27.999c0 4.66699 0.666992 9.83398 2 15.501s3.66602 10.167 6.99902 13.5c38.667 0 68.667 5.66699 90 17s36.5 30.666 45.5 57.999s13.5 65.333 13.5 114v386c10.667 0 23.334 0.333008 38.001 1l44.5 2
c15 0.666992 28.5 1.5 40.5 2.5s20.333 1.83301 25 2.5c5.33301 -8.66699 8 -17.334 8 -26.001c0 -19.333 -11.5 -32.666 -34.5 -39.999s-53.5 -7.33301 -91.5 0l49 39l1 -258c0 -51.333 -4.66699 -99.166 -14 -143.499s-22.5 -83.166 -39.5 -116.499s-37 -59.333 -60 -78
s-47.5 -28 -73.5 -28zM256.001 247.999c-63.333 0 -112.501 14.667 -147.501 44s-52.5 70.333 -52.5 123c0 32.667 6.33301 61.5 19 86.5s30.334 44.5 53.001 58.5s48.667 21 78 21h10.5c3 0 7.33301 -0.333008 13 -1l26.5 -3v-329z" />
    <glyph glyph-name="periodcentered" unicode="&#xb7;" horiz-adv-x="225" 
d="M112 214c-16.667 0 -29.5 5 -38.5 15s-13.5 22.333 -13.5 37s5.33301 27 16 37s22.667 15 36 15c17.333 0 30.5 -4.83301 39.5 -14.5s13.5 -22.167 13.5 -37.5c0 -14.667 -5.33301 -27 -16 -37s-23 -15 -37 -15z" />
    <glyph glyph-name="cedilla" unicode="&#xb8;" horiz-adv-x="303" 
d="M146 -259c-32 0 -58.334 7.99609 -79.001 23.9961s-31 36.333 -31 61c0 8 2 14.167 6 18.5s10 6.5 18 6.5c10.667 0 20.334 -3.33301 29.001 -10c0 -27.333 4.83301 -47.5 14.5 -60.5s25.834 -19.5 48.501 -19.5c19.333 0 35 6.33301 47 19s18 29.667 18 51
c0 26.667 -8 45.334 -24 56.001s-35.333 16 -58 16c-6 0 -11.167 -0.166992 -15.5 -0.5s-7.83301 -1.16602 -10.5 -2.49902l27 100h23l-23 -84l-11 8c6 1.33301 12 2.33301 18 3s12 1 18 1c18 0 35.167 -3.16699 51.5 -9.5s29.666 -16.166 39.999 -29.499
s15.5 -30.666 15.5 -51.999c0 -14.667 -4.5 -29.5 -13.5 -44.5s-22.5 -27.333 -40.5 -37s-40.667 -14.5 -68 -14.5z" />
    <glyph glyph-name="uni00B9" unicode="&#xb9;" horiz-adv-x="281" 
d="M53 351c0 18 3.33301 27.6689 10 29.002l64 18l-11 -19v327l13 -31l-88 -15c-2 3.33301 -3.5 6.83301 -4.5 10.5s-1.5 7.83398 -1.5 12.501c0 4 0.166992 7.66699 0.5 11s1.5 6.66602 3.5 9.99902l118 39h34v-362l-14 19l72 -18
c0 -6.66699 -0.833008 -12.334 -2.5 -17.001s-4.5 -9.33398 -8.5 -14.001h-185z" />
    <glyph glyph-name="ordmasculine" unicode="&#xba;" horiz-adv-x="401" 
d="M183 391c-48 0 -86 13.999 -114 41.999s-42 66 -42 114c0 36.667 8 69.334 24 98.001s38.167 51.167 66.5 67.5s60.5 24.5 96.5 24.5c48 0 86.833 -14.5 116.5 -43.5s44.5 -67.167 44.5 -114.5c0 -36.667 -8.16699 -69.167 -24.5 -97.5s-38.833 -50.5 -67.5 -66.5
s-62 -24 -100 -24zM200 421.999c30 0 53.166 12.333 69.499 37s24.5 59.334 24.5 104.001c0 45.333 -8 80.666 -24 105.999s-39 38 -69 38c-29.333 0 -52.166 -12.333 -68.499 -37s-24.5 -60 -24.5 -106c0 -44.667 8 -79.5 24 -104.5s38.667 -37.5 68 -37.5z
M325.999 266.999l-260 -0.00195312c-0.666992 2 -1.33398 4.83301 -2.00098 8.5s-1 7.83398 -1 12.501c0 18.667 4 31.334 12 38.001h260c0.666992 -2 1.33398 -5 2.00098 -9s1 -8.33301 1 -13c0 -16.667 -4 -29 -12 -37z" />
    <glyph glyph-name="guillemotright" unicode="&#xbb;" horiz-adv-x="444" 
d="M76 83l138 145c9.33301 9.33301 16 16.666 20 21.999s6 11 6 17c0 6.66699 -2 12.667 -6 18s-10.667 12.666 -20 21.999l-138 145c-6.66699 -2 -12.167 -5.16699 -16.5 -9.5s-6.83301 -10.166 -7.5 -17.499l135 -176v36l-135 -175
c0.666992 -7.33301 3.16699 -13.166 7.5 -17.499s9.83301 -7.5 16.5 -9.5zM247 83l138 145c9.33301 9.33301 16 16.666 20 21.999s6 11 6 17c0 6.66699 -2 12.667 -6 18s-10.667 12.666 -20 21.999l-138 145c-6.66699 -2 -12.167 -5.16699 -16.5 -9.5
s-6.83301 -10.166 -7.5 -17.499l135 -176v36l-135 -175c0.666992 -7.33301 3.16699 -13.166 7.5 -17.499s9.83301 -7.5 16.5 -9.5z" />
    <glyph glyph-name="onequarter" unicode="&#xbc;" horiz-adv-x="931" 
d="M96 263c0 18 3.33301 27.6689 10 29.002l64 18l-11 -19v327l13 -31l-88 -15c-2 3.33301 -3.5 6.83301 -4.5 10.5s-1.5 7.83398 -1.5 12.501c0 4 0.166992 7.66699 0.5 11s1.5 6.66602 3.5 9.99902l118 39h34v-362l-14 19l72 -18
c0 -6.66699 -0.833008 -12.334 -2.5 -17.001s-4.5 -9.33398 -8.5 -14.001h-185zM325 -11.998c-12 0 -21.834 1.16699 -29.501 3.5s-14.5 6.83301 -20.5 13.5l295 650c10.667 0 19.834 -1 27.501 -3s15.167 -6.66699 22.5 -14zM728.999 0.00195312l0.000976562 342h27
l-171 -226l-15 19h271v-37h-276c-12.667 4 -19 15.667 -19 35l196 260c19.333 0 34.166 -4 44.499 -12s15.5 -19.333 15.5 -34v-347h-73z" />
    <glyph glyph-name="onehalf" unicode="&#xbd;" horiz-adv-x="931" 
d="M94 263c0 18 3.33301 27.6689 10 29.002l64 18l-11 -19v327l13 -31l-88 -15c-2 3.33301 -3.5 6.83301 -4.5 10.5s-1.5 7.83398 -1.5 12.501c0 4 0.166992 7.66699 0.5 11s1.5 6.66602 3.5 9.99902l118 39h34v-362l-14 19l72 -18
c0 -6.66699 -0.833008 -12.334 -2.5 -17.001s-4.5 -9.33398 -8.5 -14.001h-185zM301 -11.998c-12 0 -21.834 1.16699 -29.501 3.5s-14.5 6.83301 -20.5 13.5l295 650c10.667 0 19.834 -1 27.501 -3s15.167 -6.66699 22.5 -14zM580.999 1.00195
c-6.66699 4 -11 8.66797 -13 14.001s-3 12.333 -3 21c66.667 50.667 115.667 96.167 147 136.5s47 78.833 47 115.5c0 21.333 -5.66699 37.5 -17 48.5s-27.666 16.5 -48.999 16.5c-13.333 0 -26.5 -2.33301 -39.5 -7s-25.167 -12.334 -36.5 -23.001l9 20l-8 -59
c-0.666992 -8 -11.334 -12 -32.001 -12l-12 87c44.667 22.667 88 34 130 34c41.333 0 74.166 -9.16699 98.499 -27.5s36.5 -43.166 36.5 -74.499c0 -36.667 -18.667 -77.334 -56 -122.001s-92.666 -92 -165.999 -142l-10 24l214 -14l-25 -7l19 73c8 0 14.667 -1 20 -3
s9.33301 -4.66699 12 -8v-91h-266z" />
    <glyph glyph-name="threequarters" unicode="&#xbe;" horiz-adv-x="931" 
d="M189 255c-30.667 0 -55.832 3.66895 -75.499 11.002s-34.167 16.666 -43.5 27.999s-14 22.666 -14 33.999c0 10 2 18.333 6 25s9.66699 11.834 17 15.501s15.666 5.5 24.999 5.5c0 -25.333 7 -44.833 21 -58.5s33.333 -20.5 58 -20.5c23.333 0 41.666 5.66699 54.999 17
s20 27.333 20 48s-7.33301 37.667 -22 51s-37.667 24.666 -69 33.999c-4.66699 2 -7.66699 5 -9 9s-2 11 -2 21c32 8.66699 55.667 19.834 71 33.501s23 29.834 23 48.501c0 17.333 -6 31.166 -18 41.499s-27.667 15.5 -47 15.5c-14.667 0 -29.5 -3.16699 -44.5 -9.5
s-29.5 -15.833 -43.5 -28.5l25 37l-9 -62c-0.666992 -4 -3.66699 -7.16699 -9 -9.5s-13.333 -3.5 -24 -3.5l-11 82c22.667 12 44.667 20.833 66 26.5s42.333 8.5 63 8.5c39.333 0 70.833 -8.33301 94.5 -25s35.5 -39.334 35.5 -68.001c0 -24 -9.33301 -44.5 -28 -61.5
s-46.667 -30.5 -84 -40.5l1 7c39.333 -7.33301 69.5 -20.333 90.5 -39s31.5 -41.667 31.5 -69c0 -31.333 -13.667 -56.5 -41 -75.5s-63.666 -28.5 -108.999 -28.5zM363.002 -11.998c-12 0 -21.834 1.16699 -29.501 3.5s-14.5 6.83301 -20.5 13.5l295 650
c10.667 0 19.834 -1 27.501 -3s15.167 -6.66699 22.5 -14zM767.001 0.00195312l0.000976562 342h27l-171 -226l-15 19h271v-37h-276c-12.667 4 -19 15.667 -19 35l196 260c19.333 0 34.166 -4 44.499 -12s15.5 -19.333 15.5 -34v-347h-73z" />
    <glyph glyph-name="questiondown" unicode="&#xbf;" horiz-adv-x="435" 
d="M257 294c8 0 15.6699 -0.998047 23.0029 -2.99805l8 -126c-20 -6 -40.333 -13.667 -61 -23s-40 -21.333 -58 -36s-32.5 -32.5 -43.5 -53.5s-16.5 -45.5 -16.5 -73.5c0 -38.667 9.33301 -69.5 28 -92.5s46 -34.5 82 -34.5c32.667 0 58.667 10.5 78 31.5s29 52.167 29 93.5
c4 2 8.33301 3.83301 13 5.5s11.667 2.5 21 2.5c13.333 0 24.166 -4.33301 32.499 -13s12.5 -20.667 12.5 -36c0 -32 -16.333 -59.833 -49 -83.5s-78.334 -35.5 -137.001 -35.5s-104.834 14.167 -138.501 42.5s-50.5 66.5 -50.5 114.5c0 25.333 5 48.666 15 69.999
s23.167 40.333 39.5 57s34 31.167 53 43.5s37.167 22.166 54.5 29.499s32.333 12.333 45 15l-10 -12l7 114c6 2 13.667 3 23 3zM257.003 484.002c15.333 0 27.333 -4.50098 36 -13.501s13 -20.833 13 -35.5c0 -14 -5 -25.5 -15 -34.5s-21.333 -13.5 -34 -13.5
c-16 0 -28.333 4.33301 -37 13s-13 20.334 -13 35.001c0 14 5 25.667 15 35s21.667 14 35 14z" />
    <glyph glyph-name="Agrave" unicode="&#xc0;" horiz-adv-x="645" 
d="M3 0c0 10.667 1.49902 18.9971 4.49902 24.9971s6.83301 9.66699 11.5 11l59 18l-25 -26l222 608c2 5.33301 5.5 9.33301 10.5 12s10.333 4.5 16 5.5s10.834 1.5 15.501 1.5c4 0 8.16699 -0.166992 12.5 -0.5s8.83301 -1.16602 13.5 -2.49902l242 -621l-32 25l89 -19
c0 -8.66699 -1.33301 -15.667 -4 -21s-7.66699 -10.666 -15 -15.999h-201c0 10.667 1.5 19 4.5 25s6.83301 9.66699 11.5 11l68 18l-9 -20l-214 547l21 2l-203 -555l-3 28l89 -19c0 -8.66699 -1.16699 -15.667 -3.5 -21s-7.83301 -10.666 -16.5 -15.999h-164z
M154.999 215.997l11 42h263l13 -42h-287zM407.999 733.997l-120.5 37.5c-29 9 -50 16 -63 21s-21.167 9.33301 -24.5 13s-5 7.5 -5 11.5c0 12 3.33301 23.167 10 33.5s14.667 15.5 24 15.5c4 0 9.16699 -1.33301 15.5 -4s16.166 -7.5 29.499 -14.5s32 -17.5 56 -31.5l93 -54
c0 -6.66699 -1.16699 -13 -3.5 -19s-6.16602 -9 -11.499 -9z" />
    <glyph glyph-name="Aacute" unicode="&#xc1;" horiz-adv-x="645" 
d="M3 0c0 10.667 1.49902 18.9971 4.49902 24.9971s6.83301 9.66699 11.5 11l59 18l-25 -26l222 608c2 5.33301 5.5 9.33301 10.5 12s10.333 4.5 16 5.5s10.834 1.5 15.501 1.5c4 0 8.16699 -0.166992 12.5 -0.5s8.83301 -1.16602 13.5 -2.49902l242 -621l-32 25l89 -19
c0 -8.66699 -1.33301 -15.667 -4 -21s-7.66699 -10.666 -15 -15.999h-201c0 10.667 1.5 19 4.5 25s6.83301 9.66699 11.5 11l68 18l-9 -20l-214 547l21 2l-203 -555l-3 28l89 -19c0 -8.66699 -1.16699 -15.667 -3.5 -21s-7.83301 -10.666 -16.5 -15.999h-164z
M154.999 215.997l11 42h263l13 -42h-287zM210.999 733.997c-6 0 -10.165 3 -12.498 9s-3.5 12.333 -3.5 19l93 54c24 14 42.667 24.5 56 31.5s23.166 11.833 29.499 14.5s11.166 4 14.499 4c10 0 18.333 -5.16699 25 -15.5s10 -21.5 10 -33.5
c0 -4 -1.66699 -7.83301 -5 -11.5s-11.5 -8 -24.5 -13s-33.833 -12 -62.5 -21z" />
    <glyph glyph-name="Acircumflex" unicode="&#xc2;" horiz-adv-x="645" 
d="M3 0c0 10.667 1.49902 18.9971 4.49902 24.9971s6.83301 9.66699 11.5 11l59 18l-25 -26l222 608c2 5.33301 5.5 9.33301 10.5 12s10.333 4.5 16 5.5s10.834 1.5 15.501 1.5c4 0 8.16699 -0.166992 12.5 -0.5s8.83301 -1.16602 13.5 -2.49902l242 -621l-32 25l89 -19
c0 -8.66699 -1.33301 -15.667 -4 -21s-7.66699 -10.666 -15 -15.999h-201c0 10.667 1.5 19 4.5 25s6.83301 9.66699 11.5 11l68 18l-9 -20l-214 547l21 2l-203 -555l-3 28l89 -19c0 -8.66699 -1.16699 -15.667 -3.5 -21s-7.83301 -10.666 -16.5 -15.999h-164z
M154.999 215.997l11 42h263l13 -42h-287zM308.999 878.997c7.33301 0 14.165 -1.66699 20.498 -5s14.333 -9.83301 24 -19.5s22.334 -24.167 38.001 -43.5l62.5 -77c0 -6 -1.83301 -11 -5.5 -15s-9.16699 -6 -16.5 -6l-135 107h22l-135 -107c-6.66699 0 -12 2 -16 6
s-6 9 -6 15l63 77c16 19.333 28.833 33.833 38.5 43.5s17.834 16.167 24.501 19.5s13.667 5 21 5z" />
    <glyph glyph-name="Atilde" unicode="&#xc3;" horiz-adv-x="645" 
d="M3 0c0 10.667 1.49902 18.9971 4.49902 24.9971s6.83301 9.66699 11.5 11l59 18l-25 -26l222 608c2 5.33301 5.5 9.33301 10.5 12s10.333 4.5 16 5.5s10.834 1.5 15.501 1.5c4 0 8.16699 -0.166992 12.5 -0.5s8.83301 -1.16602 13.5 -2.49902l242 -621l-32 25l89 -19
c0 -8.66699 -1.33301 -15.667 -4 -21s-7.66699 -10.666 -15 -15.999h-201c0 10.667 1.5 19 4.5 25s6.83301 9.66699 11.5 11l68 18l-9 -20l-214 547l21 2l-203 -555l-3 28l89 -19c0 -8.66699 -1.16699 -15.667 -3.5 -21s-7.83301 -10.666 -16.5 -15.999h-164z
M154.999 215.997l11 42h263l13 -42h-287zM235.999 792.997c-14.667 0 -27.3311 -5.33301 -37.998 -16s-16 -24.667 -16 -42c-10.667 0 -18.5 1.33301 -23.5 4s-7.5 6.66699 -7.5 12c0 18.667 4.16699 35.834 12.5 51.501s19.166 28.167 32.499 37.5s28 14 44 14
c17.333 0 33.833 -3.83301 49.5 -11.5l46.5 -23.5c15.333 -8 30.666 -12 45.999 -12s28.166 5.5 38.499 16.5s15.5 24.833 15.5 41.5c10.667 0 18.334 -1.16699 23.001 -3.5s7 -6.16602 7 -11.499c0 -18.667 -4 -35.834 -12 -51.501s-18.667 -28.334 -32 -38.001
s-28.333 -14.5 -45 -14.5s-32.667 4 -48 12l-46 23.5c-15.333 7.66699 -31 11.5 -47 11.5z" />
    <glyph glyph-name="Adieresis" unicode="&#xc4;" horiz-adv-x="645" 
d="M3 0c0 10.667 1.49902 18.9971 4.49902 24.9971s6.83301 9.66699 11.5 11l59 18l-25 -26l222 608c2 5.33301 5.5 9.33301 10.5 12s10.333 4.5 16 5.5s10.834 1.5 15.501 1.5c4 0 8.16699 -0.166992 12.5 -0.5s8.83301 -1.16602 13.5 -2.49902l242 -621l-32 25l89 -19
c0 -8.66699 -1.33301 -15.667 -4 -21s-7.66699 -10.666 -15 -15.999h-201c0 10.667 1.5 19 4.5 25s6.83301 9.66699 11.5 11l68 18l-9 -20l-214 547l21 2l-203 -555l-3 28l89 -19c0 -8.66699 -1.16699 -15.667 -3.5 -21s-7.83301 -10.666 -16.5 -15.999h-164z
M154.999 215.997l11 42h263l13 -42h-287zM396.999 751.997c-16.667 0 -28.833 4.5 -36.5 13.5s-11.5 20.5 -11.5 34.5c0 9.33301 2.33301 17.5 7 24.5s10.834 12.667 18.501 17s15.167 6.5 22.5 6.5c16.667 0 29 -4.33301 37 -13s12 -20.334 12 -35.001
c0 -8.66699 -2.33301 -16.667 -7 -24s-10.834 -13.166 -18.501 -17.499s-15.5 -6.5 -23.5 -6.5zM219 751.997c-16 0 -28.001 4.5 -36.001 13.5s-12 20.5 -12 34.5c0 9.33301 2.33301 17.5 7 24.5s10.834 12.667 18.501 17s15.167 6.5 22.5 6.5
c16 0 28.167 -4.33301 36.5 -13s12.5 -20.334 12.5 -35.001c0 -8.66699 -2.33301 -16.667 -7 -24s-10.667 -13.166 -18 -17.499s-15.333 -6.5 -24 -6.5z" />
    <glyph glyph-name="Aring" unicode="&#xc5;" horiz-adv-x="645" 
d="M3 0c0 10.667 1.49902 18.9971 4.49902 24.9971s6.83301 9.66699 11.5 11l59 18l-25 -26l222 608c2 5.33301 5.5 9.33301 10.5 12s10.333 4.5 16 5.5s10.834 1.5 15.501 1.5c4 0 8.16699 -0.166992 12.5 -0.5s8.83301 -1.16602 13.5 -2.49902l242 -621l-32 25l89 -19
c0 -8.66699 -1.33301 -15.667 -4 -21s-7.66699 -10.666 -15 -15.999h-201c0 10.667 1.5 19 4.5 25s6.83301 9.66699 11.5 11l68 18l-9 -20l-214 547l21 2l-203 -555l-3 28l89 -19c0 -8.66699 -1.16699 -15.667 -3.5 -21s-7.83301 -10.666 -16.5 -15.999h-164z
M154.999 215.997l11 42h263l13 -42h-287zM301.999 691.997c-30.667 0 -55.999 8.33301 -75.999 25s-30 38 -30 64c0 20.667 5.16699 39 15.5 55s24.166 28.667 41.499 38s37 14 59 14c32.667 0 59 -8.66699 79 -26s30 -40 30 -68c0 -30 -11 -54.5 -33 -73.5
s-50.667 -28.5 -86 -28.5zM310 722.997c16 0.666992 28.499 6.66602 37.499 17.999s13.5 27 13.5 47s-5 36.333 -15 49s-23 19.334 -39 20.001c-34 -1.33301 -51 -23.333 -51 -66c0 -20.667 4.83301 -37 14.5 -49s22.834 -18.333 39.501 -19z" />
    <glyph glyph-name="AE" unicode="&#xc6;" horiz-adv-x="933" 
d="M-3 0c0 10.667 1.33398 18.833 4.00098 24.5s6.66699 9.5 12 11.5l58 20l-29 -35l424 596l28 -31l-116 18c0 9.33301 1.33301 16.666 4 21.999s7.66699 10.333 15 15h443v-126c-10.667 0 -19 1.33301 -25 4s-10 7 -12 13l-25 81l14 -9l-246 -18l11 13v-274l-10 7h173
l-11 -7l17 63c9.33301 0 17.166 -1.16699 23.499 -3.5s12.5 -7.5 18.5 -15.5v-120c-6 -8 -12.167 -13 -18.5 -15s-14.166 -3 -23.499 -3l-18 64l12 -8h-173l10 8v-247l-10 11l272 -21l-13 -13l28 123c9.33301 0 16.666 -1.33301 21.999 -4s10.333 -6.66699 15 -12v-132h-464
c0 10.667 1.5 19 4.5 25s6.83301 9.66699 11.5 11l67 18l-15 -16v242l8 -13h-220l22 14l-178 -250l-9 26l103 -20c0 -8.66699 -1.16699 -15.667 -3.5 -21s-7.5 -10.666 -15.5 -15.999h-185zM292.001 295.999l-5 15h196l-8 -13v278l7 -13z" />
    <glyph glyph-name="Ccedilla" unicode="&#xc7;" horiz-adv-x="650" 
d="M353 -12c-58.667 0 -110.33 13.1689 -154.997 39.502s-79.5 62.666 -104.5 108.999s-37.5 99.833 -37.5 160.5c0 51.333 8.66699 98.666 26 141.999s41.333 81.166 72 113.499s67 57.5 109 75.5s87.333 27 136 27c34 0 66.667 -4.16699 98 -12.5s60 -20.5 86 -36.5
l-19 -140c-10.667 0 -19.334 1.66699 -26.001 5s-10.334 7.33301 -11.001 12l-9 99l16 -25c-16.667 14 -39.334 25.167 -68.001 33.5s-58.667 12.5 -90 12.5c-46.667 0 -87.334 -11.167 -122.001 -33.5s-61.334 -54.166 -80.001 -95.499s-28 -90.333 -28 -147
c0 -58 9.5 -108.667 28.5 -152s45.5 -77 79.5 -101s73.333 -36 118 -36c34.667 0 67.167 7 97.5 21s52.833 32.333 67.5 55l-18 -39l12 137c14.667 0 25.334 -1.33301 32.001 -4s11 -6.66699 13 -12l6 -130c-26.667 -24 -60.667 -43 -102 -57s-83.666 -21 -126.999 -21z
M354.004 -269.998c-32 0 -58.667 8.33496 -80 25.002s-32 37.667 -32 63c0 11.333 2.5 19.666 7.5 24.999s10.833 8 17.5 8c8.66699 0 15 -1.33301 19 -4s7.33301 -5 10 -7c0 -26.667 6.33301 -47.167 19 -61.5s29.334 -21.5 50.001 -21.5
c19.333 0 35.666 6.66699 48.999 20s20 31.333 20 54c0 16 -4.5 29.167 -13.5 39.5s-20.333 18.166 -34 23.499s-27.834 8 -42.501 8c-6 0 -11.167 -0.166992 -15.5 -0.5s-7.83301 -0.833008 -10.5 -1.5l25 100h29l-18 -74l-12 12c14 2 29.167 1.83301 45.5 -0.5
s32 -7.33301 47 -15s27.167 -18.5 36.5 -32.5s14 -31.667 14 -53c0 -16 -4.83301 -32.333 -14.5 -49s-24.167 -30.5 -43.5 -41.5s-43.666 -16.5 -72.999 -16.5z" />
    <glyph glyph-name="Egrave" unicode="&#xc8;" horiz-adv-x="600" 
d="M67 0c0 10.667 1.49902 19.001 4.49902 25.001s6.83301 9.66699 11.5 11l67 18l-15 -16v564l14 -17l-82 19c0 9.33301 1.33301 16.666 4 21.999s7.66699 10.333 15 15h421v-126c-10.667 0 -19 1.33301 -25 4s-10 7 -12 13l-25 77l14 -9l-253 -14l11 13v-259l-10 7h209
l-13 -7l15 70c6.66699 0 13.334 -1 20.001 -3s12.334 -6 17.001 -12v-141c-4.66699 -6 -10.334 -9.83301 -17.001 -11.5s-13.334 -2.5 -20.001 -2.5l-16 72l14 -9h-209l10 9v-264l-10 11l279 -18l-13 -13l27 120c9.33301 0 16.833 -1.33301 22.5 -4
s10.834 -6.66699 15.501 -12v-132h-471zM410.999 734.001l-120.5 37.5c-29 9 -50 16 -63 21s-21.167 9.33301 -24.5 13s-5 7.5 -5 11.5c0 12 3.33301 23.167 10 33.5s14.667 15.5 24 15.5c4 0 9.16699 -1.33301 15.5 -4s16.166 -7.5 29.499 -14.5s32 -17.5 56 -31.5l93 -54
c0 -6.66699 -1.16699 -13 -3.5 -19s-6.16602 -9 -11.499 -9z" />
    <glyph glyph-name="Eacute" unicode="&#xc9;" horiz-adv-x="600" 
d="M67 0c0 10.667 1.49902 19.001 4.49902 25.001s6.83301 9.66699 11.5 11l67 18l-15 -16v564l14 -17l-82 19c0 9.33301 1.33301 16.666 4 21.999s7.66699 10.333 15 15h421v-126c-10.667 0 -19 1.33301 -25 4s-10 7 -12 13l-25 77l14 -9l-253 -14l11 13v-259l-10 7h209
l-13 -7l15 70c6.66699 0 13.334 -1 20.001 -3s12.334 -6 17.001 -12v-141c-4.66699 -6 -10.334 -9.83301 -17.001 -11.5s-13.334 -2.5 -20.001 -2.5l-16 72l14 -9h-209l10 9v-264l-10 11l279 -18l-13 -13l27 120c9.33301 0 16.833 -1.33301 22.5 -4
s10.834 -6.66699 15.501 -12v-132h-471zM213.999 734.001c-6 0 -10.165 3 -12.498 9s-3.5 12.333 -3.5 19l93 54c24 14 42.667 24.5 56 31.5s23.166 11.833 29.499 14.5s11.166 4 14.499 4c10 0 18.333 -5.16699 25 -15.5s10 -21.5 10 -33.5
c0 -4 -1.66699 -7.83301 -5 -11.5s-11.5 -8 -24.5 -13s-33.833 -12 -62.5 -21z" />
    <glyph glyph-name="Ecircumflex" unicode="&#xca;" horiz-adv-x="600" 
d="M67 0c0 10.667 1.49902 19.001 4.49902 25.001s6.83301 9.66699 11.5 11l67 18l-15 -16v564l14 -17l-82 19c0 9.33301 1.33301 16.666 4 21.999s7.66699 10.333 15 15h421v-126c-10.667 0 -19 1.33301 -25 4s-10 7 -12 13l-25 77l14 -9l-253 -14l11 13v-259l-10 7h209
l-13 -7l15 70c6.66699 0 13.334 -1 20.001 -3s12.334 -6 17.001 -12v-141c-4.66699 -6 -10.334 -9.83301 -17.001 -11.5s-13.334 -2.5 -20.001 -2.5l-16 72l14 -9h-209l10 9v-264l-10 11l279 -18l-13 -13l27 120c9.33301 0 16.833 -1.33301 22.5 -4
s10.834 -6.66699 15.501 -12v-132h-471zM311.999 879.001c7.33301 0 14.165 -1.66699 20.498 -5s14.333 -9.83301 24 -19.5s22.334 -24.167 38.001 -43.5l62.5 -77c0 -6 -1.83301 -11 -5.5 -15s-9.16699 -6 -16.5 -6l-135 107h22l-135 -107c-6.66699 0 -12 2 -16 6
s-6 9 -6 15l63 77c16 19.333 28.833 33.833 38.5 43.5s17.834 16.167 24.501 19.5s13.667 5 21 5z" />
    <glyph glyph-name="Edieresis" unicode="&#xcb;" horiz-adv-x="600" 
d="M67 0c0 10.667 1.49902 19.001 4.49902 25.001s6.83301 9.66699 11.5 11l67 18l-15 -16v564l14 -17l-82 19c0 9.33301 1.33301 16.666 4 21.999s7.66699 10.333 15 15h421v-126c-10.667 0 -19 1.33301 -25 4s-10 7 -12 13l-25 77l14 -9l-253 -14l11 13v-259l-10 7h209
l-13 -7l15 70c6.66699 0 13.334 -1 20.001 -3s12.334 -6 17.001 -12v-141c-4.66699 -6 -10.334 -9.83301 -17.001 -11.5s-13.334 -2.5 -20.001 -2.5l-16 72l14 -9h-209l10 9v-264l-10 11l279 -18l-13 -13l27 120c9.33301 0 16.833 -1.33301 22.5 -4
s10.834 -6.66699 15.501 -12v-132h-471zM399.999 752.001c-16.667 0 -28.833 4.5 -36.5 13.5s-11.5 20.5 -11.5 34.5c0 9.33301 2.33301 17.5 7 24.5s10.834 12.667 18.501 17s15.167 6.5 22.5 6.5c16.667 0 29 -4.33301 37 -13s12 -20.334 12 -35.001
c0 -8.66699 -2.33301 -16.667 -7 -24s-10.834 -13.166 -18.501 -17.499s-15.5 -6.5 -23.5 -6.5zM222 752.001c-16 0 -28.001 4.5 -36.001 13.5s-12 20.5 -12 34.5c0 9.33301 2.33301 17.5 7 24.5s10.834 12.667 18.501 17s15.167 6.5 22.5 6.5
c16 0 28.167 -4.33301 36.5 -13s12.5 -20.334 12.5 -35.001c0 -8.66699 -2.33301 -16.667 -7 -24s-10.667 -13.166 -18 -17.499s-15.333 -6.5 -24 -6.5z" />
    <glyph glyph-name="Igrave" unicode="&#xcc;" horiz-adv-x="351" 
d="M67 0c0 10.667 1.49902 19 4.49902 25s6.83301 9.66699 11.5 11l67 18l-15 -16v564l16 -17l-84 19c0 9.33301 1.33301 16.666 4 21.999s7.66699 10.333 15 15h201c0 -10.667 -1.33301 -19 -4 -25s-6.66699 -9.66699 -12 -11l-71 -18l17 17v-565l-18 17l88 -19
c0 -8.66699 -1.16699 -15.667 -3.5 -21s-7.16602 -10.666 -14.499 -15.999h-202zM273.999 734l-120.5 37.5c-29 9 -50 16 -63 21s-21.167 9.33301 -24.5 13s-5 7.5 -5 11.5c0 12 3.33301 23.167 10 33.5s14.667 15.5 24 15.5c4 0 9.16699 -1.33301 15.5 -4
s16.166 -7.5 29.499 -14.5s32 -17.5 56 -31.5l93 -54c0 -6.66699 -1.16699 -13 -3.5 -19s-6.16602 -9 -11.499 -9z" />
    <glyph glyph-name="Iacute" unicode="&#xcd;" horiz-adv-x="351" 
d="M67 0c0 10.667 1.49902 19 4.49902 25s6.83301 9.66699 11.5 11l67 18l-15 -16v564l16 -17l-84 19c0 9.33301 1.33301 16.666 4 21.999s7.66699 10.333 15 15h201c0 -10.667 -1.33301 -19 -4 -25s-6.66699 -9.66699 -12 -11l-71 -18l17 17v-565l-18 17l88 -19
c0 -8.66699 -1.16699 -15.667 -3.5 -21s-7.16602 -10.666 -14.499 -15.999h-202zM76.999 734c-6 0 -10.165 3 -12.498 9s-3.5 12.333 -3.5 19l93 54c24 14 42.667 24.5 56 31.5s23.166 11.833 29.499 14.5s11.166 4 14.499 4c10 0 18.333 -5.16699 25 -15.5
s10 -21.5 10 -33.5c0 -4 -1.66699 -7.83301 -5 -11.5s-11.5 -8 -24.5 -13s-33.833 -12 -62.5 -21z" />
    <glyph glyph-name="Icircumflex" unicode="&#xce;" horiz-adv-x="351" 
d="M67 0c0 10.667 1.49902 19 4.49902 25s6.83301 9.66699 11.5 11l67 18l-15 -16v564l16 -17l-84 19c0 9.33301 1.33301 16.666 4 21.999s7.66699 10.333 15 15h201c0 -10.667 -1.33301 -19 -4 -25s-6.66699 -9.66699 -12 -11l-71 -18l17 17v-565l-18 17l88 -19
c0 -8.66699 -1.16699 -15.667 -3.5 -21s-7.16602 -10.666 -14.499 -15.999h-202zM174.999 879c7.33301 0 14.165 -1.66699 20.498 -5s14.333 -9.83301 24 -19.5s22.334 -24.167 38.001 -43.5l62.5 -77c0 -6 -1.83301 -11 -5.5 -15s-9.16699 -6 -16.5 -6l-135 107h22
l-135 -107c-6.66699 0 -12 2 -16 6s-6 9 -6 15l63 77c16 19.333 28.833 33.833 38.5 43.5s17.834 16.167 24.501 19.5s13.667 5 21 5z" />
    <glyph glyph-name="Idieresis" unicode="&#xcf;" horiz-adv-x="351" 
d="M67 0c0 10.667 1.49902 19 4.49902 25s6.83301 9.66699 11.5 11l67 18l-15 -16v564l16 -17l-84 19c0 9.33301 1.33301 16.666 4 21.999s7.66699 10.333 15 15h201c0 -10.667 -1.33301 -19 -4 -25s-6.66699 -9.66699 -12 -11l-71 -18l17 17v-565l-18 17l88 -19
c0 -8.66699 -1.16699 -15.667 -3.5 -21s-7.16602 -10.666 -14.499 -15.999h-202zM262.999 752c-16.667 0 -28.833 4.5 -36.5 13.5s-11.5 20.5 -11.5 34.5c0 9.33301 2.33301 17.5 7 24.5s10.834 12.667 18.501 17s15.167 6.5 22.5 6.5c16.667 0 29 -4.33301 37 -13
s12 -20.334 12 -35.001c0 -8.66699 -2.33301 -16.667 -7 -24s-10.834 -13.166 -18.501 -17.499s-15.5 -6.5 -23.5 -6.5zM85 752c-16 0 -28.001 4.5 -36.001 13.5s-12 20.5 -12 34.5c0 9.33301 2.33301 17.5 7 24.5s10.834 12.667 18.501 17s15.167 6.5 22.5 6.5
c16 0 28.167 -4.33301 36.5 -13s12.5 -20.334 12.5 -35.001c0 -8.66699 -2.33301 -16.667 -7 -24s-10.667 -13.166 -18 -17.499s-15.333 -6.5 -24 -6.5z" />
    <glyph glyph-name="Eth" unicode="&#xd0;" horiz-adv-x="716" 
d="M67 0c0 10.667 1.49902 19 4.49902 25s6.83301 9.66699 11.5 11l67 18l-15 -16v564l14 -17l-82 19c0 9.33301 1.16699 16.666 3.5 21.999s6.83301 10.333 13.5 15h287c48.667 0 91.167 -8.16699 127.5 -24.5s66.5 -38.333 90.5 -66s42 -59.167 54 -94.5
s18 -72.333 18 -111c0 -40.667 -7 -81.5 -21 -122.5s-34.333 -78.167 -61 -111.5s-59.167 -60.166 -97.5 -80.499s-82.166 -30.5 -131.499 -30.5h-283zM344.999 45c37.333 0 69.999 7.49707 97.999 22.4971s51.5 35.333 70.5 61s33.333 54.834 43 87.501
s14.5 66.667 14.5 102c0 50 -8.66699 96.333 -26 139s-43 76.834 -77 102.501s-76 38.5 -126 38.5c-29.333 0 -55.666 -1.66699 -78.999 -5s-43 -7.66602 -59 -12.999l13 15v-547l-10 14c19.333 -6 41 -10.333 65 -13s48.333 -4 73 -4zM58.998 293.997
c0 6.66699 0.333008 13.501 1 20.501s1.66699 13.5 3 19.5s3.33301 10.333 6 13l257 -4c0 -9.33301 -1.16699 -17.333 -3.5 -24s-5.5 -11.334 -9.5 -14.001z" />
    <glyph glyph-name="Ntilde" unicode="&#xd1;" horiz-adv-x="753" 
d="M602 -2c-6.66699 0 -12.6689 0.503906 -18.002 1.50391l-13 2.5l-395 552l11 6v-530l-7 24l87 -17c0 -8.66699 -1.16699 -15.834 -3.5 -21.501s-7.16602 -10.834 -14.499 -15.501h-182c0 10.667 1.5 19 4.5 25s6.83301 9.66699 11.5 11l69 16l-11 -27v581l12 -19l-86 17
c0 9.33301 1.33301 16.666 4 21.999s7.33398 10.333 14.001 15h126l405 -564l-28 -7v540l6 -23l-87 17c0 9.33301 1.33301 16.666 4 21.999s7.66699 10.333 15 15h182c0 -10.667 -1.33301 -19 -4 -25s-6.66699 -9.66699 -12 -11l-69 -16l11 23v-592
c0 -4 -1.83301 -7.66699 -5.5 -11s-8 -6 -13 -8s-9.5 -3 -13.5 -3zM314.998 793.004c-14.667 0 -27.3311 -5.33301 -37.998 -16s-16 -24.667 -16 -42c-10.667 0 -18.5 1.33301 -23.5 4s-7.5 6.66699 -7.5 12c0 18.667 4.16699 35.834 12.5 51.501s19.166 28.167 32.499 37.5
s28 14 44 14c17.333 0 33.833 -3.83301 49.5 -11.5l46.5 -23.5c15.333 -8 30.666 -12 45.999 -12s28.166 5.5 38.499 16.5s15.5 24.833 15.5 41.5c10.667 0 18.334 -1.16699 23.001 -3.5s7 -6.16602 7 -11.499c0 -18.667 -4 -35.834 -12 -51.501
s-18.667 -28.334 -32 -38.001s-28.333 -14.5 -45 -14.5s-32.667 4 -48 12l-46 23.5c-15.333 7.66699 -31 11.5 -47 11.5z" />
    <glyph glyph-name="Ograve" unicode="&#xd2;" horiz-adv-x="731" 
d="M346 -12c-57.333 0 -107.833 13.5 -151.5 40.5s-77.667 63.833 -102 110.5s-36.5 99.334 -36.5 158.001c0 51.333 8.5 98.666 25.5 141.999s40.667 81.166 71 113.499s65.5 57.5 105.5 75.5s82.667 27 128 27c57.333 0 107.833 -13.5 151.5 -40.5
s77.667 -63.667 102 -110s36.5 -98.833 36.5 -157.5c0 -49.333 -8.16699 -95.666 -24.5 -138.999s-39.5 -81.5 -69.5 -114.5s-65 -58.833 -105 -77.5s-83.667 -28 -131 -28zM375 39c41.333 0 77.666 11.668 108.999 35.001s55.833 55.333 73.5 96s26.5 87 26.5 139
c0 91.333 -20.167 163.166 -60.5 215.499s-96.166 78.5 -167.499 78.5c-38 0 -73 -11 -105 -33s-57.5 -53.167 -76.5 -93.5s-28.5 -87.833 -28.5 -142.5c0 -91.333 20.333 -163.333 61 -216s96.667 -79 168 -79zM465 734.001l-120.5 37.5c-29 9 -50 16 -63 21
s-21.167 9.33301 -24.5 13s-5 7.5 -5 11.5c0 12 3.33301 23.167 10 33.5s14.667 15.5 24 15.5c4 0 9.16699 -1.33301 15.5 -4s16.166 -7.5 29.499 -14.5s32 -17.5 56 -31.5l93 -54c0 -6.66699 -1.16699 -13 -3.5 -19s-6.16602 -9 -11.499 -9z" />
    <glyph glyph-name="Oacute" unicode="&#xd3;" horiz-adv-x="731" 
d="M346 -12c-57.333 0 -107.833 13.5 -151.5 40.5s-77.667 63.833 -102 110.5s-36.5 99.334 -36.5 158.001c0 51.333 8.5 98.666 25.5 141.999s40.667 81.166 71 113.499s65.5 57.5 105.5 75.5s82.667 27 128 27c57.333 0 107.833 -13.5 151.5 -40.5
s77.667 -63.667 102 -110s36.5 -98.833 36.5 -157.5c0 -49.333 -8.16699 -95.666 -24.5 -138.999s-39.5 -81.5 -69.5 -114.5s-65 -58.833 -105 -77.5s-83.667 -28 -131 -28zM375 39c41.333 0 77.666 11.668 108.999 35.001s55.833 55.333 73.5 96s26.5 87 26.5 139
c0 91.333 -20.167 163.166 -60.5 215.499s-96.166 78.5 -167.499 78.5c-38 0 -73 -11 -105 -33s-57.5 -53.167 -76.5 -93.5s-28.5 -87.833 -28.5 -142.5c0 -91.333 20.333 -163.333 61 -216s96.667 -79 168 -79zM268 734.001c-6 0 -10.165 3 -12.498 9s-3.5 12.333 -3.5 19
l93 54c24 14 42.667 24.5 56 31.5s23.166 11.833 29.499 14.5s11.166 4 14.499 4c10 0 18.333 -5.16699 25 -15.5s10 -21.5 10 -33.5c0 -4 -1.66699 -7.83301 -5 -11.5s-11.5 -8 -24.5 -13s-33.833 -12 -62.5 -21z" />
    <glyph glyph-name="Ocircumflex" unicode="&#xd4;" horiz-adv-x="731" 
d="M346 -12c-57.333 0 -107.833 13.5 -151.5 40.5s-77.667 63.833 -102 110.5s-36.5 99.334 -36.5 158.001c0 51.333 8.5 98.666 25.5 141.999s40.667 81.166 71 113.499s65.5 57.5 105.5 75.5s82.667 27 128 27c57.333 0 107.833 -13.5 151.5 -40.5
s77.667 -63.667 102 -110s36.5 -98.833 36.5 -157.5c0 -49.333 -8.16699 -95.666 -24.5 -138.999s-39.5 -81.5 -69.5 -114.5s-65 -58.833 -105 -77.5s-83.667 -28 -131 -28zM375 39c41.333 0 77.666 11.668 108.999 35.001s55.833 55.333 73.5 96s26.5 87 26.5 139
c0 91.333 -20.167 163.166 -60.5 215.499s-96.166 78.5 -167.499 78.5c-38 0 -73 -11 -105 -33s-57.5 -53.167 -76.5 -93.5s-28.5 -87.833 -28.5 -142.5c0 -91.333 20.333 -163.333 61 -216s96.667 -79 168 -79zM366 879.001c7.33301 0 14.165 -1.66699 20.498 -5
s14.333 -9.83301 24 -19.5s22.334 -24.167 38.001 -43.5l62.5 -77c0 -6 -1.83301 -11 -5.5 -15s-9.16699 -6 -16.5 -6l-135 107h22l-135 -107c-6.66699 0 -12 2 -16 6s-6 9 -6 15l63 77c16 19.333 28.833 33.833 38.5 43.5s17.834 16.167 24.501 19.5s13.667 5 21 5z" />
    <glyph glyph-name="Otilde" unicode="&#xd5;" horiz-adv-x="731" 
d="M346 -12c-57.333 0 -107.833 13.5 -151.5 40.5s-77.667 63.833 -102 110.5s-36.5 99.334 -36.5 158.001c0 51.333 8.5 98.666 25.5 141.999s40.667 81.166 71 113.499s65.5 57.5 105.5 75.5s82.667 27 128 27c57.333 0 107.833 -13.5 151.5 -40.5
s77.667 -63.667 102 -110s36.5 -98.833 36.5 -157.5c0 -49.333 -8.16699 -95.666 -24.5 -138.999s-39.5 -81.5 -69.5 -114.5s-65 -58.833 -105 -77.5s-83.667 -28 -131 -28zM375 39c41.333 0 77.666 11.668 108.999 35.001s55.833 55.333 73.5 96s26.5 87 26.5 139
c0 91.333 -20.167 163.166 -60.5 215.499s-96.166 78.5 -167.499 78.5c-38 0 -73 -11 -105 -33s-57.5 -53.167 -76.5 -93.5s-28.5 -87.833 -28.5 -142.5c0 -91.333 20.333 -163.333 61 -216s96.667 -79 168 -79zM293 793.001c-14.667 0 -27.3311 -5.33301 -37.998 -16
s-16 -24.667 -16 -42c-10.667 0 -18.5 1.33301 -23.5 4s-7.5 6.66699 -7.5 12c0 18.667 4.16699 35.834 12.5 51.501s19.166 28.167 32.499 37.5s28 14 44 14c17.333 0 33.833 -3.83301 49.5 -11.5l46.5 -23.5c15.333 -8 30.666 -12 45.999 -12s28.166 5.5 38.499 16.5
s15.5 24.833 15.5 41.5c10.667 0 18.334 -1.16699 23.001 -3.5s7 -6.16602 7 -11.499c0 -18.667 -4 -35.834 -12 -51.501s-18.667 -28.334 -32 -38.001s-28.333 -14.5 -45 -14.5s-32.667 4 -48 12l-46 23.5c-15.333 7.66699 -31 11.5 -47 11.5z" />
    <glyph glyph-name="Odieresis" unicode="&#xd6;" horiz-adv-x="731" 
d="M346 -12c-57.333 0 -107.833 13.5 -151.5 40.5s-77.667 63.833 -102 110.5s-36.5 99.334 -36.5 158.001c0 51.333 8.5 98.666 25.5 141.999s40.667 81.166 71 113.499s65.5 57.5 105.5 75.5s82.667 27 128 27c57.333 0 107.833 -13.5 151.5 -40.5
s77.667 -63.667 102 -110s36.5 -98.833 36.5 -157.5c0 -49.333 -8.16699 -95.666 -24.5 -138.999s-39.5 -81.5 -69.5 -114.5s-65 -58.833 -105 -77.5s-83.667 -28 -131 -28zM375 39c41.333 0 77.666 11.668 108.999 35.001s55.833 55.333 73.5 96s26.5 87 26.5 139
c0 91.333 -20.167 163.166 -60.5 215.499s-96.166 78.5 -167.499 78.5c-38 0 -73 -11 -105 -33s-57.5 -53.167 -76.5 -93.5s-28.5 -87.833 -28.5 -142.5c0 -91.333 20.333 -163.333 61 -216s96.667 -79 168 -79zM454 752.001c-16.667 0 -28.833 4.5 -36.5 13.5
s-11.5 20.5 -11.5 34.5c0 9.33301 2.33301 17.5 7 24.5s10.834 12.667 18.501 17s15.167 6.5 22.5 6.5c16.667 0 29 -4.33301 37 -13s12 -20.334 12 -35.001c0 -8.66699 -2.33301 -16.667 -7 -24s-10.834 -13.166 -18.501 -17.499s-15.5 -6.5 -23.5 -6.5zM276.001 752.001
c-16 0 -28.001 4.5 -36.001 13.5s-12 20.5 -12 34.5c0 9.33301 2.33301 17.5 7 24.5s10.834 12.667 18.501 17s15.167 6.5 22.5 6.5c16 0 28.167 -4.33301 36.5 -13s12.5 -20.334 12.5 -35.001c0 -8.66699 -2.33301 -16.667 -7 -24s-10.667 -13.166 -18 -17.499
s-15.333 -6.5 -24 -6.5z" />
    <glyph glyph-name="multiply" unicode="&#xd7;" horiz-adv-x="572" 
d="M414 129l-136.998 136.001h18l-132 -131c-8 0 -15.5 2.5 -22.5 7.5s-12.167 11.5 -15.5 19.5l137 138v-18l-132 132c0 7.33301 2.5 14.666 7.5 21.999s11.833 12.333 20.5 15l137 -136h-18l132 131c7.33301 0 14.666 -2.5 21.999 -7.5s12.666 -11.5 15.999 -19.5
l-137 -137v18l132 -132c0 -8 -2.5 -15.5 -7.5 -22.5s-11.833 -12.167 -20.5 -15.5z" />
    <glyph glyph-name="Oslash" unicode="&#xd8;" horiz-adv-x="731" 
d="M346 -12c-57.333 0 -107.833 13.5 -151.5 40.5s-77.667 63.833 -102 110.5s-36.5 99.334 -36.5 158.001c0 51.333 8.5 98.666 25.5 141.999s40.667 81.166 71 113.499s65.5 57.5 105.5 75.5s82.667 27 128 27c57.333 0 107.833 -13.5 151.5 -40.5
s77.667 -63.667 102 -110s36.5 -98.833 36.5 -157.5c0 -49.333 -8.16699 -95.666 -24.5 -138.999s-39.5 -81.5 -69.5 -114.5s-65 -58.833 -105 -77.5s-83.667 -28 -131 -28zM375 39c41.333 0 77.666 11.668 108.999 35.001s55.833 55.333 73.5 96s26.5 87 26.5 139
c0 91.333 -20.167 163.166 -60.5 215.499s-96.166 78.5 -167.499 78.5c-38 0 -73 -11 -105 -33s-57.5 -53.167 -76.5 -93.5s-28.5 -87.833 -28.5 -142.5c0 -91.333 20.333 -163.333 61 -216s96.667 -79 168 -79zM194 -116.999c-8.66699 0 -17.167 1.5 -25.5 4.5
s-14.5 7.5 -18.5 13.5l387 858c8.66699 0 17 -1.5 25 -4.5s14.333 -7.5 19 -13.5z" />
    <glyph glyph-name="Ugrave" unicode="&#xd9;" horiz-adv-x="705" 
d="M368 -12c-62 0 -112.001 9.33496 -150.001 28.002s-65.833 44.667 -83.5 78s-26.5 72.333 -26.5 117v391l17 -17l-85 19c0 9.33301 1.33301 16.666 4 21.999s7.66699 10.333 15 15h202c0 -10.667 -1.33301 -19 -4 -25s-6.66699 -9.66699 -12 -11l-71 -18l16 17v-384
c0 -43.333 8 -78.833 24 -106.5s37.5 -48 64.5 -61s56.833 -19.5 89.5 -19.5c38.667 0 72 6.16699 100 18.5s49.667 32.5 65 60.5s23 64.667 23 110v386l7 -21l-80 17c0 9.33301 1.33301 16.666 4 21.999s7.33398 10.333 14.001 15h166c0 -10.667 -1.33301 -19 -4 -25
s-6.66699 -9.66699 -12 -11l-59 -16l10 24v-399c0 -42.667 -8.33301 -81.167 -25 -115.5s-42.167 -61.333 -76.5 -81s-78.5 -29.5 -132.5 -29.5zM469.999 734.002l-120.5 37.5c-29 9 -50 16 -63 21s-21.167 9.33301 -24.5 13s-5 7.5 -5 11.5c0 12 3.33301 23.167 10 33.5
s14.667 15.5 24 15.5c4 0 9.16699 -1.33301 15.5 -4s16.166 -7.5 29.499 -14.5s32 -17.5 56 -31.5l93 -54c0 -6.66699 -1.16699 -13 -3.5 -19s-6.16602 -9 -11.499 -9z" />
    <glyph glyph-name="Uacute" unicode="&#xda;" horiz-adv-x="705" 
d="M368 -12c-62 0 -112.001 9.33496 -150.001 28.002s-65.833 44.667 -83.5 78s-26.5 72.333 -26.5 117v391l17 -17l-85 19c0 9.33301 1.33301 16.666 4 21.999s7.66699 10.333 15 15h202c0 -10.667 -1.33301 -19 -4 -25s-6.66699 -9.66699 -12 -11l-71 -18l16 17v-384
c0 -43.333 8 -78.833 24 -106.5s37.5 -48 64.5 -61s56.833 -19.5 89.5 -19.5c38.667 0 72 6.16699 100 18.5s49.667 32.5 65 60.5s23 64.667 23 110v386l7 -21l-80 17c0 9.33301 1.33301 16.666 4 21.999s7.33398 10.333 14.001 15h166c0 -10.667 -1.33301 -19 -4 -25
s-6.66699 -9.66699 -12 -11l-59 -16l10 24v-399c0 -42.667 -8.33301 -81.167 -25 -115.5s-42.167 -61.333 -76.5 -81s-78.5 -29.5 -132.5 -29.5zM272.999 734.002c-6 0 -10.165 3 -12.498 9s-3.5 12.333 -3.5 19l93 54c24 14 42.667 24.5 56 31.5s23.166 11.833 29.499 14.5
s11.166 4 14.499 4c10 0 18.333 -5.16699 25 -15.5s10 -21.5 10 -33.5c0 -4 -1.66699 -7.83301 -5 -11.5s-11.5 -8 -24.5 -13s-33.833 -12 -62.5 -21z" />
    <glyph glyph-name="Ucircumflex" unicode="&#xdb;" horiz-adv-x="705" 
d="M368 -12c-62 0 -112.001 9.33496 -150.001 28.002s-65.833 44.667 -83.5 78s-26.5 72.333 -26.5 117v391l17 -17l-85 19c0 9.33301 1.33301 16.666 4 21.999s7.66699 10.333 15 15h202c0 -10.667 -1.33301 -19 -4 -25s-6.66699 -9.66699 -12 -11l-71 -18l16 17v-384
c0 -43.333 8 -78.833 24 -106.5s37.5 -48 64.5 -61s56.833 -19.5 89.5 -19.5c38.667 0 72 6.16699 100 18.5s49.667 32.5 65 60.5s23 64.667 23 110v386l7 -21l-80 17c0 9.33301 1.33301 16.666 4 21.999s7.33398 10.333 14.001 15h166c0 -10.667 -1.33301 -19 -4 -25
s-6.66699 -9.66699 -12 -11l-59 -16l10 24v-399c0 -42.667 -8.33301 -81.167 -25 -115.5s-42.167 -61.333 -76.5 -81s-78.5 -29.5 -132.5 -29.5zM370.999 879.002c7.33301 0 14.165 -1.66699 20.498 -5s14.333 -9.83301 24 -19.5s22.334 -24.167 38.001 -43.5l62.5 -77
c0 -6 -1.83301 -11 -5.5 -15s-9.16699 -6 -16.5 -6l-135 107h22l-135 -107c-6.66699 0 -12 2 -16 6s-6 9 -6 15l63 77c16 19.333 28.833 33.833 38.5 43.5s17.834 16.167 24.501 19.5s13.667 5 21 5z" />
    <glyph glyph-name="Udieresis" unicode="&#xdc;" horiz-adv-x="705" 
d="M368 -12c-62 0 -112.001 9.33496 -150.001 28.002s-65.833 44.667 -83.5 78s-26.5 72.333 -26.5 117v391l17 -17l-85 19c0 9.33301 1.33301 16.666 4 21.999s7.66699 10.333 15 15h202c0 -10.667 -1.33301 -19 -4 -25s-6.66699 -9.66699 -12 -11l-71 -18l16 17v-384
c0 -43.333 8 -78.833 24 -106.5s37.5 -48 64.5 -61s56.833 -19.5 89.5 -19.5c38.667 0 72 6.16699 100 18.5s49.667 32.5 65 60.5s23 64.667 23 110v386l7 -21l-80 17c0 9.33301 1.33301 16.666 4 21.999s7.33398 10.333 14.001 15h166c0 -10.667 -1.33301 -19 -4 -25
s-6.66699 -9.66699 -12 -11l-59 -16l10 24v-399c0 -42.667 -8.33301 -81.167 -25 -115.5s-42.167 -61.333 -76.5 -81s-78.5 -29.5 -132.5 -29.5zM458.999 752.002c-16.667 0 -28.833 4.5 -36.5 13.5s-11.5 20.5 -11.5 34.5c0 9.33301 2.33301 17.5 7 24.5
s10.834 12.667 18.501 17s15.167 6.5 22.5 6.5c16.667 0 29 -4.33301 37 -13s12 -20.334 12 -35.001c0 -8.66699 -2.33301 -16.667 -7 -24s-10.834 -13.166 -18.501 -17.499s-15.5 -6.5 -23.5 -6.5zM281 752.002c-16 0 -28.001 4.5 -36.001 13.5s-12 20.5 -12 34.5
c0 9.33301 2.33301 17.5 7 24.5s10.834 12.667 18.501 17s15.167 6.5 22.5 6.5c16 0 28.167 -4.33301 36.5 -13s12.5 -20.334 12.5 -35.001c0 -8.66699 -2.33301 -16.667 -7 -24s-10.667 -13.166 -18 -17.499s-15.333 -6.5 -24 -6.5z" />
    <glyph glyph-name="Yacute" unicode="&#xdd;" horiz-adv-x="605" 
d="M317 176l-259.999 429.002l29 -20l-83 19c0 9.33301 1.33301 16.666 4 21.999s7.66699 10.333 15 15h206c0 -10.667 -1.33301 -19 -4 -25s-6.66699 -9.66699 -12 -11l-76 -18l13 23l198 -327l-30 -3l168 326l8 -19l-82 17c0 9.33301 1.16699 16.666 3.5 21.999
s7.16602 10.333 14.499 15h173c0 -10.667 -1.33301 -19 -4 -25s-6.66699 -9.66699 -12 -11l-65 -16l18 22zM197.001 0.00195312c0 10.667 1.5 18.999 4.5 24.999s6.83301 9.66699 11.5 11l74 18l-16 -23v244h82v-239l-17 20l94 -19c0 -8.66699 -1 -15.667 -3 -21
s-6.66699 -10.666 -14 -15.999h-216zM224.001 734.001c-6 0 -10.165 3 -12.498 9s-3.5 12.333 -3.5 19l93 54c24 14 42.667 24.5 56 31.5s23.166 11.833 29.499 14.5s11.166 4 14.499 4c10 0 18.333 -5.16699 25 -15.5s10 -21.5 10 -33.5c0 -4 -1.66699 -7.83301 -5 -11.5
s-11.5 -8 -24.5 -13s-33.833 -12 -62.5 -21z" />
    <glyph glyph-name="Thorn" unicode="&#xde;" horiz-adv-x="555" 
d="M67 0c0 10.667 1.49805 18.999 4.49805 24.999s6.83301 9.66699 11.5 11l67 18l-15 -16v564l16 -17l-84 19c0 9.33301 1.33301 16.666 4 21.999s7.33398 10.333 14.001 15h202c0 -10.667 -1.33301 -19 -4 -25s-6.66699 -9.66699 -12 -11l-71 -18l17 17v-102l-15 15h136
c46 0 84 -8.16699 114 -24.5s52.333 -37.666 67 -63.999s22 -54.5 22 -84.5c0 -34.667 -9.16699 -68.167 -27.5 -100.5s-45 -58.833 -80 -79.5s-77.833 -31 -128.5 -31c-15.333 0 -32 1 -50 3s-33.667 4.66699 -47 8l9 8v-119l-18 23l98 -19
c0 -8.66699 -1.16699 -15.667 -3.5 -21s-7.16602 -10.666 -14.499 -15.999h-212zM216.998 176.999l-4.99805 13.001c12 -3.33301 26.333 -5.66602 43 -6.99902s33.334 -2 50.001 -2c33.333 0 60.666 7.16699 81.999 21.5s37.333 32.666 48 54.999s16 45.833 16 70.5
c0 43.333 -12.333 78.166 -37 104.499s-58.334 39.5 -101.001 39.5c-20.667 0 -39.834 -1 -57.501 -3s-33.167 -5 -46.5 -9l8 10v-293z" />
    <glyph glyph-name="germandbls" unicode="&#xdf;" horiz-adv-x="669" 
d="M454 -12c-31.333 0 -59.3359 4.83105 -84.0029 14.498s-44 22.667 -58 39s-21 34.166 -21 53.499c0 15.333 4.16699 26.666 12.5 33.999s18.166 11 29.499 11c6.66699 0 13.334 -1.16699 20.001 -3.5s12 -6.16602 16 -11.499c0 -35.333 8.16699 -62 24.5 -80
s40.5 -27 72.5 -27c28 0 50.833 7.33301 68.5 22s26.5 35.334 26.5 62.001c0 20.667 -5.66699 37.334 -17 50.001s-26 23 -44 31s-37.333 15.667 -58 23c-21.333 8 -42.333 17.333 -63 28s-37.667 24.5 -51 41.5s-20 38.167 -20 63.5c0 24 5.66699 43.5 17 58.5
s25.5 27.833 42.5 38.5l51 32.5c17 11 31.167 24.5 42.5 40.5s17 37 17 63c0 38 -10.833 67.833 -32.5 89.5s-50.5 32.5 -86.5 32.5c-35.333 0 -64.333 -8 -87 -24s-39.167 -41.333 -49.5 -76s-15.5 -79.667 -15.5 -135v-459h-143c0 20 5.33301 32 16 36l57 19l-11 -14v373
l14 -14l-90 1c0 9.33301 1.16699 17.833 3.5 25.5s5.83301 13.167 10.5 16.5l79 2l-17 -14c0 64.667 10.333 119.5 31 164.5s49.334 79.333 86.001 103s78.667 35.5 126 35.5c40 0 74 -6.66699 102 -20s49.5 -31.166 64.5 -53.499s22.5 -47.166 22.5 -74.499
c0 -30 -6 -53.833 -18 -71.5s-26.833 -31.834 -44.5 -42.501s-35.5 -20.167 -53.5 -28.5s-33 -18.333 -45 -30s-18 -27.834 -18 -48.501c0 -17.333 5 -31.5 15 -42.5s23 -20.167 39 -27.5s33.333 -14.666 52 -21.999c23.333 -8.66699 46.5 -18.667 69.5 -30
s42.167 -25.833 57.5 -43.5s23 -41.167 23 -70.5c0 -28.667 -7.66699 -53.5 -23 -74.5s-36.666 -37.333 -63.999 -49s-58.666 -17.5 -93.999 -17.5z" />
    <glyph glyph-name="agrave" unicode="&#xe0;" horiz-adv-x="486" 
d="M151 -12c-31.333 0 -57.332 9.16699 -77.999 27.5s-31 42.833 -31 73.5c0 38 12.167 69 36.5 93s60.833 41.667 109.5 53l131 30l-13 -11v75c0 35.333 -6 61.166 -18 77.499s-30.667 24.5 -56 24.5c-30.667 0 -54.334 -9.16699 -71.001 -27.5s-25 -44.833 -25 -79.5
c-3.33301 -3.33301 -8 -6 -14 -8s-12 -3 -18 -3c-11.333 0 -20.333 3.33301 -27 10s-10 15.667 -10 27c0 22 7.66699 41.333 23 58s36.5 29.834 63.5 39.501s57.167 14.5 90.5 14.5c49.333 0 85.5 -12.333 108.5 -37s34.5 -64 34.5 -118v-235c0 -11.333 2.33301 -20 7 -26
s11.334 -9 20.001 -9c7.33301 0 15.5 2 24.5 6s16.5 8.33301 22.5 13l7 -27c-10.667 -12.667 -24.334 -22.667 -41.001 -30s-32.667 -11 -48 -11c-21.333 0 -38 6.83301 -50 20.5s-18 33.167 -18 58.5h-4c-18.667 -25.333 -41.667 -44.833 -69 -58.5
s-56.333 -20.5 -87 -20.5zM189.001 35c24 0 47 6 69 18s40.333 28.667 55 50l-6 -17v150l13 -2l-114 -27c-28.667 -6.66699 -50.5 -18.167 -65.5 -34.5s-22.5 -36.833 -22.5 -61.5c0 -23.333 6.33301 -41.833 19 -55.5s30 -20.5 52 -20.5zM313.001 515l-104.5 65.5
c-25 15.667 -43.167 27.5 -54.5 35.5s-18.333 13.667 -21 17s-4 6.66602 -4 9.99902c0 7.33301 2 14.5 6 21.5s9 12.833 15 17.5s12.333 7 19 7c4 0 8.16699 -1.16699 12.5 -3.5s11.5 -8 21.5 -17s25.333 -23.833 46 -44.5l86 -85c0 -7.33301 -2.33301 -13.166 -7 -17.499
s-9.66699 -6.5 -15 -6.5z" />
    <glyph glyph-name="aacute" unicode="&#xe1;" horiz-adv-x="486" 
d="M151 -12c-31.333 0 -57.332 9.16699 -77.999 27.5s-31 42.833 -31 73.5c0 38 12.167 69 36.5 93s60.833 41.667 109.5 53l131 30l-13 -11v75c0 35.333 -6 61.166 -18 77.499s-30.667 24.5 -56 24.5c-30.667 0 -54.334 -9.16699 -71.001 -27.5s-25 -44.833 -25 -79.5
c-3.33301 -3.33301 -8 -6 -14 -8s-12 -3 -18 -3c-11.333 0 -20.333 3.33301 -27 10s-10 15.667 -10 27c0 22 7.66699 41.333 23 58s36.5 29.834 63.5 39.501s57.167 14.5 90.5 14.5c49.333 0 85.5 -12.333 108.5 -37s34.5 -64 34.5 -118v-235c0 -11.333 2.33301 -20 7 -26
s11.334 -9 20.001 -9c7.33301 0 15.5 2 24.5 6s16.5 8.33301 22.5 13l7 -27c-10.667 -12.667 -24.334 -22.667 -41.001 -30s-32.667 -11 -48 -11c-21.333 0 -38 6.83301 -50 20.5s-18 33.167 -18 58.5h-4c-18.667 -25.333 -41.667 -44.833 -69 -58.5
s-56.333 -20.5 -87 -20.5zM189.001 35c24 0 47 6 69 18s40.333 28.667 55 50l-6 -17v150l13 -2l-114 -27c-28.667 -6.66699 -50.5 -18.167 -65.5 -34.5s-22.5 -36.833 -22.5 -61.5c0 -23.333 6.33301 -41.833 19 -55.5s30 -20.5 52 -20.5zM151.001 515
c-5.33301 0 -10.333 2.16699 -15 6.5s-7 10.166 -7 17.499l86 85c20.667 20.667 36 35.5 46 44.5s17.167 14.667 21.5 17s8.5 3.5 12.5 3.5c6.66699 0 13 -2.33301 19 -7s11 -10.5 15 -17.5s6 -14.167 6 -21.5c0 -3.33301 -1.33301 -6.66602 -4 -9.99902
s-9.66699 -9 -21 -17s-29.5 -19.833 -54.5 -35.5z" />
    <glyph glyph-name="acircumflex" unicode="&#xe2;" horiz-adv-x="486" 
d="M151 -12c-31.333 0 -57.332 9.16699 -77.999 27.5s-31 42.833 -31 73.5c0 38 12.167 69 36.5 93s60.833 41.667 109.5 53l131 30l-13 -11v75c0 35.333 -6 61.166 -18 77.499s-30.667 24.5 -56 24.5c-30.667 0 -54.334 -9.16699 -71.001 -27.5s-25 -44.833 -25 -79.5
c-3.33301 -3.33301 -8 -6 -14 -8s-12 -3 -18 -3c-11.333 0 -20.333 3.33301 -27 10s-10 15.667 -10 27c0 22 7.66699 41.333 23 58s36.5 29.834 63.5 39.501s57.167 14.5 90.5 14.5c49.333 0 85.5 -12.333 108.5 -37s34.5 -64 34.5 -118v-235c0 -11.333 2.33301 -20 7 -26
s11.334 -9 20.001 -9c7.33301 0 15.5 2 24.5 6s16.5 8.33301 22.5 13l7 -27c-10.667 -12.667 -24.334 -22.667 -41.001 -30s-32.667 -11 -48 -11c-21.333 0 -38 6.83301 -50 20.5s-18 33.167 -18 58.5h-4c-18.667 -25.333 -41.667 -44.833 -69 -58.5
s-56.333 -20.5 -87 -20.5zM189.001 35c24 0 47 6 69 18s40.333 28.667 55 50l-6 -17v150l13 -2l-114 -27c-28.667 -6.66699 -50.5 -18.167 -65.5 -34.5s-22.5 -36.833 -22.5 -61.5c0 -23.333 6.33301 -41.833 19 -55.5s30 -20.5 52 -20.5zM231.001 693
c4.66699 0 9.50293 -1.5 14.5029 -4.5s12.333 -9.66699 22 -20s23 -26.333 40 -48l68.5 -89.5c0 -6 -1.83301 -10.833 -5.5 -14.5s-9.16699 -5.5 -16.5 -5.5l-76.5 68.5l-46.5 43.5l-48 -43.5l-77 -68.5c-6.66699 0 -12 1.83301 -16 5.5s-6 8.5 -6 14.5l69 89.5
c17.333 21.667 30.666 37.667 39.999 48s16.666 17 21.999 20s10.666 4.5 15.999 4.5z" />
    <glyph glyph-name="atilde" unicode="&#xe3;" horiz-adv-x="486" 
d="M151 -12c-31.333 0 -57.332 9.16699 -77.999 27.5s-31 42.833 -31 73.5c0 38 12.167 69 36.5 93s60.833 41.667 109.5 53l131 30l-13 -11v75c0 35.333 -6 61.166 -18 77.499s-30.667 24.5 -56 24.5c-30.667 0 -54.334 -9.16699 -71.001 -27.5s-25 -44.833 -25 -79.5
c-3.33301 -3.33301 -8 -6 -14 -8s-12 -3 -18 -3c-11.333 0 -20.333 3.33301 -27 10s-10 15.667 -10 27c0 22 7.66699 41.333 23 58s36.5 29.834 63.5 39.501s57.167 14.5 90.5 14.5c49.333 0 85.5 -12.333 108.5 -37s34.5 -64 34.5 -118v-235c0 -11.333 2.33301 -20 7 -26
s11.334 -9 20.001 -9c7.33301 0 15.5 2 24.5 6s16.5 8.33301 22.5 13l7 -27c-10.667 -12.667 -24.334 -22.667 -41.001 -30s-32.667 -11 -48 -11c-21.333 0 -38 6.83301 -50 20.5s-18 33.167 -18 58.5h-4c-18.667 -25.333 -41.667 -44.833 -69 -58.5
s-56.333 -20.5 -87 -20.5zM189.001 35c24 0 47 6 69 18s40.333 28.667 55 50l-6 -17v150l13 -2l-114 -27c-28.667 -6.66699 -50.5 -18.167 -65.5 -34.5s-22.5 -36.833 -22.5 -61.5c0 -23.333 6.33301 -41.833 19 -55.5s30 -20.5 52 -20.5zM158.001 595
c-14.667 0 -27.3311 -5.33301 -37.998 -16s-16 -24.667 -16 -42c-10.667 0 -18.5 1.33301 -23.5 4s-7.5 6.66699 -7.5 12c0 18.667 4.16699 35.834 12.5 51.501s19.166 28.167 32.499 37.5s28 14 44 14c17.333 0 33.833 -3.83301 49.5 -11.5l46.5 -23.5
c15.333 -8 30.666 -12 45.999 -12s28.166 5.5 38.499 16.5s15.5 24.833 15.5 41.5c10.667 0 18.334 -1.16699 23.001 -3.5s7 -6.16602 7 -11.499c0 -18.667 -4 -35.834 -12 -51.501s-18.667 -28.334 -32 -38.001s-28.333 -14.5 -45 -14.5s-32.667 4 -48 12l-46 23.5
c-15.333 7.66699 -31 11.5 -47 11.5z" />
    <glyph glyph-name="adieresis" unicode="&#xe4;" horiz-adv-x="486" 
d="M151 -12c-31.333 0 -57.332 9.16699 -77.999 27.5s-31 42.833 -31 73.5c0 38 12.167 69 36.5 93s60.833 41.667 109.5 53l131 30l-13 -11v75c0 35.333 -6 61.166 -18 77.499s-30.667 24.5 -56 24.5c-30.667 0 -54.334 -9.16699 -71.001 -27.5s-25 -44.833 -25 -79.5
c-3.33301 -3.33301 -8 -6 -14 -8s-12 -3 -18 -3c-11.333 0 -20.333 3.33301 -27 10s-10 15.667 -10 27c0 22 7.66699 41.333 23 58s36.5 29.834 63.5 39.501s57.167 14.5 90.5 14.5c49.333 0 85.5 -12.333 108.5 -37s34.5 -64 34.5 -118v-235c0 -11.333 2.33301 -20 7 -26
s11.334 -9 20.001 -9c7.33301 0 15.5 2 24.5 6s16.5 8.33301 22.5 13l7 -27c-10.667 -12.667 -24.334 -22.667 -41.001 -30s-32.667 -11 -48 -11c-21.333 0 -38 6.83301 -50 20.5s-18 33.167 -18 58.5h-4c-18.667 -25.333 -41.667 -44.833 -69 -58.5
s-56.333 -20.5 -87 -20.5zM189.001 35c24 0 47 6 69 18s40.333 28.667 55 50l-6 -17v150l13 -2l-114 -27c-28.667 -6.66699 -50.5 -18.167 -65.5 -34.5s-22.5 -36.833 -22.5 -61.5c0 -23.333 6.33301 -41.833 19 -55.5s30 -20.5 52 -20.5zM319.001 554
c-16.667 0 -28.833 4.5 -36.5 13.5s-11.5 20.5 -11.5 34.5c0 9.33301 2.33301 17.5 7 24.5s10.834 12.667 18.501 17s15.167 6.5 22.5 6.5c16.667 0 29 -4.33301 37 -13s12 -20.334 12 -35.001c0 -8.66699 -2.33301 -16.667 -7 -24s-10.834 -13.166 -18.501 -17.499
s-15.5 -6.5 -23.5 -6.5zM141.002 554c-16 0 -28.001 4.5 -36.001 13.5s-12 20.5 -12 34.5c0 9.33301 2.33301 17.5 7 24.5s10.834 12.667 18.501 17s15.167 6.5 22.5 6.5c16 0 28.167 -4.33301 36.5 -13s12.5 -20.334 12.5 -35.001c0 -8.66699 -2.33301 -16.667 -7 -24
s-10.667 -13.166 -18 -17.499s-15.333 -6.5 -24 -6.5z" />
    <glyph glyph-name="aring" unicode="&#xe5;" horiz-adv-x="486" 
d="M151 -12c-31.333 0 -57.332 9.16699 -77.999 27.5s-31 42.833 -31 73.5c0 38 12.167 69 36.5 93s60.833 41.667 109.5 53l131 30l-13 -11v75c0 35.333 -6 61.166 -18 77.499s-30.667 24.5 -56 24.5c-30.667 0 -54.334 -9.16699 -71.001 -27.5s-25 -44.833 -25 -79.5
c-3.33301 -3.33301 -8 -6 -14 -8s-12 -3 -18 -3c-11.333 0 -20.333 3.33301 -27 10s-10 15.667 -10 27c0 22 7.66699 41.333 23 58s36.5 29.834 63.5 39.501s57.167 14.5 90.5 14.5c49.333 0 85.5 -12.333 108.5 -37s34.5 -64 34.5 -118v-235c0 -11.333 2.33301 -20 7 -26
s11.334 -9 20.001 -9c7.33301 0 15.5 2 24.5 6s16.5 8.33301 22.5 13l7 -27c-10.667 -12.667 -24.334 -22.667 -41.001 -30s-32.667 -11 -48 -11c-21.333 0 -38 6.83301 -50 20.5s-18 33.167 -18 58.5h-4c-18.667 -25.333 -41.667 -44.833 -69 -58.5
s-56.333 -20.5 -87 -20.5zM189.001 35c24 0 47 6 69 18s40.333 28.667 55 50l-6 -17v150l13 -2l-114 -27c-28.667 -6.66699 -50.5 -18.167 -65.5 -34.5s-22.5 -36.833 -22.5 -61.5c0 -23.333 6.33301 -41.833 19 -55.5s30 -20.5 52 -20.5zM224.001 494
c-30.667 0 -55.999 9.33105 -75.999 27.998s-30 42.334 -30 71.001c0 22.667 5.16699 42.834 15.5 60.501s24.166 31.5 41.499 41.5s37 15 59 15c32.667 0 59 -9.5 79 -28.5s30 -44.167 30 -75.5c0 -32.667 -11 -59.5 -33 -80.5s-50.667 -31.5 -86 -31.5zM232.002 524.998
c16 0.666992 28.499 7.66895 37.499 21.002s13.5 31.333 13.5 54c0 23.333 -5 42.166 -15 56.499s-23 21.833 -39 22.5c-16 -0.666992 -28.5 -7.5 -37.5 -20.5s-13.5 -31.5 -13.5 -55.5s4.83301 -42.833 14.5 -56.5s22.834 -20.834 39.501 -21.501z" />
    <glyph glyph-name="ae" unicode="&#xe6;" horiz-adv-x="732" 
d="M151 -12c-31.333 0 -57.166 9.16895 -77.499 27.502s-30.5 43.166 -30.5 74.499c0 37.333 12 68 36 92s60.333 41.667 109 53l118 28l2 46c2 45.333 -3.83301 77 -17.5 95s-33.167 27 -58.5 27c-30 0 -53.5 -9.16699 -70.5 -27.5s-25.5 -44.833 -25.5 -79.5
c-3.33301 -4 -8 -6.83301 -14 -8.5s-12 -2.5 -18 -2.5c-11.333 0 -20.333 3.16699 -27 9.5s-10 15.833 -10 28.5c0 21.333 7.66699 40.333 23 57s36.5 29.834 63.5 39.501s57.167 14.5 90.5 14.5c34 0 60.833 -7 80.5 -21s33.167 -37 40.5 -69
c18.667 27.333 41.834 49.166 69.501 65.499s56.834 24.5 87.501 24.5c34.667 0 65 -7.83301 91 -23.5s46.167 -37.667 60.5 -66s21.5 -62.166 21.5 -101.499c0 -10.667 -2.33301 -17.834 -7 -21.501s-9.66699 -5.5 -15 -5.5h-284c0 -40.667 5.33301 -76.834 16 -108.501
s27.167 -56.5 49.5 -74.5s50.5 -27 84.5 -27c26.667 0 52.334 6.83301 77.001 20.5s46.667 32.834 66 57.501l13 -25c-14 -20 -31.333 -37.5 -52 -52.5s-42.834 -26.5 -66.501 -34.5s-48.167 -12 -73.5 -12c-40.667 0 -75.834 9 -105.501 27s-52.5 43 -68.5 75
c-22.667 -32.667 -49.334 -57.834 -80.001 -75.501s-63.334 -26.5 -98.001 -26.5zM190 35.002c24.667 0 48.166 6.5 70.499 19.5s41.833 31.5 58.5 55.5c-7.33301 17.333 -11.833 36.833 -13.5 58.5s-2.16699 42.167 -1.5 61.5l-97 -23
c-28.667 -6.66699 -50.667 -18.167 -66 -34.5s-23 -36.833 -23 -61.5c0 -24 6.33301 -42.667 19 -56s30.334 -20 53.001 -20zM388.999 276.002l230 6c0 44 -9.83301 79.333 -29.5 106s-45.5 40 -77.5 40s-59 -13.167 -81 -39.5s-36 -63.833 -42 -112.5z" />
    <glyph glyph-name="ccedilla" unicode="&#xe7;" horiz-adv-x="464" 
d="M240 -12c-41.333 0 -77.501 9 -108.501 27s-54.833 43.333 -71.5 76s-25 71.334 -25 116.001c0 50 9.83301 94.167 29.5 132.5s46.834 68.333 81.501 90s74 32.5 118 32.5c30 0 57.333 -4.83301 82 -14.5s44.167 -22.834 58.5 -39.501s21.5 -35 21.5 -55
c0 -13.333 -3.83301 -23.833 -11.5 -31.5s-18.167 -11.5 -31.5 -11.5c-6 0 -11.667 0.833008 -17 2.5s-10.666 3.83398 -15.999 6.50098c0 35.333 -8.16699 62.333 -24.5 81s-40.166 28 -71.499 28c-42.667 0 -75.334 -16.833 -98.001 -50.5s-34 -81.834 -34 -144.501
c0 -65.333 12.5 -114.833 37.5 -148.5s62.167 -50.5 111.5 -50.5c26.667 0 52.5 5.5 77.5 16.5s47.833 26.833 68.5 47.5l13 -24c-14 -17.333 -31.167 -32.5 -51.5 -45.5s-42.333 -23 -66 -30s-47.834 -10.5 -72.501 -10.5zM252.999 -259
c-32 0 -58.334 7.99609 -79.001 23.9961s-31 36.333 -31 61c0 8 2 14.167 6 18.5s10 6.5 18 6.5c10.667 0 20.334 -3.33301 29.001 -10c0 -27.333 4.83301 -47.5 14.5 -60.5s25.834 -19.5 48.501 -19.5c19.333 0 35 6.33301 47 19s18 29.667 18 51
c0 26.667 -8 45.334 -24 56.001s-35.333 16 -58 16c-6 0 -11.167 -0.166992 -15.5 -0.5s-7.83301 -1.16602 -10.5 -2.49902l27 100h23l-23 -84l-11 8c6 1.33301 12 2.33301 18 3s12 1 18 1c18 0 35.167 -3.16699 51.5 -9.5s29.666 -16.166 39.999 -29.499
s15.5 -30.666 15.5 -51.999c0 -14.667 -4.5 -29.5 -13.5 -44.5s-22.5 -27.333 -40.5 -37s-40.667 -14.5 -68 -14.5z" />
    <glyph glyph-name="egrave" unicode="&#xe8;" horiz-adv-x="468" 
d="M237 -12c-40.667 0 -76.1699 9.16406 -106.503 27.4971s-53.833 43.833 -70.5 76.5s-25 70.334 -25 113.001c0 48.667 10.167 92.334 30.5 131.001s47.5 69.334 81.5 92.001s71 34 111 34c34.667 0 64.834 -7.83301 90.501 -23.5s45.834 -37.5 60.501 -65.5
s22 -60.333 22 -97c0 -12.667 -2.33301 -21.167 -7 -25.5s-10 -6.5 -16 -6.5h-315v31l272 7l-11 -11c1.33301 32 -2.5 59.667 -11.5 83s-21.667 41.5 -38 54.5s-35.5 19.5 -57.5 19.5c-36.667 0 -66.667 -17 -90 -51s-35 -82 -35 -144c0 -40 5.83301 -74.833 17.5 -104.5
s28.834 -52.834 51.501 -69.501s50 -25 82 -25c26.667 0 52.334 6.83301 77.001 20.5s46.667 32.834 66 57.501l13 -25c-14 -20 -31.333 -37.5 -52 -52.5s-42.834 -26.5 -66.501 -34.5s-48.167 -12 -73.5 -12zM326.997 514.997l-104.5 65.5
c-25 15.667 -43.167 27.5 -54.5 35.5s-18.333 13.667 -21 17s-4 6.66602 -4 9.99902c0 7.33301 2 14.5 6 21.5s9 12.833 15 17.5s12.333 7 19 7c4 0 8.16699 -1.16699 12.5 -3.5s11.5 -8 21.5 -17s25.333 -23.833 46 -44.5l86 -85c0 -7.33301 -2.33301 -13.166 -7 -17.499
s-9.66699 -6.5 -15 -6.5z" />
    <glyph glyph-name="eacute" unicode="&#xe9;" horiz-adv-x="468" 
d="M237 -12c-40.667 0 -76.1699 9.16406 -106.503 27.4971s-53.833 43.833 -70.5 76.5s-25 70.334 -25 113.001c0 48.667 10.167 92.334 30.5 131.001s47.5 69.334 81.5 92.001s71 34 111 34c34.667 0 64.834 -7.83301 90.501 -23.5s45.834 -37.5 60.501 -65.5
s22 -60.333 22 -97c0 -12.667 -2.33301 -21.167 -7 -25.5s-10 -6.5 -16 -6.5h-315v31l272 7l-11 -11c1.33301 32 -2.5 59.667 -11.5 83s-21.667 41.5 -38 54.5s-35.5 19.5 -57.5 19.5c-36.667 0 -66.667 -17 -90 -51s-35 -82 -35 -144c0 -40 5.83301 -74.833 17.5 -104.5
s28.834 -52.834 51.501 -69.501s50 -25 82 -25c26.667 0 52.334 6.83301 77.001 20.5s46.667 32.834 66 57.501l13 -25c-14 -20 -31.333 -37.5 -52 -52.5s-42.834 -26.5 -66.501 -34.5s-48.167 -12 -73.5 -12zM164.997 514.997c-5.33301 0 -10.333 2.16699 -15 6.5
s-7 10.166 -7 17.499l86 85c20.667 20.667 36 35.5 46 44.5s17.167 14.667 21.5 17s8.5 3.5 12.5 3.5c6.66699 0 13 -2.33301 19 -7s11 -10.5 15 -17.5s6 -14.167 6 -21.5c0 -3.33301 -1.33301 -6.66602 -4 -9.99902s-9.66699 -9 -21 -17s-29.5 -19.833 -54.5 -35.5z" />
    <glyph glyph-name="ecircumflex" unicode="&#xea;" horiz-adv-x="468" 
d="M237 -12c-40.667 0 -76.1699 9.16406 -106.503 27.4971s-53.833 43.833 -70.5 76.5s-25 70.334 -25 113.001c0 48.667 10.167 92.334 30.5 131.001s47.5 69.334 81.5 92.001s71 34 111 34c34.667 0 64.834 -7.83301 90.501 -23.5s45.834 -37.5 60.501 -65.5
s22 -60.333 22 -97c0 -12.667 -2.33301 -21.167 -7 -25.5s-10 -6.5 -16 -6.5h-315v31l272 7l-11 -11c1.33301 32 -2.5 59.667 -11.5 83s-21.667 41.5 -38 54.5s-35.5 19.5 -57.5 19.5c-36.667 0 -66.667 -17 -90 -51s-35 -82 -35 -144c0 -40 5.83301 -74.833 17.5 -104.5
s28.834 -52.834 51.501 -69.501s50 -25 82 -25c26.667 0 52.334 6.83301 77.001 20.5s46.667 32.834 66 57.501l13 -25c-14 -20 -31.333 -37.5 -52 -52.5s-42.834 -26.5 -66.501 -34.5s-48.167 -12 -73.5 -12zM244.997 692.997c4.66699 0 9.50293 -1.5 14.5029 -4.5
s12.333 -9.66699 22 -20s23 -26.333 40 -48l68.5 -89.5c0 -6 -1.83301 -10.833 -5.5 -14.5s-9.16699 -5.5 -16.5 -5.5l-76.5 68.5l-46.5 43.5l-48 -43.5l-77 -68.5c-6.66699 0 -12 1.83301 -16 5.5s-6 8.5 -6 14.5l69 89.5c17.333 21.667 30.666 37.667 39.999 48
s16.666 17 21.999 20s10.666 4.5 15.999 4.5z" />
    <glyph glyph-name="edieresis" unicode="&#xeb;" horiz-adv-x="468" 
d="M237 -12c-40.667 0 -76.1699 9.16406 -106.503 27.4971s-53.833 43.833 -70.5 76.5s-25 70.334 -25 113.001c0 48.667 10.167 92.334 30.5 131.001s47.5 69.334 81.5 92.001s71 34 111 34c34.667 0 64.834 -7.83301 90.501 -23.5s45.834 -37.5 60.501 -65.5
s22 -60.333 22 -97c0 -12.667 -2.33301 -21.167 -7 -25.5s-10 -6.5 -16 -6.5h-315v31l272 7l-11 -11c1.33301 32 -2.5 59.667 -11.5 83s-21.667 41.5 -38 54.5s-35.5 19.5 -57.5 19.5c-36.667 0 -66.667 -17 -90 -51s-35 -82 -35 -144c0 -40 5.83301 -74.833 17.5 -104.5
s28.834 -52.834 51.501 -69.501s50 -25 82 -25c26.667 0 52.334 6.83301 77.001 20.5s46.667 32.834 66 57.501l13 -25c-14 -20 -31.333 -37.5 -52 -52.5s-42.834 -26.5 -66.501 -34.5s-48.167 -12 -73.5 -12zM332.997 553.997c-16.667 0 -28.833 4.5 -36.5 13.5
s-11.5 20.5 -11.5 34.5c0 9.33301 2.33301 17.5 7 24.5s10.834 12.667 18.501 17s15.167 6.5 22.5 6.5c16.667 0 29 -4.33301 37 -13s12 -20.334 12 -35.001c0 -8.66699 -2.33301 -16.667 -7 -24s-10.834 -13.166 -18.501 -17.499s-15.5 -6.5 -23.5 -6.5zM154.998 553.997
c-16 0 -28.001 4.5 -36.001 13.5s-12 20.5 -12 34.5c0 9.33301 2.33301 17.5 7 24.5s10.834 12.667 18.501 17s15.167 6.5 22.5 6.5c16 0 28.167 -4.33301 36.5 -13s12.5 -20.334 12.5 -35.001c0 -8.66699 -2.33301 -16.667 -7 -24s-10.667 -13.166 -18 -17.499
s-15.333 -6.5 -24 -6.5z" />
    <glyph glyph-name="igrave" unicode="&#xec;" horiz-adv-x="305" 
d="M50 0c0 21.333 5.33203 33.333 15.999 36l60 19l-11 -14v372l12 -15l-62 11c-10 1.33301 -15 13 -15 35c22.667 3.33301 41.5 5.83301 56.5 7.5s29.833 2.5 44.5 2.5c30.667 0 46 -19 46 -57v-354l-12 13l80 -19c0 -10 -1.16699 -17.5 -3.5 -22.5
s-7.16602 -9.83301 -14.499 -14.5h-197zM233.999 515l-104.5 65.5c-25 15.667 -43.167 27.5 -54.5 35.5s-18.333 13.667 -21 17s-4 6.66602 -4 9.99902c0 7.33301 2 14.5 6 21.5s9 12.833 15 17.5s12.333 7 19 7c4 0 8.16699 -1.16699 12.5 -3.5s11.5 -8 21.5 -17
s25.333 -23.833 46 -44.5l86 -85c0 -7.33301 -2.33301 -13.166 -7 -17.499s-9.66699 -6.5 -15 -6.5z" />
    <glyph glyph-name="iacute" unicode="&#xed;" horiz-adv-x="305" 
d="M50 0c0 21.333 5.33203 33.333 15.999 36l60 19l-11 -14v372l12 -15l-62 11c-10 1.33301 -15 13 -15 35c22.667 3.33301 41.5 5.83301 56.5 7.5s29.833 2.5 44.5 2.5c30.667 0 46 -19 46 -57v-354l-12 13l80 -19c0 -10 -1.16699 -17.5 -3.5 -22.5
s-7.16602 -9.83301 -14.499 -14.5h-197zM71.999 515c-5.33301 0 -10.333 2.16699 -15 6.5s-7 10.166 -7 17.499l86 85c20.667 20.667 36 35.5 46 44.5s17.167 14.667 21.5 17s8.5 3.5 12.5 3.5c6.66699 0 13 -2.33301 19 -7s11 -10.5 15 -17.5s6 -14.167 6 -21.5
c0 -3.33301 -1.33301 -6.66602 -4 -9.99902s-9.66699 -9 -21 -17s-29.5 -19.833 -54.5 -35.5z" />
    <glyph glyph-name="icircumflex" unicode="&#xee;" horiz-adv-x="305" 
d="M50 0c0 21.333 5.33203 33.333 15.999 36l60 19l-11 -14v372l12 -15l-62 11c-10 1.33301 -15 13 -15 35c22.667 3.33301 41.5 5.83301 56.5 7.5s29.833 2.5 44.5 2.5c30.667 0 46 -19 46 -57v-354l-12 13l80 -19c0 -10 -1.16699 -17.5 -3.5 -22.5
s-7.16602 -9.83301 -14.499 -14.5h-197zM151.999 693c4.66699 0 9.50293 -1.5 14.5029 -4.5s12.333 -9.66699 22 -20s23 -26.333 40 -48l68.5 -89.5c0 -6 -1.83301 -10.833 -5.5 -14.5s-9.16699 -5.5 -16.5 -5.5l-76.5 68.5l-46.5 43.5l-48 -43.5l-77 -68.5
c-6.66699 0 -12 1.83301 -16 5.5s-6 8.5 -6 14.5l69 89.5c17.333 21.667 30.666 37.667 39.999 48s16.666 17 21.999 20s10.666 4.5 15.999 4.5z" />
    <glyph glyph-name="idieresis" unicode="&#xef;" horiz-adv-x="305" 
d="M50 0c0 21.333 5.33203 33.333 15.999 36l60 19l-11 -14v372l12 -15l-62 11c-10 1.33301 -15 13 -15 35c22.667 3.33301 41.5 5.83301 56.5 7.5s29.833 2.5 44.5 2.5c30.667 0 46 -19 46 -57v-354l-12 13l80 -19c0 -10 -1.16699 -17.5 -3.5 -22.5
s-7.16602 -9.83301 -14.499 -14.5h-197zM239.999 554c-16.667 0 -28.833 4.5 -36.5 13.5s-11.5 20.5 -11.5 34.5c0 9.33301 2.33301 17.5 7 24.5s10.834 12.667 18.501 17s15.167 6.5 22.5 6.5c16.667 0 29 -4.33301 37 -13s12 -20.334 12 -35.001
c0 -8.66699 -2.33301 -16.667 -7 -24s-10.834 -13.166 -18.501 -17.499s-15.5 -6.5 -23.5 -6.5zM62 554c-16 0 -28.001 4.5 -36.001 13.5s-12 20.5 -12 34.5c0 9.33301 2.33301 17.5 7 24.5s10.834 12.667 18.501 17s15.167 6.5 22.5 6.5c16 0 28.167 -4.33301 36.5 -13
s12.5 -20.334 12.5 -35.001c0 -8.66699 -2.33301 -16.667 -7 -24s-10.667 -13.166 -18 -17.499s-15.333 -6.5 -24 -6.5z" />
    <glyph glyph-name="eth" unicode="&#xf0;" horiz-adv-x="527" 
d="M243 -12c-64 0 -114.664 17.499 -151.997 52.499s-56 82.167 -56 141.5c0 46 10.167 86.667 30.5 122s48.666 62.833 84.999 82.5s78.166 29.5 125.499 29.5c27.333 0 53.166 -5.33301 77.499 -16s44.833 -25 61.5 -43l-15 -5c-3.33301 34 -13.166 67.833 -29.499 101.5
s-38 65.834 -65 96.501s-58.333 58 -94 82s-74.834 43.333 -117.501 58c0 8.66699 2 14.834 6 18.501s11.333 5.5 22 5.5c18 0 40.5 -5.83301 67.5 -17.5s54.833 -27.334 83.5 -47.001s54 -41.5 76 -65.5c45.333 -43.333 80.333 -91.5 105 -144.5s37 -109.167 37 -168.5
c0 -56 -10.5 -105.167 -31.5 -147.5s-50 -75.5 -87 -99.5s-80.167 -36 -129.5 -36zM252.003 20.999c32 0 59.3311 10.666 81.998 31.999s40 51.333 52 90s18 84 18 136c0 10 -0.166992 19.667 -0.5 29s-1.16602 18.333 -2.49902 27l29 -42
c-19.333 28.667 -43.5 50.834 -72.5 66.501s-59.833 23.5 -92.5 23.5c-45.333 0 -80.666 -16.333 -105.999 -49s-38 -78 -38 -136c0 -56 11.333 -99.5 34 -130.5s55 -46.5 97 -46.5zM199.001 555.998l238 75c4.66699 -4 8 -9 10 -15s3 -12.667 3 -20l-238 -74
c-4.66699 4 -8 9.16699 -10 15.5s-3 12.5 -3 18.5z" />
    <glyph glyph-name="ntilde" unicode="&#xf1;" horiz-adv-x="597" 
d="M50 0c0 21.333 5.33398 33.333 16.001 36l57 19l-11 -17v371l12 -15l-59 11c-10 2 -15 13.667 -15 35c25.333 4 44.5 6.83301 57.5 8.5s23.833 2.5 32.5 2.5c17.333 0 29.666 -4.33301 36.999 -13s11 -22.667 11 -42v-37l-6 3h11c26.667 30.667 57.167 55 91.5 73
s67.833 27 100.5 27c77.333 0 116 -53.667 116 -161v-258l-12 13l74 -19c0 -10 -1 -17.5 -3 -22.5s-6.33301 -9.83301 -13 -14.5h-181c0 21.333 5.33301 33.333 16 36l49 15l-10 -17v265c0 70.667 -26.667 106 -80 106c-20 0 -39.833 -3.83301 -59.5 -11.5
s-37.834 -18 -54.501 -31s-30.667 -27.167 -42 -42.5l8 19v-300l-12 14l68 -16c0 -10 -1.16699 -17.5 -3.5 -22.5s-7.16602 -9.83301 -14.499 -14.5h-181zM234.001 595c-14.667 0 -27.3311 -5.33301 -37.998 -16s-16 -24.667 -16 -42c-10.667 0 -18.5 1.33301 -23.5 4
s-7.5 6.66699 -7.5 12c0 18.667 4.16699 35.834 12.5 51.501s19.166 28.167 32.499 37.5s28 14 44 14c17.333 0 33.833 -3.83301 49.5 -11.5l46.5 -23.5c15.333 -8 30.666 -12 45.999 -12s28.166 5.5 38.499 16.5s15.5 24.833 15.5 41.5
c10.667 0 18.334 -1.16699 23.001 -3.5s7 -6.16602 7 -11.499c0 -18.667 -4 -35.834 -12 -51.501s-18.667 -28.334 -32 -38.001s-28.333 -14.5 -45 -14.5s-32.667 4 -48 12l-46 23.5c-15.333 7.66699 -31 11.5 -47 11.5z" />
    <glyph glyph-name="ograve" unicode="&#xf2;" horiz-adv-x="517" 
d="M236 -12c-62 0 -111 19.332 -147 57.999s-54 90.334 -54 155.001c0 50 10.5 94.667 31.5 134s49.833 70.333 86.5 93s78.667 34 126 34c41.333 0 77 -8.83301 107 -26.5s53.333 -42.5 70 -74.5s25 -69.667 25 -113c0 -50.667 -10.333 -95.5 -31 -134.5
s-49.5 -69.667 -86.5 -92s-79.5 -33.5 -127.5 -33.5zM255 21.999c44.667 0 79.168 17.999 103.501 53.999s36.5 86.333 36.5 151s-11.333 114.334 -34 149.001s-55.667 52 -99 52c-44.667 0 -79.334 -17.833 -104.001 -53.5s-37 -86.5 -37 -152.5
c0 -64.667 11.5 -114.167 34.5 -148.5s56.167 -51.5 99.5 -51.5zM339.001 514.998l-104.5 65.5c-25 15.667 -43.167 27.5 -54.5 35.5s-18.333 13.667 -21 17s-4 6.66602 -4 9.99902c0 7.33301 2 14.5 6 21.5s9 12.833 15 17.5s12.333 7 19 7c4 0 8.16699 -1.16699 12.5 -3.5
s11.5 -8 21.5 -17s25.333 -23.833 46 -44.5l86 -85c0 -7.33301 -2.33301 -13.166 -7 -17.499s-9.66699 -6.5 -15 -6.5z" />
    <glyph glyph-name="oacute" unicode="&#xf3;" horiz-adv-x="517" 
d="M236 -12c-62 0 -111 19.332 -147 57.999s-54 90.334 -54 155.001c0 50 10.5 94.667 31.5 134s49.833 70.333 86.5 93s78.667 34 126 34c41.333 0 77 -8.83301 107 -26.5s53.333 -42.5 70 -74.5s25 -69.667 25 -113c0 -50.667 -10.333 -95.5 -31 -134.5
s-49.5 -69.667 -86.5 -92s-79.5 -33.5 -127.5 -33.5zM255 21.999c44.667 0 79.168 17.999 103.501 53.999s36.5 86.333 36.5 151s-11.333 114.334 -34 149.001s-55.667 52 -99 52c-44.667 0 -79.334 -17.833 -104.001 -53.5s-37 -86.5 -37 -152.5
c0 -64.667 11.5 -114.167 34.5 -148.5s56.167 -51.5 99.5 -51.5zM177.001 514.998c-5.33301 0 -10.333 2.16699 -15 6.5s-7 10.166 -7 17.499l86 85c20.667 20.667 36 35.5 46 44.5s17.167 14.667 21.5 17s8.5 3.5 12.5 3.5c6.66699 0 13 -2.33301 19 -7s11 -10.5 15 -17.5
s6 -14.167 6 -21.5c0 -3.33301 -1.33301 -6.66602 -4 -9.99902s-9.66699 -9 -21 -17s-29.5 -19.833 -54.5 -35.5z" />
    <glyph glyph-name="ocircumflex" unicode="&#xf4;" horiz-adv-x="517" 
d="M236 -12c-62 0 -111 19.332 -147 57.999s-54 90.334 -54 155.001c0 50 10.5 94.667 31.5 134s49.833 70.333 86.5 93s78.667 34 126 34c41.333 0 77 -8.83301 107 -26.5s53.333 -42.5 70 -74.5s25 -69.667 25 -113c0 -50.667 -10.333 -95.5 -31 -134.5
s-49.5 -69.667 -86.5 -92s-79.5 -33.5 -127.5 -33.5zM255 21.999c44.667 0 79.168 17.999 103.501 53.999s36.5 86.333 36.5 151s-11.333 114.334 -34 149.001s-55.667 52 -99 52c-44.667 0 -79.334 -17.833 -104.001 -53.5s-37 -86.5 -37 -152.5
c0 -64.667 11.5 -114.167 34.5 -148.5s56.167 -51.5 99.5 -51.5zM257.001 692.998c4.66699 0 9.50293 -1.5 14.5029 -4.5s12.333 -9.66699 22 -20s23 -26.333 40 -48l68.5 -89.5c0 -6 -1.83301 -10.833 -5.5 -14.5s-9.16699 -5.5 -16.5 -5.5l-76.5 68.5l-46.5 43.5
l-48 -43.5l-77 -68.5c-6.66699 0 -12 1.83301 -16 5.5s-6 8.5 -6 14.5l69 89.5c17.333 21.667 30.666 37.667 39.999 48s16.666 17 21.999 20s10.666 4.5 15.999 4.5z" />
    <glyph glyph-name="otilde" unicode="&#xf5;" horiz-adv-x="517" 
d="M236 -12c-62 0 -111 19.332 -147 57.999s-54 90.334 -54 155.001c0 50 10.5 94.667 31.5 134s49.833 70.333 86.5 93s78.667 34 126 34c41.333 0 77 -8.83301 107 -26.5s53.333 -42.5 70 -74.5s25 -69.667 25 -113c0 -50.667 -10.333 -95.5 -31 -134.5
s-49.5 -69.667 -86.5 -92s-79.5 -33.5 -127.5 -33.5zM255 21.999c44.667 0 79.168 17.999 103.501 53.999s36.5 86.333 36.5 151s-11.333 114.334 -34 149.001s-55.667 52 -99 52c-44.667 0 -79.334 -17.833 -104.001 -53.5s-37 -86.5 -37 -152.5
c0 -64.667 11.5 -114.167 34.5 -148.5s56.167 -51.5 99.5 -51.5zM184.001 594.998c-14.667 0 -27.3311 -5.33301 -37.998 -16s-16 -24.667 -16 -42c-10.667 0 -18.5 1.33301 -23.5 4s-7.5 6.66699 -7.5 12c0 18.667 4.16699 35.834 12.5 51.501s19.166 28.167 32.499 37.5
s28 14 44 14c17.333 0 33.833 -3.83301 49.5 -11.5l46.5 -23.5c15.333 -8 30.666 -12 45.999 -12s28.166 5.5 38.499 16.5s15.5 24.833 15.5 41.5c10.667 0 18.334 -1.16699 23.001 -3.5s7 -6.16602 7 -11.499c0 -18.667 -4 -35.834 -12 -51.501
s-18.667 -28.334 -32 -38.001s-28.333 -14.5 -45 -14.5s-32.667 4 -48 12l-46 23.5c-15.333 7.66699 -31 11.5 -47 11.5z" />
    <glyph glyph-name="odieresis" unicode="&#xf6;" horiz-adv-x="517" 
d="M236 -12c-62 0 -111 19.332 -147 57.999s-54 90.334 -54 155.001c0 50 10.5 94.667 31.5 134s49.833 70.333 86.5 93s78.667 34 126 34c41.333 0 77 -8.83301 107 -26.5s53.333 -42.5 70 -74.5s25 -69.667 25 -113c0 -50.667 -10.333 -95.5 -31 -134.5
s-49.5 -69.667 -86.5 -92s-79.5 -33.5 -127.5 -33.5zM255 21.999c44.667 0 79.168 17.999 103.501 53.999s36.5 86.333 36.5 151s-11.333 114.334 -34 149.001s-55.667 52 -99 52c-44.667 0 -79.334 -17.833 -104.001 -53.5s-37 -86.5 -37 -152.5
c0 -64.667 11.5 -114.167 34.5 -148.5s56.167 -51.5 99.5 -51.5zM345.001 553.998c-16.667 0 -28.833 4.5 -36.5 13.5s-11.5 20.5 -11.5 34.5c0 9.33301 2.33301 17.5 7 24.5s10.834 12.667 18.501 17s15.167 6.5 22.5 6.5c16.667 0 29 -4.33301 37 -13
s12 -20.334 12 -35.001c0 -8.66699 -2.33301 -16.667 -7 -24s-10.834 -13.166 -18.501 -17.499s-15.5 -6.5 -23.5 -6.5zM167.002 553.998c-16 0 -28.001 4.5 -36.001 13.5s-12 20.5 -12 34.5c0 9.33301 2.33301 17.5 7 24.5s10.834 12.667 18.501 17s15.167 6.5 22.5 6.5
c16 0 28.167 -4.33301 36.5 -13s12.5 -20.334 12.5 -35.001c0 -8.66699 -2.33301 -16.667 -7 -24s-10.667 -13.166 -18 -17.499s-15.333 -6.5 -24 -6.5z" />
    <glyph glyph-name="divide" unicode="&#xf7;" horiz-adv-x="572" 
d="M286 397c-14 0 -24.834 4.16699 -32.501 12.5s-11.5 18.833 -11.5 31.5s4.5 23.167 13.5 31.5s19.167 12.5 30.5 12.5c14.667 0 25.834 -4 33.501 -12s11.5 -18.667 11.5 -32c0 -12 -4.5 -22.333 -13.5 -31s-19.5 -13 -31.5 -13zM284.999 95
c-14 0 -24.834 4.16699 -32.501 12.5s-11.5 18.833 -11.5 31.5c0 12 4.5 22.333 13.5 31s19.167 13 30.5 13c14.667 0 25.834 -4.16699 33.501 -12.5s11.5 -18.833 11.5 -31.5s-4.5 -23.167 -13.5 -31.5s-19.5 -12.5 -31.5 -12.5zM85.998 265
c-6.66699 8 -10.002 17.9971 -10.002 29.9971c0 2.66699 0.333008 5.83398 1 9.50098s1.33398 6.83398 2.00098 9.50098h402c7.33301 -7.33301 11 -17.333 11 -30c0 -2.66699 -0.166992 -5.66699 -0.5 -9s-1.16602 -6.66602 -2.49902 -9.99902h-403z" />
    <glyph glyph-name="oslash" unicode="&#xf8;" horiz-adv-x="517" 
d="M236 -12c-62 0 -111 19.332 -147 57.999s-54 90.334 -54 155.001c0 50 10.5 94.667 31.5 134s49.833 70.333 86.5 93s78.667 34 126 34c41.333 0 77 -8.83301 107 -26.5s53.333 -42.5 70 -74.5s25 -69.667 25 -113c0 -50.667 -10.333 -95.5 -31 -134.5
s-49.5 -69.667 -86.5 -92s-79.5 -33.5 -127.5 -33.5zM255 21.999c44.667 0 79.168 17.999 103.501 53.999s36.5 86.333 36.5 151s-11.333 114.334 -34 149.001s-55.667 52 -99 52c-44.667 0 -79.334 -17.833 -104.001 -53.5s-37 -86.5 -37 -152.5
c0 -64.667 11.5 -114.167 34.5 -148.5s56.167 -51.5 99.5 -51.5zM136.902 -84.7031c-6.06641 0 -12.0166 1.0498 -17.8496 3.14941c-5.83398 2.10059 -10.1504 5.25098 -12.9502 9.45117l270.904 600.61c6.06738 0 11.9004 -1.0498 17.5 -3.14941
c5.60059 -2.10059 10.0342 -5.25098 13.3008 -9.45117z" />
    <glyph glyph-name="ugrave" unicode="&#xf9;" horiz-adv-x="573" 
d="M219 -12c-38 0 -67.332 12.5 -87.999 37.5s-31 64.5 -31 118.5v260l15 -15l-62 11c-4.66699 0.666992 -8.33398 3.83398 -11.001 9.50098s-4 14.167 -4 25.5l57.5 7.5c13 1.66699 23.5 2.5 31.5 2.5c18 0 31.5 -4.33301 40.5 -13s13.5 -22.334 13.5 -41.001v-245
c0 -36 7.16699 -62.5 21.5 -79.5s35.5 -25.5 63.5 -25.5c18 0 34.833 3 50.5 9s29.667 14.167 42 24.5s22.833 21.833 31.5 34.5l-7 -17v312l15 -15l-63 11c-4.66699 0.666992 -8.16699 3.83398 -10.5 9.50098s-3.5 14.167 -3.5 25.5l57.5 7.5
c13 1.66699 23.167 2.5 30.5 2.5c18.667 0 32.334 -4.33301 41.001 -13s13 -22.334 13 -41.001v-319c0 -11.333 2.5 -20 7.5 -26s11.833 -9 20.5 -9c7.33301 0 15.166 1.83301 23.499 5.5s15.833 8.16699 22.5 13.5l8 -27c-11.333 -12.667 -25.333 -22.667 -42 -30
s-32.667 -11 -48 -11c-20.667 0 -37 6.83301 -49 20.5s-18 33.167 -18 58.5h-5c-45.333 -52.667 -100 -79 -164 -79zM358.001 515l-104.5 65.5c-25 15.667 -43.167 27.5 -54.5 35.5s-18.333 13.667 -21 17s-4 6.66602 -4 9.99902c0 7.33301 2 14.5 6 21.5s9 12.833 15 17.5
s12.333 7 19 7c4 0 8.16699 -1.16699 12.5 -3.5s11.5 -8 21.5 -17s25.333 -23.833 46 -44.5l86 -85c0 -7.33301 -2.33301 -13.166 -7 -17.499s-9.66699 -6.5 -15 -6.5z" />
    <glyph glyph-name="uacute" unicode="&#xfa;" horiz-adv-x="573" 
d="M219 -12c-38 0 -67.332 12.5 -87.999 37.5s-31 64.5 -31 118.5v260l15 -15l-62 11c-4.66699 0.666992 -8.33398 3.83398 -11.001 9.50098s-4 14.167 -4 25.5l57.5 7.5c13 1.66699 23.5 2.5 31.5 2.5c18 0 31.5 -4.33301 40.5 -13s13.5 -22.334 13.5 -41.001v-245
c0 -36 7.16699 -62.5 21.5 -79.5s35.5 -25.5 63.5 -25.5c18 0 34.833 3 50.5 9s29.667 14.167 42 24.5s22.833 21.833 31.5 34.5l-7 -17v312l15 -15l-63 11c-4.66699 0.666992 -8.16699 3.83398 -10.5 9.50098s-3.5 14.167 -3.5 25.5l57.5 7.5
c13 1.66699 23.167 2.5 30.5 2.5c18.667 0 32.334 -4.33301 41.001 -13s13 -22.334 13 -41.001v-319c0 -11.333 2.5 -20 7.5 -26s11.833 -9 20.5 -9c7.33301 0 15.166 1.83301 23.499 5.5s15.833 8.16699 22.5 13.5l8 -27c-11.333 -12.667 -25.333 -22.667 -42 -30
s-32.667 -11 -48 -11c-20.667 0 -37 6.83301 -49 20.5s-18 33.167 -18 58.5h-5c-45.333 -52.667 -100 -79 -164 -79zM196.001 515c-5.33301 0 -10.333 2.16699 -15 6.5s-7 10.166 -7 17.499l86 85c20.667 20.667 36 35.5 46 44.5s17.167 14.667 21.5 17s8.5 3.5 12.5 3.5
c6.66699 0 13 -2.33301 19 -7s11 -10.5 15 -17.5s6 -14.167 6 -21.5c0 -3.33301 -1.33301 -6.66602 -4 -9.99902s-9.66699 -9 -21 -17s-29.5 -19.833 -54.5 -35.5z" />
    <glyph glyph-name="ucircumflex" unicode="&#xfb;" horiz-adv-x="573" 
d="M219 -12c-38 0 -67.332 12.5 -87.999 37.5s-31 64.5 -31 118.5v260l15 -15l-62 11c-4.66699 0.666992 -8.33398 3.83398 -11.001 9.50098s-4 14.167 -4 25.5l57.5 7.5c13 1.66699 23.5 2.5 31.5 2.5c18 0 31.5 -4.33301 40.5 -13s13.5 -22.334 13.5 -41.001v-245
c0 -36 7.16699 -62.5 21.5 -79.5s35.5 -25.5 63.5 -25.5c18 0 34.833 3 50.5 9s29.667 14.167 42 24.5s22.833 21.833 31.5 34.5l-7 -17v312l15 -15l-63 11c-4.66699 0.666992 -8.16699 3.83398 -10.5 9.50098s-3.5 14.167 -3.5 25.5l57.5 7.5
c13 1.66699 23.167 2.5 30.5 2.5c18.667 0 32.334 -4.33301 41.001 -13s13 -22.334 13 -41.001v-319c0 -11.333 2.5 -20 7.5 -26s11.833 -9 20.5 -9c7.33301 0 15.166 1.83301 23.499 5.5s15.833 8.16699 22.5 13.5l8 -27c-11.333 -12.667 -25.333 -22.667 -42 -30
s-32.667 -11 -48 -11c-20.667 0 -37 6.83301 -49 20.5s-18 33.167 -18 58.5h-5c-45.333 -52.667 -100 -79 -164 -79zM276.001 693c4.66699 0 9.50293 -1.5 14.5029 -4.5s12.333 -9.66699 22 -20s23 -26.333 40 -48l68.5 -89.5c0 -6 -1.83301 -10.833 -5.5 -14.5
s-9.16699 -5.5 -16.5 -5.5l-76.5 68.5l-46.5 43.5l-48 -43.5l-77 -68.5c-6.66699 0 -12 1.83301 -16 5.5s-6 8.5 -6 14.5l69 89.5c17.333 21.667 30.666 37.667 39.999 48s16.666 17 21.999 20s10.666 4.5 15.999 4.5z" />
    <glyph glyph-name="udieresis" unicode="&#xfc;" horiz-adv-x="573" 
d="M219 -12c-38 0 -67.332 12.5 -87.999 37.5s-31 64.5 -31 118.5v260l15 -15l-62 11c-4.66699 0.666992 -8.33398 3.83398 -11.001 9.50098s-4 14.167 -4 25.5l57.5 7.5c13 1.66699 23.5 2.5 31.5 2.5c18 0 31.5 -4.33301 40.5 -13s13.5 -22.334 13.5 -41.001v-245
c0 -36 7.16699 -62.5 21.5 -79.5s35.5 -25.5 63.5 -25.5c18 0 34.833 3 50.5 9s29.667 14.167 42 24.5s22.833 21.833 31.5 34.5l-7 -17v312l15 -15l-63 11c-4.66699 0.666992 -8.16699 3.83398 -10.5 9.50098s-3.5 14.167 -3.5 25.5l57.5 7.5
c13 1.66699 23.167 2.5 30.5 2.5c18.667 0 32.334 -4.33301 41.001 -13s13 -22.334 13 -41.001v-319c0 -11.333 2.5 -20 7.5 -26s11.833 -9 20.5 -9c7.33301 0 15.166 1.83301 23.499 5.5s15.833 8.16699 22.5 13.5l8 -27c-11.333 -12.667 -25.333 -22.667 -42 -30
s-32.667 -11 -48 -11c-20.667 0 -37 6.83301 -49 20.5s-18 33.167 -18 58.5h-5c-45.333 -52.667 -100 -79 -164 -79zM364.001 554c-16.667 0 -28.833 4.5 -36.5 13.5s-11.5 20.5 -11.5 34.5c0 9.33301 2.33301 17.5 7 24.5s10.834 12.667 18.501 17s15.167 6.5 22.5 6.5
c16.667 0 29 -4.33301 37 -13s12 -20.334 12 -35.001c0 -8.66699 -2.33301 -16.667 -7 -24s-10.834 -13.166 -18.501 -17.499s-15.5 -6.5 -23.5 -6.5zM186.002 554c-16 0 -28.001 4.5 -36.001 13.5s-12 20.5 -12 34.5c0 9.33301 2.33301 17.5 7 24.5
s10.834 12.667 18.501 17s15.167 6.5 22.5 6.5c16 0 28.167 -4.33301 36.5 -13s12.5 -20.334 12.5 -35.001c0 -8.66699 -2.33301 -16.667 -7 -24s-10.667 -13.166 -18 -17.499s-15.333 -6.5 -24 -6.5z" />
    <glyph glyph-name="yacute" unicode="&#xfd;" horiz-adv-x="501" 
d="M62 -270c-18.667 0 -33.166 3.83105 -43.499 11.498s-15.5 17.167 -15.5 28.5c0 4 0.666992 8.66699 2 14s3.33301 10.333 6 15h21c30 0 55 3.5 75 10.5s37.333 18.5 52 34.5s28.5 37.833 41.5 65.5s27.167 62.167 42.5 103.5l-4 -47l-175 435l18 -13l-75 18
c0 10 1.33301 17.5 4 22.5s7.33398 9.83301 14.001 14.5h182c0 -21.333 -5.33301 -33.666 -16 -36.999l-60 -17l14 17l139 -349h-23l132 344l6 -13l-70 18c0 12 1.16699 20.5 3.5 25.5s7.16602 8.83301 14.499 11.5h151c0 -11.333 -1.33301 -19.833 -4 -25.5
s-6.66699 -9.16699 -12 -10.5l-57 -18l18 18l-160 -416c-30.667 -79.333 -65.334 -142.666 -104.001 -189.999s-77.667 -71 -117 -71zM186.001 514.998c-5.33301 0 -10.333 2.16699 -15 6.5s-7 10.166 -7 17.499l86 85c20.667 20.667 36 35.5 46 44.5s17.167 14.667 21.5 17
s8.5 3.5 12.5 3.5c6.66699 0 13 -2.33301 19 -7s11 -10.5 15 -17.5s6 -14.167 6 -21.5c0 -3.33301 -1.33301 -6.66602 -4 -9.99902s-9.66699 -9 -21 -17s-29.5 -19.833 -54.5 -35.5z" />
    <glyph glyph-name="thorn" unicode="&#xfe;" horiz-adv-x="558" 
d="M45 -257c0 20 5.33203 32.001 15.999 36.001l57 18l-11 -17v912l12 -15l-62 11c-10 2 -15 13.667 -15 35c22 3.33301 40.833 6 56.5 8s27.834 3 36.501 3c17.333 0 29.666 -3.66699 36.999 -11s11 -19 11 -35v-328l-3 3h8c21.333 31.333 47.333 55.666 78 72.999
s62 26 94 26c33.333 0 62 -8.66699 86 -26s42.667 -41.833 56 -73.5s20 -69.167 20 -112.5c0 -52.667 -9.5 -98.667 -28.5 -138s-45.833 -69.833 -80.5 -91.5s-75.667 -32.5 -123 -32.5c-19.333 0 -39 2 -59 6s-39 9.66699 -57 17l14 8v-234l-12 13l81 -18
c0 -9.33301 -1.16699 -16.833 -3.5 -22.5s-7.16602 -10.5 -14.499 -14.5h-194zM284.999 27.001c52.667 0 91 16.332 115 48.999s36 84.334 36 155.001c0 61.333 -9.16699 106.333 -27.5 135s-46.5 43 -84.5 43c-20.667 0 -39.5 -3.83301 -56.5 -11.5
s-32.833 -18.667 -47.5 -33s-29 -31.5 -43 -51.5l9 23v-292l-9 18c23.333 -12.667 42.5 -21.667 57.5 -27s31.833 -8 50.5 -8z" />
    <glyph glyph-name="ydieresis" unicode="&#xff;" horiz-adv-x="501" 
d="M62 -270c-18.667 0 -33.166 3.83105 -43.499 11.498s-15.5 17.167 -15.5 28.5c0 4 0.666992 8.66699 2 14s3.33301 10.333 6 15h21c30 0 55 3.5 75 10.5s37.333 18.5 52 34.5s28.5 37.833 41.5 65.5s27.167 62.167 42.5 103.5l-4 -47l-175 435l18 -13l-75 18
c0 10 1.33301 17.5 4 22.5s7.33398 9.83301 14.001 14.5h182c0 -21.333 -5.33301 -33.666 -16 -36.999l-60 -17l14 17l139 -349h-23l132 344l6 -13l-70 18c0 12 1.16699 20.5 3.5 25.5s7.16602 8.83301 14.499 11.5h151c0 -11.333 -1.33301 -19.833 -4 -25.5
s-6.66699 -9.16699 -12 -10.5l-57 -18l18 18l-160 -416c-30.667 -79.333 -65.334 -142.666 -104.001 -189.999s-77.667 -71 -117 -71zM354.001 553.998c-16.667 0 -28.833 4.5 -36.5 13.5s-11.5 20.5 -11.5 34.5c0 9.33301 2.33301 17.5 7 24.5s10.834 12.667 18.501 17
s15.167 6.5 22.5 6.5c16.667 0 29 -4.33301 37 -13s12 -20.334 12 -35.001c0 -8.66699 -2.33301 -16.667 -7 -24s-10.834 -13.166 -18.501 -17.499s-15.5 -6.5 -23.5 -6.5zM176.002 553.998c-16 0 -28.001 4.5 -36.001 13.5s-12 20.5 -12 34.5
c0 9.33301 2.33301 17.5 7 24.5s10.834 12.667 18.501 17s15.167 6.5 22.5 6.5c16 0 28.167 -4.33301 36.5 -13s12.5 -20.334 12.5 -35.001c0 -8.66699 -2.33301 -16.667 -7 -24s-10.667 -13.166 -18 -17.499s-15.333 -6.5 -24 -6.5z" />
    <glyph glyph-name="Amacron" unicode="&#x100;" horiz-adv-x="645" 
d="M3 0c0 10.667 1.49902 18.9971 4.49902 24.9971s6.83301 9.66699 11.5 11l59 18l-25 -26l222 608c2 5.33301 5.5 9.33301 10.5 12s10.333 4.5 16 5.5s10.834 1.5 15.501 1.5c4 0 8.16699 -0.166992 12.5 -0.5s8.83301 -1.16602 13.5 -2.49902l242 -621l-32 25l89 -19
c0 -8.66699 -1.33301 -15.667 -4 -21s-7.66699 -10.666 -15 -15.999h-201c0 10.667 1.5 19 4.5 25s6.83301 9.66699 11.5 11l68 18l-9 -20l-214 547l21 2l-203 -555l-3 28l89 -19c0 -8.66699 -1.16699 -15.667 -3.5 -21s-7.83301 -10.666 -16.5 -15.999h-164z
M154.999 215.997l11 42h263l13 -42h-287zM433.999 770.997l-260 -0.00195312c-0.666992 2 -1.33398 4.83301 -2.00098 8.5s-1 7.83398 -1 12.501c0 18.667 4 31.334 12 38.001h260c0.666992 -2 1.33398 -5 2.00098 -9s1 -8.33301 1 -13c0 -16.667 -4 -29 -12 -37z" />
    <glyph glyph-name="amacron" unicode="&#x101;" horiz-adv-x="486" 
d="M151 -12c-31.333 0 -57.332 9.16699 -77.999 27.5s-31 42.833 -31 73.5c0 38 12.167 69 36.5 93s60.833 41.667 109.5 53l131 30l-13 -11v75c0 35.333 -6 61.166 -18 77.499s-30.667 24.5 -56 24.5c-30.667 0 -54.334 -9.16699 -71.001 -27.5s-25 -44.833 -25 -79.5
c-3.33301 -3.33301 -8 -6 -14 -8s-12 -3 -18 -3c-11.333 0 -20.333 3.33301 -27 10s-10 15.667 -10 27c0 22 7.66699 41.333 23 58s36.5 29.834 63.5 39.501s57.167 14.5 90.5 14.5c49.333 0 85.5 -12.333 108.5 -37s34.5 -64 34.5 -118v-235c0 -11.333 2.33301 -20 7 -26
s11.334 -9 20.001 -9c7.33301 0 15.5 2 24.5 6s16.5 8.33301 22.5 13l7 -27c-10.667 -12.667 -24.334 -22.667 -41.001 -30s-32.667 -11 -48 -11c-21.333 0 -38 6.83301 -50 20.5s-18 33.167 -18 58.5h-4c-18.667 -25.333 -41.667 -44.833 -69 -58.5
s-56.333 -20.5 -87 -20.5zM189.001 35c24 0 47 6 69 18s40.333 28.667 55 50l-6 -17v150l13 -2l-114 -27c-28.667 -6.66699 -50.5 -18.167 -65.5 -34.5s-22.5 -36.833 -22.5 -61.5c0 -23.333 6.33301 -41.833 19 -55.5s30 -20.5 52 -20.5zM356.001 573l-260 -0.00195312
c-0.666992 2 -1.33398 4.83301 -2.00098 8.5s-1 7.83398 -1 12.501c0 18.667 4 31.334 12 38.001h260c0.666992 -2 1.33398 -5 2.00098 -9s1 -8.33301 1 -13c0 -16.667 -4 -29 -12 -37z" />
    <glyph glyph-name="Abreve" unicode="&#x102;" horiz-adv-x="645" 
d="M3 0c0 10.667 1.49902 18.9971 4.49902 24.9971s6.83301 9.66699 11.5 11l59 18l-25 -26l222 608c2 5.33301 5.5 9.33301 10.5 12s10.333 4.5 16 5.5s10.834 1.5 15.501 1.5c4 0 8.16699 -0.166992 12.5 -0.5s8.83301 -1.16602 13.5 -2.49902l242 -621l-32 25l89 -19
c0 -8.66699 -1.33301 -15.667 -4 -21s-7.66699 -10.666 -15 -15.999h-201c0 10.667 1.5 19 4.5 25s6.83301 9.66699 11.5 11l68 18l-9 -20l-214 547l21 2l-203 -555l-3 28l89 -19c0 -8.66699 -1.16699 -15.667 -3.5 -21s-7.83301 -10.666 -16.5 -15.999h-164z
M154.999 215.997l11 42h263l13 -42h-287zM308.999 712.997c-25.333 0 -48.501 6 -69.501 18s-37.667 28 -50 48s-18.5 42.333 -18.5 67c0 6.66699 2.83301 11.667 8.5 15s12.834 5 21.501 5c2.66699 -26.667 14.167 -49 34.5 -67s44.833 -27 73.5 -27c29.333 0 54 9 74 27
s31.333 40.333 34 67c9.33301 0 16.833 -1.66699 22.5 -5s8.5 -8.33301 8.5 -15c0 -24.667 -6.33301 -47 -19 -67s-29.5 -36 -50.5 -48s-44.167 -18 -69.5 -18z" />
    <glyph glyph-name="abreve" unicode="&#x103;" horiz-adv-x="486" 
d="M151 -12c-31.333 0 -57.332 9.16699 -77.999 27.5s-31 42.833 -31 73.5c0 38 12.167 69 36.5 93s60.833 41.667 109.5 53l131 30l-13 -11v75c0 35.333 -6 61.166 -18 77.499s-30.667 24.5 -56 24.5c-30.667 0 -54.334 -9.16699 -71.001 -27.5s-25 -44.833 -25 -79.5
c-3.33301 -3.33301 -8 -6 -14 -8s-12 -3 -18 -3c-11.333 0 -20.333 3.33301 -27 10s-10 15.667 -10 27c0 22 7.66699 41.333 23 58s36.5 29.834 63.5 39.501s57.167 14.5 90.5 14.5c49.333 0 85.5 -12.333 108.5 -37s34.5 -64 34.5 -118v-235c0 -11.333 2.33301 -20 7 -26
s11.334 -9 20.001 -9c7.33301 0 15.5 2 24.5 6s16.5 8.33301 22.5 13l7 -27c-10.667 -12.667 -24.334 -22.667 -41.001 -30s-32.667 -11 -48 -11c-21.333 0 -38 6.83301 -50 20.5s-18 33.167 -18 58.5h-4c-18.667 -25.333 -41.667 -44.833 -69 -58.5
s-56.333 -20.5 -87 -20.5zM189.001 35c24 0 47 6 69 18s40.333 28.667 55 50l-6 -17v150l13 -2l-114 -27c-28.667 -6.66699 -50.5 -18.167 -65.5 -34.5s-22.5 -36.833 -22.5 -61.5c0 -23.333 6.33301 -41.833 19 -55.5s30 -20.5 52 -20.5zM231.001 519
c-25.333 0 -48.501 6.5 -69.501 19.5s-37.667 30.667 -50 53s-18.5 46.833 -18.5 73.5c0 6.66699 2.83301 11.667 8.5 15s12.834 5 21.501 5c2.66699 -30.667 14.167 -56.167 34.5 -76.5s44.833 -30.5 73.5 -30.5c29.333 0 54 10.167 74 30.5s31.333 45.833 34 76.5
c9.33301 0 16.833 -1.66699 22.5 -5s8.5 -8.33301 8.5 -15c0 -26.667 -6.33301 -51.167 -19 -73.5s-29.5 -40 -50.5 -53s-44.167 -19.5 -69.5 -19.5z" />
    <glyph glyph-name="Aogonek" unicode="&#x104;" horiz-adv-x="645" 
d="M3 0c0 10.667 1.49902 18.9971 4.49902 24.9971s6.83301 9.66699 11.5 11l59 18l-25 -26l222 608c2 5.33301 5.5 9.33301 10.5 12s10.333 4.5 16 5.5s10.834 1.5 15.501 1.5c4 0 8.16699 -0.166992 12.5 -0.5s8.83301 -1.16602 13.5 -2.49902l242 -621l-32 25l89 -19
c0 -8.66699 -1.33301 -15.667 -4 -21s-7.66699 -10.666 -15 -15.999h-201c0 10.667 1.5 19 4.5 25s6.83301 9.66699 11.5 11l68 18l-9 -20l-214 547l21 2l-203 -555l-3 28l89 -19c0 -8.66699 -1.16699 -15.667 -3.5 -21s-7.83301 -10.666 -16.5 -15.999h-164z
M154.999 215.997l11 42h263l13 -42h-287zM542.999 -221.003c-26.667 0 -47.999 7.33301 -63.999 22s-24 34 -24 58c0 30.667 12.167 58 36.5 82s62.833 47.333 115.5 70l16 -11c-38.667 -16.667 -67.334 -35 -86.001 -55s-28 -42 -28 -66c0 -36.667 18.667 -55 56 -55
c22 0 43.333 7.33301 64 22l10 -27c-10.667 -11.333 -25 -20.833 -43 -28.5s-35.667 -11.5 -53 -11.5z" />
    <glyph glyph-name="aogonek" unicode="&#x105;" horiz-adv-x="486" 
d="M151 -12c-31.333 0 -57.332 9.16699 -77.999 27.5s-31 42.833 -31 73.5c0 38 12.167 69 36.5 93s60.833 41.667 109.5 53l131 30l-13 -11v75c0 35.333 -6 61.166 -18 77.499s-30.667 24.5 -56 24.5c-30.667 0 -54.334 -9.16699 -71.001 -27.5s-25 -44.833 -25 -79.5
c-3.33301 -3.33301 -8 -6 -14 -8s-12 -3 -18 -3c-11.333 0 -20.333 3.33301 -27 10s-10 15.667 -10 27c0 22 7.66699 41.333 23 58s36.5 29.834 63.5 39.501s57.167 14.5 90.5 14.5c49.333 0 85.5 -12.333 108.5 -37s34.5 -64 34.5 -118v-235c0 -11.333 2.33301 -20 7 -26
s11.334 -9 20.001 -9c7.33301 0 15.5 2 24.5 6s16.5 8.33301 22.5 13l7 -27c-10.667 -12.667 -24.334 -22.667 -41.001 -30s-32.667 -11 -48 -11c-21.333 0 -38 6.83301 -50 20.5s-18 33.167 -18 58.5h-4c-18.667 -25.333 -41.667 -44.833 -69 -58.5
s-56.333 -20.5 -87 -20.5zM189.001 35c24 0 47 6 69 18s40.333 28.667 55 50l-6 -17v150l13 -2l-114 -27c-28.667 -6.66699 -50.5 -18.167 -65.5 -34.5s-22.5 -36.833 -22.5 -61.5c0 -23.333 6.33301 -41.833 19 -55.5s30 -20.5 52 -20.5zM346.001 -221
c-26.667 0 -47.999 7.33301 -63.999 22s-24 34 -24 58c0 30.667 12.167 58 36.5 82s62.833 47.333 115.5 70l16 -11c-38.667 -16.667 -67.334 -35 -86.001 -55s-28 -42 -28 -66c0 -36.667 18.667 -55 56 -55c22 0 43.333 7.33301 64 22l10 -27
c-10.667 -11.333 -25 -20.833 -43 -28.5s-35.667 -11.5 -53 -11.5z" />
    <glyph glyph-name="Cacute" unicode="&#x106;" horiz-adv-x="650" 
d="M353 -12c-58.667 0 -110.33 13.1689 -154.997 39.502s-79.5 62.666 -104.5 108.999s-37.5 99.833 -37.5 160.5c0 51.333 8.66699 98.666 26 141.999s41.333 81.166 72 113.499s67 57.5 109 75.5s87.333 27 136 27c34 0 66.667 -4.16699 98 -12.5s60 -20.5 86 -36.5
l-19 -140c-10.667 0 -19.334 1.66699 -26.001 5s-10.334 7.33301 -11.001 12l-9 99l16 -25c-16.667 14 -39.334 25.167 -68.001 33.5s-58.667 12.5 -90 12.5c-46.667 0 -87.334 -11.167 -122.001 -33.5s-61.334 -54.166 -80.001 -95.499s-28 -90.333 -28 -147
c0 -58 9.5 -108.667 28.5 -152s45.5 -77 79.5 -101s73.333 -36 118 -36c34.667 0 67.167 7 97.5 21s52.833 32.333 67.5 55l-18 -39l12 137c14.667 0 25.334 -1.33301 32.001 -4s11 -6.66699 13 -12l6 -130c-26.667 -24 -60.667 -43 -102 -57s-83.666 -21 -126.999 -21z
M266.004 734.002c-6 0 -10.165 3 -12.498 9s-3.5 12.333 -3.5 19l93 54c24 14 42.667 24.5 56 31.5s23.166 11.833 29.499 14.5s11.166 4 14.499 4c10 0 18.333 -5.16699 25 -15.5s10 -21.5 10 -33.5c0 -4 -1.66699 -7.83301 -5 -11.5s-11.5 -8 -24.5 -13
s-33.833 -12 -62.5 -21z" />
    <glyph glyph-name="cacute" unicode="&#x107;" horiz-adv-x="464" 
d="M240 -12c-41.333 0 -77.501 9 -108.501 27s-54.833 43.333 -71.5 76s-25 71.334 -25 116.001c0 50 9.83301 94.167 29.5 132.5s46.834 68.333 81.501 90s74 32.5 118 32.5c30 0 57.333 -4.83301 82 -14.5s44.167 -22.834 58.5 -39.501s21.5 -35 21.5 -55
c0 -13.333 -3.83301 -23.833 -11.5 -31.5s-18.167 -11.5 -31.5 -11.5c-6 0 -11.667 0.833008 -17 2.5s-10.666 3.83398 -15.999 6.50098c0 35.333 -8.16699 62.333 -24.5 81s-40.166 28 -71.499 28c-42.667 0 -75.334 -16.833 -98.001 -50.5s-34 -81.834 -34 -144.501
c0 -65.333 12.5 -114.833 37.5 -148.5s62.167 -50.5 111.5 -50.5c26.667 0 52.5 5.5 77.5 16.5s47.833 26.833 68.5 47.5l13 -24c-14 -17.333 -31.167 -32.5 -51.5 -45.5s-42.333 -23 -66 -30s-47.834 -10.5 -72.501 -10.5zM173.999 515c-5.33301 0 -10.333 2.16699 -15 6.5
s-7 10.166 -7 17.499l86 85c20.667 20.667 36 35.5 46 44.5s17.167 14.667 21.5 17s8.5 3.5 12.5 3.5c6.66699 0 13 -2.33301 19 -7s11 -10.5 15 -17.5s6 -14.167 6 -21.5c0 -3.33301 -1.33301 -6.66602 -4 -9.99902s-9.66699 -9 -21 -17s-29.5 -19.833 -54.5 -35.5z" />
    <glyph glyph-name="Ccircumflex" unicode="&#x108;" horiz-adv-x="650" 
d="M353 -12c-58.667 0 -110.33 13.1689 -154.997 39.502s-79.5 62.666 -104.5 108.999s-37.5 99.833 -37.5 160.5c0 51.333 8.66699 98.666 26 141.999s41.333 81.166 72 113.499s67 57.5 109 75.5s87.333 27 136 27c34 0 66.667 -4.16699 98 -12.5s60 -20.5 86 -36.5
l-19 -140c-10.667 0 -19.334 1.66699 -26.001 5s-10.334 7.33301 -11.001 12l-9 99l16 -25c-16.667 14 -39.334 25.167 -68.001 33.5s-58.667 12.5 -90 12.5c-46.667 0 -87.334 -11.167 -122.001 -33.5s-61.334 -54.166 -80.001 -95.499s-28 -90.333 -28 -147
c0 -58 9.5 -108.667 28.5 -152s45.5 -77 79.5 -101s73.333 -36 118 -36c34.667 0 67.167 7 97.5 21s52.833 32.333 67.5 55l-18 -39l12 137c14.667 0 25.334 -1.33301 32.001 -4s11 -6.66699 13 -12l6 -130c-26.667 -24 -60.667 -43 -102 -57s-83.666 -21 -126.999 -21z
M364.004 879.002c7.33301 0 14.165 -1.66699 20.498 -5s14.333 -9.83301 24 -19.5s22.334 -24.167 38.001 -43.5l62.5 -77c0 -6 -1.83301 -11 -5.5 -15s-9.16699 -6 -16.5 -6l-135 107h22l-135 -107c-6.66699 0 -12 2 -16 6s-6 9 -6 15l63 77
c16 19.333 28.833 33.833 38.5 43.5s17.834 16.167 24.501 19.5s13.667 5 21 5z" />
    <glyph glyph-name="ccircumflex" unicode="&#x109;" horiz-adv-x="464" 
d="M240 -12c-41.333 0 -77.501 9 -108.501 27s-54.833 43.333 -71.5 76s-25 71.334 -25 116.001c0 50 9.83301 94.167 29.5 132.5s46.834 68.333 81.501 90s74 32.5 118 32.5c30 0 57.333 -4.83301 82 -14.5s44.167 -22.834 58.5 -39.501s21.5 -35 21.5 -55
c0 -13.333 -3.83301 -23.833 -11.5 -31.5s-18.167 -11.5 -31.5 -11.5c-6 0 -11.667 0.833008 -17 2.5s-10.666 3.83398 -15.999 6.50098c0 35.333 -8.16699 62.333 -24.5 81s-40.166 28 -71.499 28c-42.667 0 -75.334 -16.833 -98.001 -50.5s-34 -81.834 -34 -144.501
c0 -65.333 12.5 -114.833 37.5 -148.5s62.167 -50.5 111.5 -50.5c26.667 0 52.5 5.5 77.5 16.5s47.833 26.833 68.5 47.5l13 -24c-14 -17.333 -31.167 -32.5 -51.5 -45.5s-42.333 -23 -66 -30s-47.834 -10.5 -72.501 -10.5zM253.999 693
c4.66699 0 9.50293 -1.5 14.5029 -4.5s12.333 -9.66699 22 -20s23 -26.333 40 -48l68.5 -89.5c0 -6 -1.83301 -10.833 -5.5 -14.5s-9.16699 -5.5 -16.5 -5.5l-76.5 68.5l-46.5 43.5l-48 -43.5l-77 -68.5c-6.66699 0 -12 1.83301 -16 5.5s-6 8.5 -6 14.5l69 89.5
c17.333 21.667 30.666 37.667 39.999 48s16.666 17 21.999 20s10.666 4.5 15.999 4.5z" />
    <glyph glyph-name="Cdotaccent" unicode="&#x10a;" horiz-adv-x="650" 
d="M353 -12c-58.667 0 -110.33 13.1689 -154.997 39.502s-79.5 62.666 -104.5 108.999s-37.5 99.833 -37.5 160.5c0 51.333 8.66699 98.666 26 141.999s41.333 81.166 72 113.499s67 57.5 109 75.5s87.333 27 136 27c34 0 66.667 -4.16699 98 -12.5s60 -20.5 86 -36.5
l-19 -140c-10.667 0 -19.334 1.66699 -26.001 5s-10.334 7.33301 -11.001 12l-9 99l16 -25c-16.667 14 -39.334 25.167 -68.001 33.5s-58.667 12.5 -90 12.5c-46.667 0 -87.334 -11.167 -122.001 -33.5s-61.334 -54.166 -80.001 -95.499s-28 -90.333 -28 -147
c0 -58 9.5 -108.667 28.5 -152s45.5 -77 79.5 -101s73.333 -36 118 -36c34.667 0 67.167 7 97.5 21s52.833 32.333 67.5 55l-18 -39l12 137c14.667 0 25.334 -1.33301 32.001 -4s11 -6.66699 13 -12l6 -130c-26.667 -24 -60.667 -43 -102 -57s-83.666 -21 -126.999 -21z
M364.004 751.002c-16 0 -28.334 4.5 -37.001 13.5s-13 20.833 -13 35.5s5.16699 26.667 15.5 36s21.833 14 34.5 14c16 0 28.5 -4.5 37.5 -13.5s13.5 -21.167 13.5 -36.5c0 -14 -5.16699 -25.667 -15.5 -35s-22.166 -14 -35.499 -14z" />
    <glyph glyph-name="cdotaccent" unicode="&#x10b;" horiz-adv-x="464" 
d="M240 -12c-41.333 0 -77.501 9 -108.501 27s-54.833 43.333 -71.5 76s-25 71.334 -25 116.001c0 50 9.83301 94.167 29.5 132.5s46.834 68.333 81.501 90s74 32.5 118 32.5c30 0 57.333 -4.83301 82 -14.5s44.167 -22.834 58.5 -39.501s21.5 -35 21.5 -55
c0 -13.333 -3.83301 -23.833 -11.5 -31.5s-18.167 -11.5 -31.5 -11.5c-6 0 -11.667 0.833008 -17 2.5s-10.666 3.83398 -15.999 6.50098c0 35.333 -8.16699 62.333 -24.5 81s-40.166 28 -71.499 28c-42.667 0 -75.334 -16.833 -98.001 -50.5s-34 -81.834 -34 -144.501
c0 -65.333 12.5 -114.833 37.5 -148.5s62.167 -50.5 111.5 -50.5c26.667 0 52.5 5.5 77.5 16.5s47.833 26.833 68.5 47.5l13 -24c-14 -17.333 -31.167 -32.5 -51.5 -45.5s-42.333 -23 -66 -30s-47.834 -10.5 -72.501 -10.5zM253.999 553c-16 0 -28.334 4.5 -37.001 13.5
s-13 20.833 -13 35.5s5.16699 26.667 15.5 36s21.833 14 34.5 14c16 0 28.5 -4.5 37.5 -13.5s13.5 -21.167 13.5 -36.5c0 -14 -5.16699 -25.667 -15.5 -35s-22.166 -14 -35.499 -14z" />
    <glyph glyph-name="Ccaron" unicode="&#x10c;" horiz-adv-x="650" 
d="M353 -12c-58.667 0 -110.33 13.1689 -154.997 39.502s-79.5 62.666 -104.5 108.999s-37.5 99.833 -37.5 160.5c0 51.333 8.66699 98.666 26 141.999s41.333 81.166 72 113.499s67 57.5 109 75.5s87.333 27 136 27c34 0 66.667 -4.16699 98 -12.5s60 -20.5 86 -36.5
l-19 -140c-10.667 0 -19.334 1.66699 -26.001 5s-10.334 7.33301 -11.001 12l-9 99l16 -25c-16.667 14 -39.334 25.167 -68.001 33.5s-58.667 12.5 -90 12.5c-46.667 0 -87.334 -11.167 -122.001 -33.5s-61.334 -54.166 -80.001 -95.499s-28 -90.333 -28 -147
c0 -58 9.5 -108.667 28.5 -152s45.5 -77 79.5 -101s73.333 -36 118 -36c34.667 0 67.167 7 97.5 21s52.833 32.333 67.5 55l-18 -39l12 137c14.667 0 25.334 -1.33301 32.001 -4s11 -6.66699 13 -12l6 -130c-26.667 -24 -60.667 -43 -102 -57s-83.666 -21 -126.999 -21z
M364.004 713.002c-7.33301 0 -14.3311 1.66699 -20.998 5s-14.834 9.83301 -24.501 19.5s-22.5 24.334 -38.5 44.001l-63 78.5c0 5.33301 2 9.83301 6 13.5s9.33301 5.5 16 5.5l135 -107h-22l135 107c7.33301 0 12.833 -1.83301 16.5 -5.5s5.5 -8.16699 5.5 -13.5l-63 -78.5
c-16 -19.667 -28.667 -34.334 -38 -44.001s-17.333 -16.167 -24 -19.5s-13.334 -5 -20.001 -5z" />
    <glyph glyph-name="ccaron" unicode="&#x10d;" horiz-adv-x="464" 
d="M240 -12c-41.333 0 -77.501 9 -108.501 27s-54.833 43.333 -71.5 76s-25 71.334 -25 116.001c0 50 9.83301 94.167 29.5 132.5s46.834 68.333 81.501 90s74 32.5 118 32.5c30 0 57.333 -4.83301 82 -14.5s44.167 -22.834 58.5 -39.501s21.5 -35 21.5 -55
c0 -13.333 -3.83301 -23.833 -11.5 -31.5s-18.167 -11.5 -31.5 -11.5c-6 0 -11.667 0.833008 -17 2.5s-10.666 3.83398 -15.999 6.50098c0 35.333 -8.16699 62.333 -24.5 81s-40.166 28 -71.499 28c-42.667 0 -75.334 -16.833 -98.001 -50.5s-34 -81.834 -34 -144.501
c0 -65.333 12.5 -114.833 37.5 -148.5s62.167 -50.5 111.5 -50.5c26.667 0 52.5 5.5 77.5 16.5s47.833 26.833 68.5 47.5l13 -24c-14 -17.333 -31.167 -32.5 -51.5 -45.5s-42.333 -23 -66 -30s-47.834 -10.5 -72.501 -10.5zM253.999 511
c-5.33301 0 -10.6689 1.5 -16.002 4.5s-12.666 9.66699 -21.999 20s-22.666 26.333 -39.999 48l-69 89.5c0 6 2 10.833 6 14.5s9.33301 5.5 16 5.5l77 -68.5l48 -43.5c11.333 11.333 26.833 25.833 46.5 43.5l76.5 68.5c7.33301 0 12.833 -1.83301 16.5 -5.5
s5.5 -8.5 5.5 -14.5l-68.5 -89.5c-17 -21.667 -30.333 -37.667 -40 -48s-17 -17 -22 -20s-9.83301 -4.5 -14.5 -4.5z" />
    <glyph glyph-name="Dcaron" unicode="&#x10e;" horiz-adv-x="716" 
d="M67 0c0 10.667 1.49902 19 4.49902 25s6.83301 9.66699 11.5 11l67 18l-15 -16v564l14 -17l-82 19c0 9.33301 1.16699 16.666 3.5 21.999s6.83301 10.333 13.5 15h287c48.667 0 91.167 -8.16699 127.5 -24.5s66.5 -38.333 90.5 -66s42 -59.167 54 -94.5
s18 -72.333 18 -111c0 -40.667 -7 -81.5 -21 -122.5s-34.333 -78.167 -61 -111.5s-59.167 -60.166 -97.5 -80.499s-82.166 -30.5 -131.499 -30.5h-283zM344.999 45c37.333 0 69.999 7.49707 97.999 22.4971s51.5 35.333 70.5 61s33.333 54.834 43 87.501
s14.5 66.667 14.5 102c0 50 -8.66699 96.333 -26 139s-43 76.834 -77 102.501s-76 38.5 -126 38.5c-29.333 0 -55.666 -1.66699 -78.999 -5s-43 -7.66602 -59 -12.999l13 15v-547l-10 14c19.333 -6 41 -10.333 65 -13s48.333 -4 73 -4zM363.998 712.997
c-7.33301 0 -14.3311 1.66699 -20.998 5s-14.834 9.83301 -24.501 19.5s-22.5 24.334 -38.5 44.001l-63 78.5c0 5.33301 2 9.83301 6 13.5s9.33301 5.5 16 5.5l135 -107h-22l135 107c7.33301 0 12.833 -1.83301 16.5 -5.5s5.5 -8.16699 5.5 -13.5l-63 -78.5
c-16 -19.667 -28.667 -34.334 -38 -44.001s-17.333 -16.167 -24 -19.5s-13.334 -5 -20.001 -5z" />
    <glyph glyph-name="dcaron" unicode="&#x10f;" horiz-adv-x="562" 
d="M212 -12c-35.333 0 -66.333 8.83008 -93 26.4971s-47.334 42.5 -62.001 74.5s-22 69.333 -22 112c0 50.667 9.83301 95.5 29.5 134.5s46.667 69.833 81 92.5s73.5 34 117.5 34c20.667 0 41.167 -2.16699 61.5 -6.5s40.5 -11.166 60.5 -20.499l-7 -15v273l12 -15l-63 10
c-9.33301 0.666992 -14 12.334 -14 35.001c25.333 4 44.666 6.83301 57.999 8.5s24 2.5 32 2.5c19.333 0 33.333 -4.5 42 -13.5s13 -23.833 13 -44.5v-604c0 -11.333 2.5 -20 7.5 -26s11.833 -9 20.5 -9c7.33301 0 15.5 1.83301 24.5 5.5s16.5 7.83398 22.5 12.501l7 -27
c-11.333 -12 -25.333 -21.667 -42 -29s-32.667 -11 -48 -11c-21.333 0 -37.833 7.16699 -49.5 21.5s-17.5 34.5 -17.5 60.5h-4c-17.333 -23.333 -40.166 -42.833 -68.499 -58.5s-61.166 -23.5 -98.499 -23.5zM253 38.9971c19.333 0 37 3.00098 53 9.00098
s30.833 14.667 44.5 26s26.5 24.666 38.5 39.999l-10 -20v310l10 -24c-16.667 14 -34 24.833 -52 32.5s-40.333 11.5 -67 11.5c-46.667 0 -83 -17.5 -109 -52.5s-39 -85.167 -39 -150.5c0 -59.333 11.167 -104.5 33.5 -135.5s54.833 -46.5 97.5 -46.5zM535 477.998
c-4.66699 0 -9.50195 0.333008 -14.502 1s-8.83301 2 -11.5 4l19 278c4 2 8.16699 3.33301 12.5 4s8.83301 1 13.5 1c6.66699 0 12.834 -1.5 18.501 -4.5s8.83398 -8.16699 9.50098 -15.5v-7.5c0 -2.33301 -0.666992 -5.5 -2 -9.5z" />
    <glyph glyph-name="Dcroat" unicode="&#x110;" horiz-adv-x="716" 
d="M67 0c0 10.667 1.49902 19 4.49902 25s6.83301 9.66699 11.5 11l67 18l-15 -16v564l14 -17l-82 19c0 9.33301 1.16699 16.666 3.5 21.999s6.83301 10.333 13.5 15h287c48.667 0 91.167 -8.16699 127.5 -24.5s66.5 -38.333 90.5 -66s42 -59.167 54 -94.5
s18 -72.333 18 -111c0 -40.667 -7 -81.5 -21 -122.5s-34.333 -78.167 -61 -111.5s-59.167 -60.166 -97.5 -80.499s-82.166 -30.5 -131.499 -30.5h-283zM344.999 45c37.333 0 69.999 7.49707 97.999 22.4971s51.5 35.333 70.5 61s33.333 54.834 43 87.501
s14.5 66.667 14.5 102c0 50 -8.66699 96.333 -26 139s-43 76.834 -77 102.501s-76 38.5 -126 38.5c-29.333 0 -55.666 -1.66699 -78.999 -5s-43 -7.66602 -59 -12.999l13 15v-547l-10 14c19.333 -6 41 -10.333 65 -13s48.333 -4 73 -4zM58.998 293.997
c0 6.66699 0.333008 13.501 1 20.501s1.66699 13.5 3 19.5s3.33301 10.333 6 13l257 -4c0 -9.33301 -1.16699 -17.333 -3.5 -24s-5.5 -11.334 -9.5 -14.001z" />
    <glyph glyph-name="dcroat" unicode="&#x111;" horiz-adv-x="562" 
d="M212 -12c-35.333 0 -66.333 8.83008 -93 26.4971s-47.334 42.5 -62.001 74.5s-22 69.333 -22 112c0 50.667 9.83301 95.5 29.5 134.5s46.667 69.833 81 92.5s73.5 34 117.5 34c20.667 0 41.167 -2.16699 61.5 -6.5s40.5 -11.166 60.5 -20.499l-7 -15v273l12 -15l-63 10
c-9.33301 0.666992 -14 12.334 -14 35.001c25.333 4 44.666 6.83301 57.999 8.5s24 2.5 32 2.5c19.333 0 33.333 -4.5 42 -13.5s13 -23.833 13 -44.5v-604c0 -11.333 2.5 -20 7.5 -26s11.833 -9 20.5 -9c7.33301 0 15.5 1.83301 24.5 5.5s16.5 7.83398 22.5 12.501l7 -27
c-11.333 -12 -25.333 -21.667 -42 -29s-32.667 -11 -48 -11c-21.333 0 -37.833 7.16699 -49.5 21.5s-17.5 34.5 -17.5 60.5h-4c-17.333 -23.333 -40.166 -42.833 -68.499 -58.5s-61.166 -23.5 -98.499 -23.5zM253 38.9971c19.333 0 37 3.00098 53 9.00098
s30.833 14.667 44.5 26s26.5 24.666 38.5 39.999l-10 -20v310l10 -24c-16.667 14 -34 24.833 -52 32.5s-40.333 11.5 -67 11.5c-46.667 0 -83 -17.5 -109 -52.5s-39 -85.167 -39 -150.5c0 -59.333 11.167 -104.5 33.5 -135.5s54.833 -46.5 97.5 -46.5zM282 529.998
c0 6.66699 0.333008 13.501 1 20.501s1.66699 13.5 3 19.5s3.33301 10.333 6 13l257 -4c0 -9.33301 -1.16699 -17.333 -3.5 -24s-5.5 -11.334 -9.5 -14.001z" />
    <glyph glyph-name="Emacron" unicode="&#x112;" horiz-adv-x="600" 
d="M67 0c0 10.667 1.49902 19.001 4.49902 25.001s6.83301 9.66699 11.5 11l67 18l-15 -16v564l14 -17l-82 19c0 9.33301 1.33301 16.666 4 21.999s7.66699 10.333 15 15h421v-126c-10.667 0 -19 1.33301 -25 4s-10 7 -12 13l-25 77l14 -9l-253 -14l11 13v-259l-10 7h209
l-13 -7l15 70c6.66699 0 13.334 -1 20.001 -3s12.334 -6 17.001 -12v-141c-4.66699 -6 -10.334 -9.83301 -17.001 -11.5s-13.334 -2.5 -20.001 -2.5l-16 72l14 -9h-209l10 9v-264l-10 11l279 -18l-13 -13l27 120c9.33301 0 16.833 -1.33301 22.5 -4
s10.834 -6.66699 15.501 -12v-132h-471zM436.999 771.001l-260 -0.00195312c-0.666992 2 -1.33398 4.83301 -2.00098 8.5s-1 7.83398 -1 12.501c0 18.667 4 31.334 12 38.001h260c0.666992 -2 1.33398 -5 2.00098 -9s1 -8.33301 1 -13c0 -16.667 -4 -29 -12 -37z" />
    <glyph glyph-name="emacron" unicode="&#x113;" horiz-adv-x="468" 
d="M237 -12c-40.667 0 -76.1699 9.16406 -106.503 27.4971s-53.833 43.833 -70.5 76.5s-25 70.334 -25 113.001c0 48.667 10.167 92.334 30.5 131.001s47.5 69.334 81.5 92.001s71 34 111 34c34.667 0 64.834 -7.83301 90.501 -23.5s45.834 -37.5 60.501 -65.5
s22 -60.333 22 -97c0 -12.667 -2.33301 -21.167 -7 -25.5s-10 -6.5 -16 -6.5h-315v31l272 7l-11 -11c1.33301 32 -2.5 59.667 -11.5 83s-21.667 41.5 -38 54.5s-35.5 19.5 -57.5 19.5c-36.667 0 -66.667 -17 -90 -51s-35 -82 -35 -144c0 -40 5.83301 -74.833 17.5 -104.5
s28.834 -52.834 51.501 -69.501s50 -25 82 -25c26.667 0 52.334 6.83301 77.001 20.5s46.667 32.834 66 57.501l13 -25c-14 -20 -31.333 -37.5 -52 -52.5s-42.834 -26.5 -66.501 -34.5s-48.167 -12 -73.5 -12zM369.997 572.997l-260 -0.00195312
c-0.666992 2 -1.33398 4.83301 -2.00098 8.5s-1 7.83398 -1 12.501c0 18.667 4 31.334 12 38.001h260c0.666992 -2 1.33398 -5 2.00098 -9s1 -8.33301 1 -13c0 -16.667 -4 -29 -12 -37z" />
    <glyph glyph-name="Ebreve" unicode="&#x114;" horiz-adv-x="600" 
d="M67 0c0 10.667 1.49902 19.001 4.49902 25.001s6.83301 9.66699 11.5 11l67 18l-15 -16v564l14 -17l-82 19c0 9.33301 1.33301 16.666 4 21.999s7.66699 10.333 15 15h421v-126c-10.667 0 -19 1.33301 -25 4s-10 7 -12 13l-25 77l14 -9l-253 -14l11 13v-259l-10 7h209
l-13 -7l15 70c6.66699 0 13.334 -1 20.001 -3s12.334 -6 17.001 -12v-141c-4.66699 -6 -10.334 -9.83301 -17.001 -11.5s-13.334 -2.5 -20.001 -2.5l-16 72l14 -9h-209l10 9v-264l-10 11l279 -18l-13 -13l27 120c9.33301 0 16.833 -1.33301 22.5 -4
s10.834 -6.66699 15.501 -12v-132h-471zM311.999 713.001c-25.333 0 -48.501 6 -69.501 18s-37.667 28 -50 48s-18.5 42.333 -18.5 67c0 6.66699 2.83301 11.667 8.5 15s12.834 5 21.501 5c2.66699 -26.667 14.167 -49 34.5 -67s44.833 -27 73.5 -27c29.333 0 54 9 74 27
s31.333 40.333 34 67c9.33301 0 16.833 -1.66699 22.5 -5s8.5 -8.33301 8.5 -15c0 -24.667 -6.33301 -47 -19 -67s-29.5 -36 -50.5 -48s-44.167 -18 -69.5 -18z" />
    <glyph glyph-name="ebreve" unicode="&#x115;" horiz-adv-x="468" 
d="M237 -12c-40.667 0 -76.1699 9.16406 -106.503 27.4971s-53.833 43.833 -70.5 76.5s-25 70.334 -25 113.001c0 48.667 10.167 92.334 30.5 131.001s47.5 69.334 81.5 92.001s71 34 111 34c34.667 0 64.834 -7.83301 90.501 -23.5s45.834 -37.5 60.501 -65.5
s22 -60.333 22 -97c0 -12.667 -2.33301 -21.167 -7 -25.5s-10 -6.5 -16 -6.5h-315v31l272 7l-11 -11c1.33301 32 -2.5 59.667 -11.5 83s-21.667 41.5 -38 54.5s-35.5 19.5 -57.5 19.5c-36.667 0 -66.667 -17 -90 -51s-35 -82 -35 -144c0 -40 5.83301 -74.833 17.5 -104.5
s28.834 -52.834 51.501 -69.501s50 -25 82 -25c26.667 0 52.334 6.83301 77.001 20.5s46.667 32.834 66 57.501l13 -25c-14 -20 -31.333 -37.5 -52 -52.5s-42.834 -26.5 -66.501 -34.5s-48.167 -12 -73.5 -12zM244.997 518.997c-25.333 0 -48.501 6.5 -69.501 19.5
s-37.667 30.667 -50 53s-18.5 46.833 -18.5 73.5c0 6.66699 2.83301 11.667 8.5 15s12.834 5 21.501 5c2.66699 -30.667 14.167 -56.167 34.5 -76.5s44.833 -30.5 73.5 -30.5c29.333 0 54 10.167 74 30.5s31.333 45.833 34 76.5c9.33301 0 16.833 -1.66699 22.5 -5
s8.5 -8.33301 8.5 -15c0 -26.667 -6.33301 -51.167 -19 -73.5s-29.5 -40 -50.5 -53s-44.167 -19.5 -69.5 -19.5z" />
    <glyph glyph-name="Edotaccent" unicode="&#x116;" horiz-adv-x="600" 
d="M67 0c0 10.667 1.49902 19.001 4.49902 25.001s6.83301 9.66699 11.5 11l67 18l-15 -16v564l14 -17l-82 19c0 9.33301 1.33301 16.666 4 21.999s7.66699 10.333 15 15h421v-126c-10.667 0 -19 1.33301 -25 4s-10 7 -12 13l-25 77l14 -9l-253 -14l11 13v-259l-10 7h209
l-13 -7l15 70c6.66699 0 13.334 -1 20.001 -3s12.334 -6 17.001 -12v-141c-4.66699 -6 -10.334 -9.83301 -17.001 -11.5s-13.334 -2.5 -20.001 -2.5l-16 72l14 -9h-209l10 9v-264l-10 11l279 -18l-13 -13l27 120c9.33301 0 16.833 -1.33301 22.5 -4
s10.834 -6.66699 15.501 -12v-132h-471zM312.379 747.078c-15.4814 0 -27.415 4.35352 -35.8008 13.0615s-12.5791 20.1582 -12.5791 34.3496s4.99902 25.8027 14.998 34.833c9.99805 9.03125 21.125 13.5469 33.3818 13.5469c15.4814 0 27.5762 -4.35449 36.2842 -13.0625
s13.0625 -20.4805 13.0625 -35.3174c0 -13.5459 -4.99902 -24.834 -14.998 -33.8643c-9.99805 -9.03125 -21.4473 -13.5469 -34.3486 -13.5469z" />
    <glyph glyph-name="edotaccent" unicode="&#x117;" horiz-adv-x="468" 
d="M237 -12c-40.667 0 -76.1699 9.16406 -106.503 27.4971s-53.833 43.833 -70.5 76.5s-25 70.334 -25 113.001c0 48.667 10.167 92.334 30.5 131.001s47.5 69.334 81.5 92.001s71 34 111 34c34.667 0 64.834 -7.83301 90.501 -23.5s45.834 -37.5 60.501 -65.5
s22 -60.333 22 -97c0 -12.667 -2.33301 -21.167 -7 -25.5s-10 -6.5 -16 -6.5h-315v31l272 7l-11 -11c1.33301 32 -2.5 59.667 -11.5 83s-21.667 41.5 -38 54.5s-35.5 19.5 -57.5 19.5c-36.667 0 -66.667 -17 -90 -51s-35 -82 -35 -144c0 -40 5.83301 -74.833 17.5 -104.5
s28.834 -52.834 51.501 -69.501s50 -25 82 -25c26.667 0 52.334 6.83301 77.001 20.5s46.667 32.834 66 57.501l13 -25c-14 -20 -31.333 -37.5 -52 -52.5s-42.834 -26.5 -66.501 -34.5s-48.167 -12 -73.5 -12zM244.997 552.997c-16 0 -28.334 4.5 -37.001 13.5
s-13 20.833 -13 35.5s5.16699 26.667 15.5 36s21.833 14 34.5 14c16 0 28.5 -4.5 37.5 -13.5s13.5 -21.167 13.5 -36.5c0 -14 -5.16699 -25.667 -15.5 -35s-22.166 -14 -35.499 -14z" />
    <glyph glyph-name="Eogonek" unicode="&#x118;" horiz-adv-x="600" 
d="M67 0c0 10.667 1.49902 19.001 4.49902 25.001s6.83301 9.66699 11.5 11l67 18l-15 -16v564l14 -17l-82 19c0 9.33301 1.33301 16.666 4 21.999s7.66699 10.333 15 15h421v-126c-10.667 0 -19 1.33301 -25 4s-10 7 -12 13l-25 77l14 -9l-253 -14l11 13v-259l-10 7h209
l-13 -7l15 70c6.66699 0 13.334 -1 20.001 -3s12.334 -6 17.001 -12v-141c-4.66699 -6 -10.334 -9.83301 -17.001 -11.5s-13.334 -2.5 -20.001 -2.5l-16 72l14 -9h-209l10 9v-264l-10 11l279 -18l-13 -13l27 120c9.33301 0 16.833 -1.33301 22.5 -4
s10.834 -6.66699 15.501 -12v-132h-471zM457.999 -220.999c-26.667 0 -47.999 7.33301 -63.999 22s-24 34 -24 58c0 30.667 12.167 58 36.5 82s62.833 47.333 115.5 70l16 -11c-38.667 -16.667 -67.334 -35 -86.001 -55s-28 -42 -28 -66c0 -36.667 18.667 -55 56 -55
c22 0 43.333 7.33301 64 22l10 -27c-10.667 -11.333 -25 -20.833 -43 -28.5s-35.667 -11.5 -53 -11.5z" />
    <glyph glyph-name="eogonek" unicode="&#x119;" horiz-adv-x="468" 
d="M237 -12c-40.667 0 -76.1699 9.16406 -106.503 27.4971s-53.833 43.833 -70.5 76.5s-25 70.334 -25 113.001c0 48.667 10.167 92.334 30.5 131.001s47.5 69.334 81.5 92.001s71 34 111 34c34.667 0 64.834 -7.83301 90.501 -23.5s45.834 -37.5 60.501 -65.5
s22 -60.333 22 -97c0 -12.667 -2.33301 -21.167 -7 -25.5s-10 -6.5 -16 -6.5h-315v31l272 7l-11 -11c1.33301 32 -2.5 59.667 -11.5 83s-21.667 41.5 -38 54.5s-35.5 19.5 -57.5 19.5c-36.667 0 -66.667 -17 -90 -51s-35 -82 -35 -144c0 -40 5.83301 -74.833 17.5 -104.5
s28.834 -52.834 51.501 -69.501s50 -25 82 -25c26.667 0 52.334 6.83301 77.001 20.5s46.667 32.834 66 57.501l13 -25c-14 -20 -31.333 -37.5 -52 -52.5s-42.834 -26.5 -66.501 -34.5s-48.167 -12 -73.5 -12zM223.997 -221.003c-26.667 0 -47.999 7.33301 -63.999 22
s-24 34 -24 58c0 30.667 12.167 58 36.5 82s62.833 47.333 115.5 70l16 -11c-38.667 -16.667 -67.334 -35 -86.001 -55s-28 -42 -28 -66c0 -36.667 18.667 -55 56 -55c22 0 43.333 7.33301 64 22l10 -27c-10.667 -11.333 -25 -20.833 -43 -28.5s-35.667 -11.5 -53 -11.5z
" />
    <glyph glyph-name="Ecaron" unicode="&#x11a;" horiz-adv-x="600" 
d="M67 0c0 10.667 1.49902 19.001 4.49902 25.001s6.83301 9.66699 11.5 11l67 18l-15 -16v564l14 -17l-82 19c0 9.33301 1.33301 16.666 4 21.999s7.66699 10.333 15 15h421v-126c-10.667 0 -19 1.33301 -25 4s-10 7 -12 13l-25 77l14 -9l-253 -14l11 13v-259l-10 7h209
l-13 -7l15 70c6.66699 0 13.334 -1 20.001 -3s12.334 -6 17.001 -12v-141c-4.66699 -6 -10.334 -9.83301 -17.001 -11.5s-13.334 -2.5 -20.001 -2.5l-16 72l14 -9h-209l10 9v-264l-10 11l279 -18l-13 -13l27 120c9.33301 0 16.833 -1.33301 22.5 -4
s10.834 -6.66699 15.501 -12v-132h-471zM311.999 713.001c-7.33301 0 -14.3311 1.66699 -20.998 5s-14.834 9.83301 -24.501 19.5s-22.5 24.334 -38.5 44.001l-63 78.5c0 5.33301 2 9.83301 6 13.5s9.33301 5.5 16 5.5l135 -107h-22l135 107
c7.33301 0 12.833 -1.83301 16.5 -5.5s5.5 -8.16699 5.5 -13.5l-63 -78.5c-16 -19.667 -28.667 -34.334 -38 -44.001s-17.333 -16.167 -24 -19.5s-13.334 -5 -20.001 -5z" />
    <glyph glyph-name="ecaron" unicode="&#x11b;" horiz-adv-x="468" 
d="M237 -12c-40.667 0 -76.1699 9.16406 -106.503 27.4971s-53.833 43.833 -70.5 76.5s-25 70.334 -25 113.001c0 48.667 10.167 92.334 30.5 131.001s47.5 69.334 81.5 92.001s71 34 111 34c34.667 0 64.834 -7.83301 90.501 -23.5s45.834 -37.5 60.501 -65.5
s22 -60.333 22 -97c0 -12.667 -2.33301 -21.167 -7 -25.5s-10 -6.5 -16 -6.5h-315v31l272 7l-11 -11c1.33301 32 -2.5 59.667 -11.5 83s-21.667 41.5 -38 54.5s-35.5 19.5 -57.5 19.5c-36.667 0 -66.667 -17 -90 -51s-35 -82 -35 -144c0 -40 5.83301 -74.833 17.5 -104.5
s28.834 -52.834 51.501 -69.501s50 -25 82 -25c26.667 0 52.334 6.83301 77.001 20.5s46.667 32.834 66 57.501l13 -25c-14 -20 -31.333 -37.5 -52 -52.5s-42.834 -26.5 -66.501 -34.5s-48.167 -12 -73.5 -12zM244.997 510.997c-5.33301 0 -10.6689 1.5 -16.002 4.5
s-12.666 9.66699 -21.999 20s-22.666 26.333 -39.999 48l-69 89.5c0 6 2 10.833 6 14.5s9.33301 5.5 16 5.5l77 -68.5l48 -43.5c11.333 11.333 26.833 25.833 46.5 43.5l76.5 68.5c7.33301 0 12.833 -1.83301 16.5 -5.5s5.5 -8.5 5.5 -14.5l-68.5 -89.5
c-17 -21.667 -30.333 -37.667 -40 -48s-17 -17 -22 -20s-9.83301 -4.5 -14.5 -4.5z" />
    <glyph glyph-name="Gcircumflex" unicode="&#x11c;" horiz-adv-x="680" 
d="M354 -12c-59.333 0 -111.498 12.668 -156.498 38.001s-79.833 61 -104.5 107s-37 99.667 -37 161c0 52 8.33301 99.833 25 143.5s40 81.834 70 114.501s65.333 58 106 76s85 27 133 27c33.333 0 66.333 -4.16699 99 -12.5s61.667 -20.5 87 -36.5l-18 -140
c-12.667 1.33301 -22 3.5 -28 6.5s-9.33301 7.5 -10 13.5l-7 90l13 -18c-14.667 13.333 -36.5 24.166 -65.5 32.499s-59.167 12.5 -90.5 12.5c-46 0 -85.833 -11.167 -119.5 -33.5s-59.667 -54.333 -78 -96s-27.5 -91.5 -27.5 -149.5
c0 -58.667 9.33301 -109.334 28 -152.001s45.167 -75.667 79.5 -99s74.833 -35 121.5 -35c57.333 0 104.333 18.333 141 55l-14 -32v198l14 -23l-98 20c0 9.33301 1.33301 16.5 4 21.5s7.66699 9.83301 15 14.5h193c0 -10.667 -1.16699 -18.667 -3.5 -24
s-6.5 -9.33301 -12.5 -12l-52 -19l19 23v-202c-32.667 -22.667 -68.334 -40 -107.001 -52s-78.334 -18 -119.001 -18zM361.002 879.001c7.33301 0 14.165 -1.66699 20.498 -5s14.333 -9.83301 24 -19.5s22.334 -24.167 38.001 -43.5l62.5 -77c0 -6 -1.83301 -11 -5.5 -15
s-9.16699 -6 -16.5 -6l-135 107h22l-135 -107c-6.66699 0 -12 2 -16 6s-6 9 -6 15l63 77c16 19.333 28.833 33.833 38.5 43.5s17.834 16.167 24.501 19.5s13.667 5 21 5z" />
    </font>
</defs>
</svg>
