<svg width="124" height="58" viewBox="0 0 124 58" fill="none" xmlns="http://www.w3.org/2000/svg">
<path d="M2.33187 25V23.0312L4.87875 22.5938V4.67188L2.33187 4.23438V2.25H10.5037V4.23438L7.95687 4.67188V12.5312H18.8319V4.67188L16.285 4.23438V2.25H24.4569V4.23438L21.91 4.67188V22.5938L24.4569 23.0312V25H16.285V23.0312L18.8319 22.5938V14.9531H7.95687V22.5938L10.5037 23.0312V25H2.33187ZM38.2675 25.3281C36.5071 25.3281 35.1685 24.901 34.2519 24.0469C33.3352 23.1823 32.8769 21.9688 32.8769 20.4062C32.8769 18.8021 33.5331 17.5156 34.8456 16.5469C36.1581 15.5677 37.981 15.0781 40.3144 15.0781H43.33V13.4219C43.33 12.401 43.0175 11.6094 42.3925 11.0469C41.7779 10.4844 40.9081 10.2031 39.7831 10.2031C39.0748 10.2031 38.4602 10.2917 37.9394 10.4688C37.4185 10.6354 36.9446 10.8698 36.5175 11.1719L36.1894 13.5312H33.8144V9.65625C35.3456 8.40625 37.3508 7.78125 39.83 7.78125C41.8821 7.78125 43.4915 8.27083 44.6581 9.25C45.8248 10.2292 46.4081 11.6302 46.4081 13.4531V21.5938C46.4081 21.8125 46.4081 22.026 46.4081 22.2344C46.4185 22.4427 46.4342 22.651 46.455 22.8594L48.0956 23.0312V25H43.6738C43.4967 24.1458 43.3873 23.3698 43.3456 22.6719C42.7519 23.4323 42.0071 24.0677 41.1113 24.5781C40.2258 25.0781 39.2779 25.3281 38.2675 25.3281ZM38.7206 22.75C39.7415 22.75 40.6738 22.5052 41.5175 22.0156C42.3613 21.526 42.9654 20.9375 43.33 20.25V17.1875H40.205C38.7883 17.1875 37.7258 17.526 37.0175 18.2031C36.3092 18.8802 35.955 19.6354 35.955 20.4688C35.955 21.9896 36.8769 22.75 38.7206 22.75ZM56.4062 25V23.0312L58.9531 22.5938V10.5156L56.4062 10.0781V8.09375H61.7031L61.9219 10.6094C62.4844 9.71354 63.1875 9.02083 64.0312 8.53125C64.8854 8.03125 65.8542 7.78125 66.9375 7.78125C68.7604 7.78125 70.1719 8.31771 71.1719 9.39062C72.1719 10.4531 72.6719 12.099 72.6719 14.3281V22.5938L75.2188 23.0312V25H67.0469V23.0312L69.5938 22.5938V14.3906C69.5938 12.901 69.2969 11.8438 68.7031 11.2188C68.1198 10.5938 67.224 10.2812 66.0156 10.2812C65.1302 10.2812 64.3438 10.4948 63.6562 10.9219C62.9792 11.349 62.4375 11.9323 62.0312 12.6719V22.5938L64.5781 23.0312V25H56.4062ZM89.8106 25.3281C88.4356 25.3281 87.2533 24.9896 86.2637 24.3125C85.2846 23.625 84.5346 22.6719 84.0137 21.4531C83.4929 20.2344 83.2325 18.8125 83.2325 17.1875V16.8594C83.2325 15.0469 83.4929 13.4583 84.0137 12.0938C84.5346 10.7292 85.2898 9.67188 86.2794 8.92188C87.269 8.16146 88.4565 7.78125 89.8419 7.78125C90.8419 7.78125 91.7221 7.96875 92.4825 8.34375C93.2533 8.70833 93.9096 9.23958 94.4512 9.9375V3.04688L91.9044 2.60938V0.625H97.5294V22.5938L100.076 23.0312V25H94.8575L94.6075 22.9844C93.4825 24.5469 91.8835 25.3281 89.8106 25.3281ZM90.5919 22.8281C91.5085 22.8281 92.2794 22.6198 92.9044 22.2031C93.5294 21.7865 94.045 21.1979 94.4512 20.4375V12.5938C94.0554 11.8854 93.5398 11.3229 92.9044 10.9062C92.269 10.4896 91.5085 10.2812 90.6231 10.2812C89.1544 10.2812 88.0658 10.8906 87.3575 12.1094C86.6596 13.3281 86.3106 14.9115 86.3106 16.8594V17.1875C86.3106 18.8854 86.6596 20.25 87.3575 21.2812C88.0554 22.3125 89.1335 22.8281 90.5919 22.8281ZM114.965 25.3281C113.83 25.3281 112.767 25.2135 111.777 24.9844C110.788 24.7552 109.736 24.401 108.621 23.9219L108.59 19.9062H110.918L111.496 22.3281C112.6 22.7865 113.757 23.0156 114.965 23.0156C116.215 23.0156 117.111 22.776 117.652 22.2969C118.194 21.8177 118.465 21.224 118.465 20.5156C118.465 19.849 118.189 19.2865 117.637 18.8281C117.095 18.3594 116.106 17.9635 114.668 17.6406C112.626 17.1719 111.121 16.5469 110.152 15.7656C109.194 14.974 108.715 13.9219 108.715 12.6094C108.715 11.6927 108.981 10.875 109.512 10.1562C110.043 9.42708 110.783 8.84896 111.731 8.42188C112.679 7.99479 113.783 7.78125 115.043 7.78125C116.324 7.78125 117.418 7.92708 118.324 8.21875C119.241 8.51042 120.038 8.90104 120.715 9.39062L120.871 13.25H118.559L118.059 11C117.694 10.7292 117.262 10.5208 116.762 10.375C116.262 10.2292 115.689 10.1562 115.043 10.1562C114.085 10.1562 113.304 10.3802 112.699 10.8281C112.106 11.276 111.809 11.8385 111.809 12.5156C111.809 12.9115 111.892 13.2552 112.059 13.5469C112.236 13.8385 112.569 14.1042 113.059 14.3438C113.548 14.5729 114.267 14.8021 115.215 15.0312C117.569 15.5833 119.21 16.2865 120.137 17.1406C121.074 17.9948 121.543 19.0469 121.543 20.2969C121.543 21.724 121.012 22.9219 119.949 23.8906C118.897 24.849 117.236 25.3281 114.965 25.3281ZM7.51937 57.3281C6.01937 57.3281 4.71208 57.0573 3.5975 56.5156C2.49333 55.9635 1.63396 55.2031 1.01937 54.2344C0.415208 53.2656 0.113125 52.1458 0.113125 50.875C0.113125 49.625 0.467292 48.5312 1.17562 47.5938C1.88396 46.6562 2.94125 45.7135 4.3475 44.7656C4.38917 44.7448 4.44125 44.7135 4.50375 44.6719C3.69125 43.6406 3.08708 42.724 2.69125 41.9219C2.29542 41.1094 2.0975 40.276 2.0975 39.4219C2.0975 37.6615 2.60271 36.3073 3.61312 35.3594C4.63396 34.401 6.035 33.9219 7.81625 33.9219C8.92042 33.9219 9.88917 34.1406 10.7225 34.5781C11.5558 35.0156 12.2069 35.599 12.6756 36.3281C13.1444 37.0573 13.3787 37.8698 13.3787 38.7656C13.3787 39.7865 13.1027 40.6719 12.5506 41.4219C12.009 42.1615 11.2017 42.9219 10.1287 43.7031L8.42562 44.9531L13.7381 51.3438C14.1652 50.6667 14.4985 49.9167 14.7381 49.0938C14.9777 48.2708 15.0975 47.401 15.0975 46.4844H17.8475C17.8475 49.2031 17.0558 51.5156 15.4725 53.4219L18.3631 56.9219L18.3319 57H14.7537L13.4256 55.4062C11.7069 56.6875 9.73812 57.3281 7.51937 57.3281ZM6.86312 43.0781L9.01937 41.5938C9.61312 41.1979 10.0142 40.7708 10.2225 40.3125C10.4412 39.8438 10.5506 39.3281 10.5506 38.7656C10.5506 38.1302 10.2954 37.5677 9.785 37.0781C9.285 36.5885 8.62875 36.3438 7.81625 36.3438C6.9725 36.3438 6.32146 36.6406 5.86312 37.2344C5.40479 37.8177 5.17562 38.5365 5.17562 39.3906C5.17562 40.4323 5.73812 41.6615 6.86312 43.0781ZM7.51937 54.9219C9.04021 54.9219 10.4673 54.4271 11.8006 53.4375L6.16 46.6406L5.535 47.0938C4.58708 47.8021 3.95687 48.4792 3.64437 49.125C3.34229 49.7708 3.19125 50.3542 3.19125 50.875C3.19125 52.0521 3.56104 53.0208 4.30062 53.7812C5.04021 54.5417 6.11312 54.9219 7.51937 54.9219ZM26.2987 57V55.0312L28.8456 54.5938V36.6719L26.2987 36.2344V34.25H36.7519C39.179 34.25 41.0644 34.875 42.4081 36.125C43.7623 37.375 44.4394 39.0208 44.4394 41.0625C44.4394 43.125 43.7623 44.776 42.4081 46.0156C41.0644 47.2552 39.179 47.875 36.7519 47.875H31.9237V54.5938L34.4706 55.0312V57H26.2987ZM31.9237 45.4688H36.7519C38.2935 45.4688 39.4446 45.0573 40.205 44.2344C40.9758 43.401 41.3612 42.3542 41.3612 41.0938C41.3612 39.8333 40.9758 38.7812 40.205 37.9375C39.4446 37.0938 38.2935 36.6719 36.7519 36.6719H31.9237V45.4688ZM57.6719 57.3281C55.9115 57.3281 54.5729 56.901 53.6562 56.0469C52.7396 55.1823 52.2812 53.9688 52.2812 52.4062C52.2812 50.8021 52.9375 49.5156 54.25 48.5469C55.5625 47.5677 57.3854 47.0781 59.7188 47.0781H62.7344V45.4219C62.7344 44.401 62.4219 43.6094 61.7969 43.0469C61.1823 42.4844 60.3125 42.2031 59.1875 42.2031C58.4792 42.2031 57.8646 42.2917 57.3438 42.4688C56.8229 42.6354 56.349 42.8698 55.9219 43.1719L55.5938 45.5312H53.2188V41.6562C54.75 40.4062 56.7552 39.7812 59.2344 39.7812C61.2865 39.7812 62.8958 40.2708 64.0625 41.25C65.2292 42.2292 65.8125 43.6302 65.8125 45.4531V53.5938C65.8125 53.8125 65.8125 54.026 65.8125 54.2344C65.8229 54.4427 65.8385 54.651 65.8594 54.8594L67.5 55.0312V57H63.0781C62.901 56.1458 62.7917 55.3698 62.75 54.6719C62.1562 55.4323 61.4115 56.0677 60.5156 56.5781C59.6302 57.0781 58.6823 57.3281 57.6719 57.3281ZM58.125 54.75C59.1458 54.75 60.0781 54.5052 60.9219 54.0156C61.7656 53.526 62.3698 52.9375 62.7344 52.25V49.1875H59.6094C58.1927 49.1875 57.1302 49.526 56.4219 50.2031C55.7135 50.8802 55.3594 51.6354 55.3594 52.4688C55.3594 53.9896 56.2812 54.75 58.125 54.75ZM81.8106 57L77.3575 42.2969L75.4669 42.0781V40.0938H82.4512V42.0781L80.3731 42.4219L82.7012 50.8438L83.2325 52.8438H83.3262L84.0137 50.8438L87.6856 40.0938H90.2794L93.7794 50.8125L94.5294 53.1875H94.6231L95.3575 50.8125L97.7169 42.4062L95.5919 42.0781V40.0938H102.42V42.0781L100.545 42.3438L96.17 57H93.2481L89.8262 46.8438L89.0137 44.125L88.92 44.1406L88.1231 46.8438L84.4512 57H81.8106ZM117.074 57.3281C115.939 57.3281 114.876 57.2135 113.887 56.9844C112.897 56.7552 111.845 56.401 110.731 55.9219L110.699 51.9062H113.027L113.606 54.3281C114.71 54.7865 115.866 55.0156 117.074 55.0156C118.324 55.0156 119.22 54.776 119.762 54.2969C120.304 53.8177 120.574 53.224 120.574 52.5156C120.574 51.849 120.298 51.2865 119.746 50.8281C119.205 50.3594 118.215 49.9635 116.777 49.6406C114.736 49.1719 113.231 48.5469 112.262 47.7656C111.304 46.974 110.824 45.9219 110.824 44.6094C110.824 43.6927 111.09 42.875 111.621 42.1562C112.152 41.4271 112.892 40.849 113.84 40.4219C114.788 39.9948 115.892 39.7812 117.152 39.7812C118.434 39.7812 119.527 39.9271 120.434 40.2188C121.35 40.5104 122.147 40.901 122.824 41.3906L122.981 45.25H120.668L120.168 43C119.804 42.7292 119.371 42.5208 118.871 42.375C118.371 42.2292 117.798 42.1562 117.152 42.1562C116.194 42.1562 115.413 42.3802 114.809 42.8281C114.215 43.276 113.918 43.8385 113.918 44.5156C113.918 44.9115 114.001 45.2552 114.168 45.5469C114.345 45.8385 114.679 46.1042 115.168 46.3438C115.658 46.5729 116.376 46.8021 117.324 47.0312C119.679 47.5833 121.319 48.2865 122.246 49.1406C123.184 49.9948 123.652 51.0469 123.652 52.2969C123.652 53.724 123.121 54.9219 122.059 55.8906C121.007 56.849 119.345 57.3281 117.074 57.3281Z" fill="white"/>
</svg>
